999
dxfrw 0.6.3
  0
SECTION
  2
HEADER
  9
$ACADVER
  1
AC1021
  9
$DWGCODEPAGE
  3
ANSI_1252
  9
$INSBASE
 10
0
 20
0
 30
0
  9
$EXTMIN
 10
0
 20
0
 30
0
  9
$EXTMAX
 10
245
 20
175
 30
0
  9
$LIMMIN
 10
0
 20
0
  9
$LIMMAX
 10
420
 20
297
  9
$ORTHOMODE
 70
    0
  9
$REGENMODE
 70
    1
  9
$FILLMODE
 70
    1
  9
$QTEXTMODE
 70
    0
  9
$MIRRTEXT
 70
    0
  9
$LTSCALE
 40
1
  9
$ATTMODE
 70
    0
  9
$TEXTSIZE
 40
2.5
  9
$TRACEWID
 40
15.68
  9
$TEXTSTYLE
  7
STANDARD
  9
$CLAYER
  8
Text
  9
$CELTYPE
  6
BYLAYER
  9
$CECOLOR
 62
  256
  9
$CELTSCALE
 40
1
  9
$DISPSILH
 70
    0
  9
$DIMSCALE
 40
1
  9
$DIMASZ
 40
2.5
  9
$DIMEXO
 40
0.625
  9
$DIMDLI
 40
3.75
  9
$DIMRND
 40
0
  9
$DIMDLE
 40
0
  9
$DIMEXE
 40
1.25
  9
$DIMTP
 40
0
  9
$DIMTM
 40
0
  9
$DIMTXT
 40
2.5
  9
$DIMCEN
 40
2.5
  9
$DIMTSZ
 40
0
  9
$DIMTOL
 70
    0
  9
$DIMLIM
 70
    0
  9
$DIMTIH
 70
    0
  9
$DIMTOH
 70
    0
  9
$DIMSE1
 70
    0
  9
$DIMSE2
 70
    0
  9
$DIMTAD
 70
    1
  9
$DIMZIN
 70
    8
  9
$DIMBLK
  1

  9
$DIMASO
 70
    1
  9
$DIMSHO
 70
    1
  9
$DIMPOST
  1

  9
$DIMAPOST
  1

  9
$DIMALT
 70
    0
  9
$DIMALTD
 70
    3
  9
$DIMALTF
 40
0.03937
  9
$DIMLFAC
 40
1
  9
$DIMTOFL
 70
    1
  9
$DIMTVP
 40
0
  9
$DIMTIX
 70
    0
  9
$DIMSOXD
 70
    0
  9
$DIMSAH
 70
    0
  9
$DIMBLK1
  1

  9
$DIMBLK2
  1

  9
$DIMSTYLE
  2
STANDARD
  9
$DIMCLRD
 70
    0
  9
$DIMCLRE
 70
    0
  9
$DIMCLRT
 70
    0
  9
$DIMTFAC
 40
1
  9
$DIMGAP
 40
0.625
  9
$DIMJUST
 70
    0
  9
$DIMSD1
 70
    0
  9
$DIMSD2
 70
    0
  9
$DIMTOLJ
 70
    0
  9
$DIMTZIN
 70
    8
  9
$DIMALTZ
 70
    0
  9
$DIMALTTZ
 70
    0
  9
$DIMUPT
 70
    0
  9
$DIMDEC
 70
    4
  9
$DIMTDEC
 70
    2
  9
$DIMALTU
 70
    2
  9
$DIMALTTD
 70
    3
  9
$DIMTXSTY
  7
STANDARD
  9
$DIMAUNIT
 70
    0
  9
$DIMADEC
 70
    0
  9
$DIMALTRND
 40
0
  9
$DIMAZIN
 70
    0
  9
$DIMDSEP
 70
   44
  9
$DIMATFIT
 70
    3
  9
$DIMFRAC
 70
    0
  9
$DIMLDRBLK
  1
STANDARD
  9
$DIMLUNIT
 70
    2
  9
$DIMLWD
 70
   -2
  9
$DIMLWE
 70
   -2
  9
$DIMTMOVE
 70
    0
  9
$DIMFXL
 40
1
  9
$DIMFXLON
 70
    0
  9
$DIMJOGANG
 40
0.7854
  9
$DIMTFILL
 70
    0
  9
$DIMTFILLCLR
 70
    0
  9
$DIMARCSYM
 70
    0
  9
$DIMLTYPE
  6

  9
$DIMLTEX1
  6

  9
$DIMLTEX2
  6

  9
$LUNITS
 70
    2
  9
$LUPREC
 70
    4
  9
$SKETCHINC
 40
1
  9
$FILLETRAD
 40
0
  9
$AUNITS
 70
    0
  9
$AUPREC
 70
    2
  9
$MENU
  1
.
  9
$ELEVATION
 40
0
  9
$PELEVATION
 40
0
  9
$THICKNESS
 40
0
  9
$LIMCHECK
 70
    0
  9
$CHAMFERA
 40
0
  9
$CHAMFERB
 40
0
  9
$CHAMFERC
 40
0
  9
$CHAMFERD
 40
0
  9
$SKPOLY
 70
    0
  9
$USRTIMER
 70
    1
  9
$ANGBASE
 50
0
  9
$ANGDIR
 70
    0
  9
$PDMODE
 70
   34
  9
$PDSIZE
 40
0
  9
$PLINEWID
 40
0
  9
$SPLFRAME
 70
    0
  9
$SPLINETYPE
 70
    2
  9
$SPLINESEGS
 70
    8
  9
$HANDSEED
  5
20000
  9
$SURFTAB1
 70
    6
  9
$SURFTAB2
 70
    6
  9
$SURFTYPE
 70
    6
  9
$SURFU
 70
    6
  9
$SURFV
 70
    6
  9
$UCSBASE
  2

  9
$UCSNAME
  2

  9
$UCSORG
 10
0
 20
0
 30
0
  9
$UCSXDIR
 10
1
 20
0
 30
0
  9
$UCSYDIR
 10
0
 20
1
 30
0
  9
$UCSORTHOREF
  2

  9
$UCSORTHOVIEW
 70
    0
  9
$UCSORGTOP
 10
0
 20
0
 30
0
  9
$UCSORGBOTTOM
 10
0
 20
0
 30
0
  9
$UCSORGLEFT
 10
0
 20
0
 30
0
  9
$UCSORGRIGHT
 10
0
 20
0
 30
0
  9
$UCSORGFRONT
 10
0
 20
0
 30
0
  9
$UCSORGBACK
 10
0
 20
0
 30
0
  9
$PUCSBASE
  2

  9
$PUCSNAME
  2

  9
$PUCSORG
 10
0
 20
0
 30
0
  9
$PUCSXDIR
 10
1
 20
0
 30
0
  9
$PUCSYDIR
 10
0
 20
1
 30
0
  9
$PUCSORTHOREF
  2

  9
$PUCSORTHOVIEW
 70
    0
  9
$PUCSORGTOP
 10
0
 20
0
 30
0
  9
$PUCSORGBOTTOM
 10
0
 20
0
 30
0
  9
$PUCSORGLEFT
 10
0
 20
0
 30
0
  9
$PUCSORGRIGHT
 10
0
 20
0
 30
0
  9
$PUCSORGFRONT
 10
0
 20
0
 30
0
  9
$PUCSORGBACK
 10
0
 20
0
 30
0
  9
$USERI1
 70
    0
  9
$USERI2
 70
    0
  9
$USERI3
 70
    0
  9
$USERI4
 70
    0
  9
$USERI5
 70
    0
  9
$USERR1
 40
0
  9
$USERR2
 40
0
  9
$USERR3
 40
0
  9
$USERR4
 40
0
  9
$USERR5
 40
0
  9
$WORLDVIEW
 70
    1
  9
$SHADEDGE
 70
    3
  9
$SHADEDIF
 70
   70
  9
$TILEMODE
 70
    1
  9
$MAXACTVP
 70
   64
  9
$PINSBASE
 10
19
 20
12.5
 30
0
  9
$PLIMCHECK
 70
    0
  9
$PEXTMIN
 10
0
 20
0
 30
0
  9
$PEXTMAX
 10
0
 20
0
 30
0
  9
$GRIDMODE
 70
    1
  9
$SNAPSTYLE
 70
    0
  9
$PLIMMIN
 10
0
 20
0
  9
$PLIMMAX
 10
297
 20
210
  9
$UNITMODE
 70
    0
  9
$VISRETAIN
 70
    1
  9
$PLINEGEN
 70
    0
  9
$PSLTSCALE
 70
    1
  9
$TREEDEPTH
 70
 3020
  9
$CMLSTYLE
  2
Standard
  9
$CMLJUST
 70
    0
  9
$CMLSCALE
 40
20
  9
$PROXYGRAPHICS
 70
    1
  9
$MEASUREMENT
 70
    1
  9
$CELWEIGHT
370
   -1
  9
$ENDCAPS
280
    0
  9
$JOINSTYLE
280
    0
  9
$LWDISPLAY
290
    0
  9
$INSUNITS
 70
    0
  9
$HYPERLINKBASE
  1

  9
$STYLESHEET
  1

  9
$XEDIT
290
    1
  9
$CEPSNTYPE
380
    0
  9
$PSTYLEMODE
290
    1
  9
$EXTNAMES
290
    1
  9
$PSVPSCALE
 40
1
  9
$OLESTARTUP
290
    0
  9
$SORTENTS
280
  127
  9
$INDEXCTL
280
    0
  9
$HIDETEXT
280
    1
  9
$XCLIPFRAME
290
    0
  9
$HALOGAP
280
    0
  9
$OBSCOLOR
 70
  257
  9
$OBSLTYPE
280
    0
  9
$INTERSECTIONDISPLAY
280
    0
  9
$INTERSECTIONCOLOR
 70
  257
  9
$DIMASSOC
280
    1
  9
$PROJECTNAME
  1

  9
$CAMERADISPLAY
290
    0
  9
$LENSLENGTH
 40
50
  9
$CAMERAHEIGHT
 40
0
  9
$STEPSPERSEC
 40
2
  9
$STEPSIZE
 40
50
  9
$3DDWFPREC
 40
2
  9
$PSOLWIDTH
 40
5
  9
$PSOLHEIGHT
 40
80
  9
$LOFTANG1
 40
1.570796326794897
  9
$LOFTANG2
 40
1.570796326794897
  9
$LOFTMAG1
 40
0
  9
$LOFTMAG2
 40
0
  9
$LOFTPARAM
 70
    7
  9
$LOFTNORMALS
280
    1
  9
$LATITUDE
 40
1
  9
$LONGITUDE
 40
1
  9
$NORTHDIRECTION
 40
0
  9
$TIMEZONE
 70
-8000
  9
$LIGHTGLYPHDISPLAY
280
    1
  9
$TILEMODELIGHTSYNCH
280
    1
  9
$SOLIDHIST
280
    1
  9
$SHOWHIST
280
    1
  9
$DWFFRAME
280
    2
  9
$DGNFRAME
280
    0
  9
$REALWORLDSCALE
290
    1
  9
$INTERFERECOLOR
 62
    1
  9
$CSHADOW
280
    0
  9
$SHADOWPLANELOCATION
 40
0
  0
ENDSEC
  0
SECTION
  2
CLASSES
  0
ENDSEC
  0
SECTION
  2
TABLES
  0
TABLE
  2
VPORT
  5
8
330
0
100
AcDbSymbolTable
 70
    1
  0
VPORT
  5
31
330
2
100
AcDbSymbolTableRecord
100
AcDbViewportTableRecord
  2
*ACTIVE
 70
    0
 10
0
 20
0
 11
1
 21
1
 12
34.55837452702228
 22
20.38057984926955
 13
0
 23
0
 14
10
 24
10
 15
10
 25
10
 16
0
 26
0
 36
1
 17
0
 27
0
 37
0
 40
10.63334600831455
 41
1.925925925925926
 42
50
 43
0
 44
0
 50
0
 51
0
 71
    0
 72
  100
 73
    1
 74
    3
 75
    0
 76
    1
 77
    0
 78
    0
281
    0
 65
    1
110
0
120
0
130
0
111
1
121
0
131
0
112
0
122
1
132
0
 79
    0
146
0
348
10020
 60
    7
 61
    5
292
1
282
    1
141
0
142
0
 63
  250
421
3358443
  0
ENDTAB
  0
TABLE
  2
LTYPE
  5
5
330
0
100
AcDbSymbolTable
 70
    4
  0
LTYPE
  5
14
330
5
100
AcDbSymbolTableRecord
100
AcDbLinetypeTableRecord
  2
ByBlock
 70
    0
  3

 72
   65
 73
    0
 40
0
  0
LTYPE
  5
15
330
5
100
AcDbSymbolTableRecord
100
AcDbLinetypeTableRecord
  2
ByLayer
 70
    0
  3

 72
   65
 73
    0
 40
0
  0
LTYPE
  5
16
330
5
100
AcDbSymbolTableRecord
100
AcDbLinetypeTableRecord
  2
Continuous
 70
    0
  3
Solid line
 72
   65
 73
    0
 40
0
  0
LTYPE
  5
32
330
5
100
AcDbSymbolTableRecord
100
AcDbLinetypeTableRecord
  2
DOT
 70
    0
  3
Dot . . . . . . . . . . . . . . . . . . . . . .
 72
   65
 73
    2
 40
6.35
 49
0
 74
    0
 49
-6.35
 74
    0
  0
LTYPE
  5
33
330
5
100
AcDbSymbolTableRecord
100
AcDbLinetypeTableRecord
  2
DOTTINY
 70
    0
  3
Dot (.15x) .....................................
 72
   65
 73
    2
 40
0.9525
 49
0
 74
    0
 49
-0.9525
 74
    0
  0
LTYPE
  5
34
330
5
100
AcDbSymbolTableRecord
100
AcDbLinetypeTableRecord
  2
DOT2
 70
    0
  3
Dot (.5x) .....................................
 72
   65
 73
    2
 40
3.175
 49
0
 74
    0
 49
-3.175
 74
    0
  0
LTYPE
  5
35
330
5
100
AcDbSymbolTableRecord
100
AcDbLinetypeTableRecord
  2
DOTX2
 70
    0
  3
Dot (2x) .  .  .  .  .  .  .  .  .  .  .  .  .
 72
   65
 73
    2
 40
12.7
 49
0
 74
    0
 49
-12.7
 74
    0
  0
LTYPE
  5
36
330
5
100
AcDbSymbolTableRecord
100
AcDbLinetypeTableRecord
  2
DASHED
 70
    0
  3
Dashed _ _ _ _ _ _ _ _ _ _ _ _ _ _ _ _ _
 72
   65
 73
    2
 40
19.05
 49
12.7
 74
    0
 49
-6.35
 74
    0
  0
LTYPE
  5
37
330
5
100
AcDbSymbolTableRecord
100
AcDbLinetypeTableRecord
  2
DASHEDTINY
 70
    0
  3
Dashed (.15x) _ _ _ _ _ _ _ _ _ _ _ _ _ _ _ _ _
 72
   65
 73
    2
 40
2.8575
 49
1.905
 74
    0
 49
-0.9525
 74
    0
  0
LTYPE
  5
38
330
5
100
AcDbSymbolTableRecord
100
AcDbLinetypeTableRecord
  2
DASHED2
 70
    0
  3
Dashed (.5x) _ _ _ _ _ _ _ _ _ _ _ _ _ _ _ _ _
 72
   65
 73
    2
 40
9.524999999999999
 49
6.35
 74
    0
 49
-3.175
 74
    0
  0
LTYPE
  5
39
330
5
100
AcDbSymbolTableRecord
100
AcDbLinetypeTableRecord
  2
DASHEDX2
 70
    0
  3
Dashed (2x) ____  ____  ____  ____  ____  ___
 72
   65
 73
    2
 40
38.09999999999999
 49
25.4
 74
    0
 49
-12.7
 74
    0
  0
LTYPE
  5
3A
330
5
100
AcDbSymbolTableRecord
100
AcDbLinetypeTableRecord
  2
DASHDOT
 70
    0
  3
Dash dot __ . __ . __ . __ . __ . __ . __ . __
 72
   65
 73
    4
 40
25.4
 49
12.7
 74
    0
 49
-6.35
 74
    0
 49
0
 74
    0
 49
-6.35
 74
    0
  0
LTYPE
  5
3B
330
5
100
AcDbSymbolTableRecord
100
AcDbLinetypeTableRecord
  2
DASHDOTTINY
 70
    0
  3
Dash dot (.15x) _._._._._._._._._._._._._._._.
 72
   65
 73
    4
 40
3.81
 49
1.905
 74
    0
 49
-0.9525
 74
    0
 49
0
 74
    0
 49
-0.9525
 74
    0
  0
LTYPE
  5
3C
330
5
100
AcDbSymbolTableRecord
100
AcDbLinetypeTableRecord
  2
DASHDOT2
 70
    0
  3
Dash dot (.5x) _._._._._._._._._._._._._._._.
 72
   65
 73
    4
 40
12.7
 49
6.35
 74
    0
 49
-3.175
 74
    0
 49
0
 74
    0
 49
-3.175
 74
    0
  0
LTYPE
  5
3D
330
5
100
AcDbSymbolTableRecord
100
AcDbLinetypeTableRecord
  2
DASHDOTX2
 70
    0
  3
Dash dot (2x) ____  .  ____  .  ____  .  ___
 72
   65
 73
    4
 40
50.8
 49
25.4
 74
    0
 49
-12.7
 74
    0
 49
0
 74
    0
 49
-12.7
 74
    0
  0
LTYPE
  5
3E
330
5
100
AcDbSymbolTableRecord
100
AcDbLinetypeTableRecord
  2
DIVIDE
 70
    0
  3
Divide ____ . . ____ . . ____ . . ____ . . ____
 72
   65
 73
    6
 40
31.75
 49
12.7
 74
    0
 49
-6.35
 74
    0
 49
0
 74
    0
 49
-6.35
 74
    0
 49
0
 74
    0
 49
-6.35
 74
    0
  0
LTYPE
  5
3F
330
5
100
AcDbSymbolTableRecord
100
AcDbLinetypeTableRecord
  2
DIVIDETINY
 70
    0
  3
Divide (.15x) __..__..__..__..__..__..__..__.._
 72
   65
 73
    6
 40
4.7625
 49
1.905
 74
    0
 49
-0.9525
 74
    0
 49
0
 74
    0
 49
-0.9525
 74
    0
 49
0
 74
    0
 49
-0.9525
 74
    0
  0
LTYPE
  5
40
330
5
100
AcDbSymbolTableRecord
100
AcDbLinetypeTableRecord
  2
DIVIDE2
 70
    0
  3
Divide (.5x) __..__..__..__..__..__..__..__.._
 72
   65
 73
    6
 40
15.875
 49
6.35
 74
    0
 49
-3.175
 74
    0
 49
0
 74
    0
 49
-3.175
 74
    0
 49
0
 74
    0
 49
-3.175
 74
    0
  0
LTYPE
  5
41
330
5
100
AcDbSymbolTableRecord
100
AcDbLinetypeTableRecord
  2
DIVIDEX2
 70
    0
  3
Divide (2x) ________  .  .  ________  .  .  _
 72
   65
 73
    6
 40
63.5
 49
25.4
 74
    0
 49
-12.7
 74
    0
 49
0
 74
    0
 49
-12.7
 74
    0
 49
0
 74
    0
 49
-12.7
 74
    0
  0
LTYPE
  5
42
330
5
100
AcDbSymbolTableRecord
100
AcDbLinetypeTableRecord
  2
BORDER
 70
    0
  3
Border __ __ . __ __ . __ __ . __ __ . __ __ .
 72
   65
 73
    6
 40
44.45
 49
12.7
 74
    0
 49
-6.35
 74
    0
 49
12.7
 74
    0
 49
-6.35
 74
    0
 49
0
 74
    0
 49
-6.35
 74
    0
  0
LTYPE
  5
43
330
5
100
AcDbSymbolTableRecord
100
AcDbLinetypeTableRecord
  2
BORDERTINY
 70
    0
  3
Border (.15x) __.__.__.__.__.__.__.__.__.__.__.
 72
   65
 73
    6
 40
6.6675
 49
1.905
 74
    0
 49
-0.9525
 74
    0
 49
1.905
 74
    0
 49
-0.9525
 74
    0
 49
0
 74
    0
 49
-0.9525
 74
    0
  0
LTYPE
  5
44
330
5
100
AcDbSymbolTableRecord
100
AcDbLinetypeTableRecord
  2
BORDER2
 70
    0
  3
Border (.5x) __.__.__.__.__.__.__.__.__.__.__.
 72
   65
 73
    6
 40
22.225
 49
6.35
 74
    0
 49
-3.175
 74
    0
 49
6.35
 74
    0
 49
-3.175
 74
    0
 49
0
 74
    0
 49
-3.175
 74
    0
  0
LTYPE
  5
45
330
5
100
AcDbSymbolTableRecord
100
AcDbLinetypeTableRecord
  2
BORDERX2
 70
    0
  3
Border (2x) ____  ____  .  ____  ____  .  ___
 72
   65
 73
    6
 40
88.89999999999999
 49
25.4
 74
    0
 49
-12.7
 74
    0
 49
25.4
 74
    0
 49
-12.7
 74
    0
 49
0
 74
    0
 49
-12.7
 74
    0
  0
LTYPE
  5
46
330
5
100
AcDbSymbolTableRecord
100
AcDbLinetypeTableRecord
  2
CENTER
 70
    0
  3
Center ____ _ ____ _ ____ _ ____ _ ____ _ ____
 72
   65
 73
    4
 40
50.8
 49
31.75
 74
    0
 49
-6.35
 74
    0
 49
6.35
 74
    0
 49
-6.35
 74
    0
  0
LTYPE
  5
47
330
5
100
AcDbSymbolTableRecord
100
AcDbLinetypeTableRecord
  2
CENTERTINY
 70
    0
  3
Center (.15x) ___ _ ___ _ ___ _ ___ _ ___ _ ___
 72
   65
 73
    4
 40
7.619999999999999
 49
4.7625
 74
    0
 49
-0.9525
 74
    0
 49
0.9525
 74
    0
 49
-0.9525
 74
    0
  0
LTYPE
  5
48
330
5
100
AcDbSymbolTableRecord
100
AcDbLinetypeTableRecord
  2
CENTER2
 70
    0
  3
Center (.5x) ___ _ ___ _ ___ _ ___ _ ___ _ ___
 72
   65
 73
    4
 40
28.575
 49
19.05
 74
    0
 49
-3.175
 74
    0
 49
3.175
 74
    0
 49
-3.175
 74
    0
  0
LTYPE
  5
49
330
5
100
AcDbSymbolTableRecord
100
AcDbLinetypeTableRecord
  2
CENTERX2
 70
    0
  3
Center (2x) ________  __  ________  __  _____
 72
   65
 73
    4
 40
101.6
 49
63.5
 74
    0
 49
-12.7
 74
    0
 49
12.7
 74
    0
 49
-12.7
 74
    0
  0
ENDTAB
  0
TABLE
  2
LAYER
  5
2
330
0
100
AcDbSymbolTable
 70
    1
  0
LAYER
  5
10
330
2
100
AcDbSymbolTableRecord
100
AcDbLayerTableRecord
  2
0
 70
    5
 62
    7
  6
CONTINUOUS
370
    0
390
F
  0
LAYER
  5
4A
330
2
100
AcDbSymbolTableRecord
100
AcDbLayerTableRecord
  2
Borders
 70
    0
 62
   96
420
32768
  6
CONTINUOUS
370
    0
390
F
  0
LAYER
  5
4B
330
2
100
AcDbSymbolTableRecord
100
AcDbLayerTableRecord
  2
Bordi
 70
    0
 62
    1
  6
CONTINUOUS
370
    0
390
F
  0
LAYER
  5
4C
330
2
100
AcDbSymbolTableRecord
100
AcDbLayerTableRecord
  2
FabLabLogo
 70
    0
 62
    7
  6
CONTINUOUS
370
   -3
390
F
  0
LAYER
  5
4D
330
2
100
AcDbSymbolTableRecord
100
AcDbLayerTableRecord
  2
Fori
 70
    0
 62
    4
  6
CONTINUOUS
370
    0
390
F
  0
LAYER
  5
4E
330
2
100
AcDbSymbolTableRecord
100
AcDbLayerTableRecord
  2
Holes
 70
    0
 62
    5
  6
CONTINUOUS
370
    0
390
F
  0
LAYER
  5
4F
330
2
100
AcDbSymbolTableRecord
100
AcDbLayerTableRecord
  2
Measurements
 70
    1
 62
    8
  6
CONTINUOUS
370
    0
390
F
  0
LAYER
  5
50
330
2
100
AcDbSymbolTableRecord
100
AcDbLayerTableRecord
  2
Misure
 70
    5
 62
    9
  6
CONTINUOUS
370
    0
390
F
  0
LAYER
  5
51
330
2
100
AcDbSymbolTableRecord
100
AcDbLayerTableRecord
  2
SVG
 70
    0
 62
    6
  6
CONTINUOUS
370
    0
390
F
  0
LAYER
  5
52
330
2
100
AcDbSymbolTableRecord
100
AcDbLayerTableRecord
  2
Testo
 70
    0
 62
   96
420
32768
  6
CONTINUOUS
370
    0
390
F
  0
LAYER
  5
53
330
2
100
AcDbSymbolTableRecord
100
AcDbLayerTableRecord
  2
TestoLight
 70
    0
 62
  216
420
8388736
  6
CONTINUOUS
370
    0
390
F
  0
LAYER
  5
54
330
2
100
AcDbSymbolTableRecord
100
AcDbLayerTableRecord
  2
Text
 70
    0
 62
    1
  6
CONTINUOUS
370
    0
390
F
  0
LAYER
  5
55
330
2
100
AcDbSymbolTableRecord
100
AcDbLayerTableRecord
  2
correzione
 70
    0
 62
   96
420
32768
  6
CONTINUOUS
370
    0
390
F
  0
ENDTAB
  0
TABLE
  2
STYLE
  5
3
330
0
100
AcDbSymbolTable
 70
    3
  0
STYLE
  5
56
330
2
100
AcDbSymbolTableRecord
100
AcDbTextStyleTableRecord
  2
wqy-unicode
 70
    0
 40
0
 41
1
 50
0
 71
    0
 42
1
  3
wqy-unicode
  4

  0
STYLE
  5
57
330
2
100
AcDbSymbolTableRecord
100
AcDbTextStyleTableRecord
  2
standard
 70
    0
 40
0
 41
1
 50
0
 71
    0
 42
1
  3
standard
  4

  0
STYLE
  5
58
330
2
100
AcDbSymbolTableRecord
100
AcDbTextStyleTableRecord
  2
iso
 70
    0
 40
0
 41
1
 50
0
 71
    0
 42
1
  3
iso
  4

  0
ENDTAB
  0
TABLE
  2
VIEW
  5
6
330
0
100
AcDbSymbolTable
 70
    0
  0
ENDTAB
  0
TABLE
  2
UCS
  5
7
330
0
100
AcDbSymbolTable
 70
    0
  0
ENDTAB
  0
TABLE
  2
APPID
  5
9
330
0
100
AcDbSymbolTable
 70
    1
  0
APPID
  5
12
330
9
100
AcDbSymbolTableRecord
100
AcDbRegAppTableRecord
  2
ACAD
 70
    0
  0
APPID
  5
59
330
9
100
AcDbSymbolTableRecord
100
AcDbRegAppTableRecord
  2
LibreCad
 70
    0
  0
ENDTAB
  0
TABLE
  2
DIMSTYLE
  5
A
330
0
100
AcDbSymbolTable
 70
    1
100
AcDbDimStyleTable
 71
    1
  0
DIMSTYLE
105
5A
330
A
100
AcDbSymbolTableRecord
100
AcDbDimStyleTableRecord
  2
Standard
 70
    0
 40
1
 41
2.5
 42
0.625
 43
0.38
 44
1.25
 45
0
 46
0
 47
0
 48
0
 49
1
140
2.5
141
0.09
142
0
143
25.4
144
1
145
0
146
1
147
0.625
148
0
 71
    0
 72
    0
 73
    0
 74
    1
 75
    0
 76
    0
 77
    0
 78
    8
 79
    0
170
    0
171
    2
172
    0
173
    0
174
    0
175
    0
176
    0
177
    0
178
    0
179
    0
271
    4
272
    4
273
    2
274
    2
275
    0
276
    0
277
    2
278
   44
279
    0
280
    0
281
    0
282
    0
283
    1
284
    0
285
    0
286
    0
288
    0
289
    3
340
STANDARD
341

371
   -2
372
   -2
  0
ENDTAB
  0
TABLE
  2
BLOCK_RECORD
  5
1
330
0
100
AcDbSymbolTable
 70
    2
  0
BLOCK_RECORD
  5
1F
330
1
100
AcDbSymbolTableRecord
100
AcDbBlockTableRecord
  2
*Model_Space
 70
    0
280
    1
281
    0
  0
BLOCK_RECORD
  5
1E
330
1
100
AcDbSymbolTableRecord
100
AcDbBlockTableRecord
  2
*Paper_Space
 70
    0
280
    1
281
    0
  0
BLOCK_RECORD
  5
5B
330
1
100
AcDbSymbolTableRecord
100
AcDbBlockTableRecord
  2
*D1
 70
    0
280
    1
281
    0
  0
BLOCK_RECORD
  5
5E
330
1
100
AcDbSymbolTableRecord
100
AcDbBlockTableRecord
  2
*D12
 70
    0
280
    1
281
    0
  0
BLOCK_RECORD
  5
61
330
1
100
AcDbSymbolTableRecord
100
AcDbBlockTableRecord
  2
*D3
 70
    0
280
    1
281
    0
  0
BLOCK_RECORD
  5
64
330
1
100
AcDbSymbolTableRecord
100
AcDbBlockTableRecord
  2
*D17
 70
    0
280
    1
281
    0
  0
BLOCK_RECORD
  5
67
330
1
100
AcDbSymbolTableRecord
100
AcDbBlockTableRecord
  2
*D5
 70
    0
280
    1
281
    0
  0
BLOCK_RECORD
  5
6A
330
1
100
AcDbSymbolTableRecord
100
AcDbBlockTableRecord
  2
*D6
 70
    0
280
    1
281
    0
  0
BLOCK_RECORD
  5
6D
330
1
100
AcDbSymbolTableRecord
100
AcDbBlockTableRecord
  2
*D20
 70
    0
280
    1
281
    0
  0
BLOCK_RECORD
  5
70
330
1
100
AcDbSymbolTableRecord
100
AcDbBlockTableRecord
  2
*D22
 70
    0
280
    1
281
    0
  0
BLOCK_RECORD
  5
73
330
1
100
AcDbSymbolTableRecord
100
AcDbBlockTableRecord
  2
*D13
 70
    0
280
    1
281
    0
  0
BLOCK_RECORD
  5
76
330
1
100
AcDbSymbolTableRecord
100
AcDbBlockTableRecord
  2
*D8
 70
    0
280
    1
281
    0
  0
BLOCK_RECORD
  5
79
330
1
100
AcDbSymbolTableRecord
100
AcDbBlockTableRecord
  2
*D19
 70
    0
280
    1
281
    0
  0
BLOCK_RECORD
  5
7C
330
1
100
AcDbSymbolTableRecord
100
AcDbBlockTableRecord
  2
*D18
 70
    0
280
    1
281
    0
  0
BLOCK_RECORD
  5
7F
330
1
100
AcDbSymbolTableRecord
100
AcDbBlockTableRecord
  2
*D14
 70
    0
280
    1
281
    0
  0
BLOCK_RECORD
  5
82
330
1
100
AcDbSymbolTableRecord
100
AcDbBlockTableRecord
  2
*D2
 70
    0
280
    1
281
    0
  0
BLOCK_RECORD
  5
85
330
1
100
AcDbSymbolTableRecord
100
AcDbBlockTableRecord
  2
*D7
 70
    0
280
    1
281
    0
  0
BLOCK_RECORD
  5
88
330
1
100
AcDbSymbolTableRecord
100
AcDbBlockTableRecord
  2
*D4
 70
    0
280
    1
281
    0
  0
BLOCK_RECORD
  5
8B
330
1
100
AcDbSymbolTableRecord
100
AcDbBlockTableRecord
  2
*D15
 70
    0
280
    1
281
    0
  0
BLOCK_RECORD
  5
8E
330
1
100
AcDbSymbolTableRecord
100
AcDbBlockTableRecord
  2
*D10
 70
    0
280
    1
281
    0
  0
BLOCK_RECORD
  5
91
330
1
100
AcDbSymbolTableRecord
100
AcDbBlockTableRecord
  2
*D16
 70
    0
280
    1
281
    0
  0
BLOCK_RECORD
  5
94
330
1
100
AcDbSymbolTableRecord
100
AcDbBlockTableRecord
  2
*D21
 70
    0
280
    1
281
    0
  0
BLOCK_RECORD
  5
97
330
1
100
AcDbSymbolTableRecord
100
AcDbBlockTableRecord
  2
*D11
 70
    0
280
    1
281
    0
  0
BLOCK_RECORD
  5
9A
330
1
100
AcDbSymbolTableRecord
100
AcDbBlockTableRecord
  2
*D9
 70
    0
280
    1
281
    0
  0
BLOCK_RECORD
  5
9D
330
1
100
AcDbSymbolTableRecord
100
AcDbBlockTableRecord
  2
fablab-0
 70
    0
280
    1
281
    0
  0
BLOCK_RECORD
  5
A0
330
1
100
AcDbSymbolTableRecord
100
AcDbBlockTableRecord
  2
ScatolaV2.0
 70
    0
280
    1
281
    0
  0
ENDTAB
  0
ENDSEC
  0
SECTION
  2
BLOCKS
  0
BLOCK
  5
20
330
1F
100
AcDbEntity
  8
0
100
AcDbBlockBegin
  2
*Model_Space
 70
    0
 10
0
 20
0
 30
0
  3
*Model_Space
  1

  0
ENDBLK
  5
21
330
1F
100
AcDbEntity
  8
0
100
AcDbBlockEnd
  0
BLOCK
  5
1C
330
1B
100
AcDbEntity
  8
0
100
AcDbBlockBegin
  2
*Paper_Space
 70
    0
 10
0
 20
0
 30
0
  3
*Paper_Space
  1

  0
ENDBLK
  5
1D
330
1F
100
AcDbEntity
  8
0
100
AcDbBlockEnd
  0
BLOCK
  5
5C
330
5B
100
AcDbEntity
  8
0
100
AcDbBlockBegin
  2
*D1
 70
    1
 10
0
 20
0
  3
*D1
  1

  0
LINE
  5
A3
100
AcDbEntity
  8
Misure
  6
ByBlock
 62
    0
370
   -2
100
AcDbLine
 10
139.375
 20
140
 11
135.75
 21
140
  0
LINE
  5
A4
100
AcDbEntity
  8
Misure
  6
ByBlock
 62
    0
370
   -2
100
AcDbLine
 10
139.375
 20
130
 11
135.75
 21
130
  0
LINE
  5
A5
100
AcDbEntity
  8
Misure
  6
ByBlock
 62
    0
370
   -2
100
AcDbLine
 10
137
 20
140
 11
137
 21
130
  0
SOLID
  5
A6
100
AcDbEntity
  8
Misure
  6
ByBlock
 62
    0
370
   -2
100
AcDbTrace
 10
137
 20
140
 30
0
 11
137.4162846577728
 21
137.5
 31
0
 12
136.5837153422272
 22
137.5
 32
0
 13
136.5837153422272
 23
137.5
 33
0
  0
SOLID
  5
A7
100
AcDbEntity
  8
Misure
  6
ByBlock
 62
    0
370
   -2
100
AcDbTrace
 10
137
 20
130
 30
0
 11
136.5837153422272
 21
132.5
 31
0
 12
137.4162846577728
 22
132.5
 32
0
 13
137.4162846577728
 23
132.5
 33
0
  0
MTEXT
  5
A8
100
AcDbEntity
  8
Misure
  6
CONTINUOUS
 62
    0
370
   -2
100
AcDbMText
 10
135.125
 20
135
 30
0
 40
2.5
 41
2.5
 71
    5
 72
    1
  1
10
  7
STANDARD
210
0
220
0
230
1
 50
90
 73
    2
 44
1
  0
ENDBLK
  5
5D
330
5B
100
AcDbEntity
  8
0
100
AcDbBlockEnd
  0
BLOCK
  5
5F
330
5E
100
AcDbEntity
  8
0
100
AcDbBlockBegin
  2
*D12
 70
    1
 10
0
 20
0
  3
*D12
  1

  0
LINE
  5
A9
100
AcDbEntity
  8
Measurements
  6
ByBlock
 62
    0
370
   -2
100
AcDbLine
 10
330
 20
194.625
 11
330
 21
196.85
  0
LINE
  5
AA
100
AcDbEntity
  8
Measurements
  6
ByBlock
 62
    0
370
   -2
100
AcDbLine
 10
346
 20
194.625
 11
346
 21
196.85
  0
LINE
  5
AB
100
AcDbEntity
  8
Measurements
  6
ByBlock
 62
    0
370
   -2
100
AcDbLine
 10
330
 20
195.6
 11
346
 21
195.6
  0
SOLID
  5
AC
100
AcDbEntity
  8
Measurements
  6
ByBlock
 62
    0
370
   -2
100
AcDbTrace
 10
330
 20
195.6
 30
0
 11
332.5
 21
196.0162846577728
 31
0
 12
332.5
 22
195.1837153422271
 32
0
 13
332.5
 23
195.1837153422271
 33
0
  0
SOLID
  5
AD
100
AcDbEntity
  8
Measurements
  6
ByBlock
 62
    0
370
   -2
100
AcDbTrace
 10
346
 20
195.6
 30
0
 11
343.5
 21
195.1837153422271
 31
0
 12
343.5
 22
196.0162846577728
 32
0
 13
343.5
 23
196.0162846577728
 33
0
  0
MTEXT
  5
AE
100
AcDbEntity
  8
Measurements
  6
CONTINUOUS
 62
    0
370
   -2
100
AcDbMText
 10
338
 20
197.475
 30
0
 40
2.5
 41
2.500000000000155
 71
    5
 72
    1
  1
16
  7
STANDARD
210
0
220
0
230
1
 50
0
 73
    2
 44
1
  0
ENDBLK
  5
60
330
5E
100
AcDbEntity
  8
0
100
AcDbBlockEnd
  0
BLOCK
  5
62
330
61
100
AcDbEntity
  8
0
100
AcDbBlockBegin
  2
*D3
 70
    1
 10
0
 20
0
  3
*D3
  1

  0
LINE
  5
AF
100
AcDbEntity
  8
Misure
  6
ByBlock
 62
    0
370
   -2
100
AcDbLine
 10
132
 20
127.375
 11
132
 21
122.693661972
  0
LINE
  5
B0
100
AcDbEntity
  8
Misure
  6
ByBlock
 62
    0
370
   -2
100
AcDbLine
 10
204
 20
127.375
 11
204
 21
122.693661972
  0
LINE
  5
B1
100
AcDbEntity
  8
Misure
  6
ByBlock
 62
    0
370
   -2
100
AcDbLine
 10
132
 20
123.943661972
 11
204
 21
123.943661972
  0
SOLID
  5
B2
100
AcDbEntity
  8
Misure
  6
ByBlock
 62
    0
370
   -2
100
AcDbTrace
 10
132
 20
123.943661972
 30
0
 11
134.5
 21
124.3599466297728
 31
0
 12
134.5
 22
123.5273773142272
 32
0
 13
134.5
 23
123.5273773142272
 33
0
  0
SOLID
  5
B3
100
AcDbEntity
  8
Misure
  6
ByBlock
 62
    0
370
   -2
100
AcDbTrace
 10
204
 20
123.943661972
 30
0
 11
201.5
 21
123.5273773142272
 31
0
 12
201.5
 22
124.3599466297728
 32
0
 13
201.5
 23
124.3599466297728
 33
0
  0
MTEXT
  5
B4
100
AcDbEntity
  8
Misure
  6
CONTINUOUS
 62
    0
370
   -2
100
AcDbMText
 10
168
 20
125.818661972
 30
0
 40
2.5
 41
3.055555555555556
 71
    5
 72
    1
  1
72
  7
STANDARD
210
0
220
0
230
1
 50
0
 73
    2
 44
1
  0
ENDBLK
  5
63
330
61
100
AcDbEntity
  8
0
100
AcDbBlockEnd
  0
BLOCK
  5
65
330
64
100
AcDbEntity
  8
0
100
AcDbBlockBegin
  2
*D17
 70
    1
 10
0
 20
0
  3
*D17
  1

  0
LINE
  5
B5
100
AcDbEntity
  8
Measurements
  6
ByBlock
 62
    0
370
   -2
100
AcDbLine
 10
308
 20
152.375
 11
308
 21
147.75
  0
LINE
  5
B6
100
AcDbEntity
  8
Measurements
  6
ByBlock
 62
    0
370
   -2
100
AcDbLine
 10
321.5
 20
152.375
 11
321.5
 21
147.75
  0
LINE
  5
B7
100
AcDbEntity
  8
Measurements
  6
ByBlock
 62
    0
370
   -2
100
AcDbLine
 10
308
 20
149
 11
321.5
 21
149
  0
SOLID
  5
B8
100
AcDbEntity
  8
Measurements
  6
ByBlock
 62
    0
370
   -2
100
AcDbTrace
 10
308
 20
149
 30
0
 11
310.5
 21
149.4162846577728
 31
0
 12
310.5
 22
148.5837153422272
 32
0
 13
310.5
 23
148.5837153422272
 33
0
  0
SOLID
  5
B9
100
AcDbEntity
  8
Measurements
  6
ByBlock
 62
    0
370
   -2
100
AcDbTrace
 10
321.5
 20
149
 30
0
 11
319
 21
148.5837153422272
 31
0
 12
319
 22
149.4162846577728
 32
0
 13
319
 23
149.4162846577728
 33
0
  0
MTEXT
  5
BA
100
AcDbEntity
  8
Measurements
  6
CONTINUOUS
 62
    0
370
   -2
100
AcDbMText
 10
314.75
 20
150.875
 30
0
 40
2.5
 41
5.416666666666977
 71
    5
 72
    1
  1
13,5
  7
STANDARD
210
0
220
0
230
1
 50
0
 73
    2
 44
1
  0
ENDBLK
  5
66
330
64
100
AcDbEntity
  8
0
100
AcDbBlockEnd
  0
BLOCK
  5
68
330
67
100
AcDbEntity
  8
0
100
AcDbBlockBegin
  2
*D5
 70
    1
 10
0
 20
0
  3
*D5
  1

  0
LINE
  5
BB
100
AcDbEntity
  8
Misure
  6
ByBlock
 62
    0
370
   -2
100
AcDbLine
 10
3.827021247335479e-17
 20
145.625
 11
2.219672323454578e-15
 21
181.25
  0
LINE
  5
BC
100
AcDbEntity
  8
Misure
  6
ByBlock
 62
    0
370
   -2
100
AcDbLine
 10
240
 20
145.625
 11
240
 21
181.25
  0
LINE
  5
BD
100
AcDbEntity
  8
Misure
  6
ByBlock
 62
    0
370
   -2
100
AcDbLine
 10
2.143131898507868e-15
 20
180
 11
240
 21
180
  0
SOLID
  5
BE
100
AcDbEntity
  8
Misure
  6
ByBlock
 62
    0
370
   -2
100
AcDbTrace
 10
2.143131898507868e-15
 20
180
 30
0
 11
2.500000000000002
 21
180.4162846577728
 31
0
 12
2.500000000000002
 22
179.5837153422272
 32
0
 13
2.500000000000002
 23
179.5837153422272
 33
0
  0
SOLID
  5
BF
100
AcDbEntity
  8
Misure
  6
ByBlock
 62
    0
370
   -2
100
AcDbTrace
 10
240
 20
180
 30
0
 11
237.5
 21
179.5837153422272
 31
0
 12
237.5
 22
180.4162846577728
 32
0
 13
237.5
 23
180.4162846577728
 33
0
  0
MTEXT
  5
C0
100
AcDbEntity
  8
Misure
  6
CONTINUOUS
 62
    0
370
   -2
100
AcDbMText
 10
120
 20
181.875
 30
0
 40
2.5
 41
5.277777777777779
 71
    5
 72
    1
  1
240
  7
STANDARD
210
0
220
0
230
1
 50
0
 73
    2
 44
1
  0
ENDBLK
  5
69
330
67
100
AcDbEntity
  8
0
100
AcDbBlockEnd
  0
BLOCK
  5
6B
330
6A
100
AcDbEntity
  8
0
100
AcDbBlockBegin
  2
*D6
 70
    1
 10
0
 20
0
  3
*D6
  1

  0
LINE
  5
C1
100
AcDbEntity
  8
Misure
  6
ByBlock
 62
    0
370
   -2
100
AcDbLine
 10
245.0025509991588
 20
130.624994793901
 11
245.2459143129829
 21
190.2490066808019
  0
LINE
  5
C2
100
AcDbEntity
  8
Misure
  6
ByBlock
 62
    0
370
   -2
100
AcDbLine
 10
0.002550999158779904
 20
131.624994793901
 11
0.2459143129828968
 21
191.2490066808019
  0
LINE
  5
C3
100
AcDbEntity
  8
Misure
  6
ByBlock
 62
    0
370
   -2
100
AcDbLine
 10
245.2408123146653
 20
188.999017093
 11
0.2408123146653374
 21
189.999017093
  0
SOLID
  5
C4
100
AcDbEntity
  8
Misure
  6
ByBlock
 62
    0
370
   -2
100
AcDbTrace
 10
245.2408123146653
 20
188.999017093
 30
0
 11
242.7391340321627
 21
188.5929398994129
 31
0
 12
242.7425322459604
 22
189.4255022798573
 32
0
 13
242.7425322459604
 23
189.4255022798573
 33
0
  0
SOLID
  5
C5
100
AcDbEntity
  8
Misure
  6
ByBlock
 62
    0
370
   -2
100
AcDbTrace
 10
0.2408123146653374
 20
189.999017093
 30
0
 11
2.742490597168007
 21
190.4050942865871
 31
0
 12
2.739092383370274
 22
189.5725319061427
 32
0
 13
2.739092383370274
 23
189.5725319061427
 33
0
  0
MTEXT
  5
C6
100
AcDbEntity
  8
Misure
  6
CONTINUOUS
 62
    0
370
   -2
100
AcDbMText
 10
122.748465312
 20
191.374001474
 30
0
 40
2.5
 41
12.08333333333349
 71
    5
 72
    1
  1
245,002
  7
STANDARD
210
0
220
0
230
1
 50
359.7661409741267
 73
    2
 44
1
  0
ENDBLK
  5
6C
330
6A
100
AcDbEntity
  8
0
100
AcDbBlockEnd
  0
BLOCK
  5
6E
330
6D
100
AcDbEntity
  8
0
100
AcDbBlockBegin
  2
*D20
 70
    1
 10
0
 20
0
  3
*D20
  1

  0
LINE
  5
C7
100
AcDbEntity
  8
Measurements
  6
ByBlock
 62
    0
370
   -2
100
AcDbLine
 10
349.5
 20
119.625
 11
349.5
 21
123.25
  0
LINE
  5
C8
100
AcDbEntity
  8
Measurements
  6
ByBlock
 62
    0
370
   -2
100
AcDbLine
 10
369.5
 20
119.625
 11
369.5
 21
123.25
  0
LINE
  5
C9
100
AcDbEntity
  8
Measurements
  6
ByBlock
 62
    0
370
   -2
100
AcDbLine
 10
349.5
 20
122
 11
369.5
 21
122
  0
SOLID
  5
CA
100
AcDbEntity
  8
Measurements
  6
ByBlock
 62
    0
370
   -2
100
AcDbTrace
 10
349.5
 20
122
 30
0
 11
352
 21
122.4162846577728
 31
0
 12
352
 22
121.5837153422272
 32
0
 13
352
 23
121.5837153422272
 33
0
  0
SOLID
  5
CB
100
AcDbEntity
  8
Measurements
  6
ByBlock
 62
    0
370
   -2
100
AcDbTrace
 10
369.5
 20
122
 30
0
 11
367
 21
121.5837153422272
 31
0
 12
367
 22
122.4162846577728
 32
0
 13
367
 23
122.4162846577728
 33
0
  0
MTEXT
  5
CC
100
AcDbEntity
  8
Measurements
  6
CONTINUOUS
 62
    0
370
   -2
100
AcDbMText
 10
359.5
 20
123.875
 30
0
 40
2.5
 41
3.055555555555556
 71
    5
 72
    1
  1
20
  7
STANDARD
210
0
220
0
230
1
 50
0
 73
    2
 44
1
  0
ENDBLK
  5
6F
330
6D
100
AcDbEntity
  8
0
100
AcDbBlockEnd
  0
BLOCK
  5
71
330
70
100
AcDbEntity
  8
0
100
AcDbBlockBegin
  2
*D22
 70
    1
 10
0
 20
0
  3
*D22
  1

  0
LINE
  5
CD
100
AcDbEntity
  8
Measurements
  6
ByBlock
 62
    0
370
   -2
100
AcDbLine
 10
329.375
 20
203
 11
324.0092592593
 21
203
  0
LINE
  5
CE
100
AcDbEntity
  8
Measurements
  6
ByBlock
 62
    0
370
   -2
100
AcDbLine
 10
329.375
 20
235
 11
324.0092592593
 21
235
  0
LINE
  5
CF
100
AcDbEntity
  8
Measurements
  6
ByBlock
 62
    0
370
   -2
100
AcDbLine
 10
325.2592592593
 20
203
 11
325.2592592593
 21
235
  0
SOLID
  5
D0
100
AcDbEntity
  8
Measurements
  6
ByBlock
 62
    0
370
   -2
100
AcDbTrace
 10
325.2592592593
 20
203
 30
0
 11
324.8429746015271
 21
205.5
 31
0
 12
325.6755439170728
 22
205.5
 32
0
 13
325.6755439170728
 23
205.5
 33
0
  0
SOLID
  5
D1
100
AcDbEntity
  8
Measurements
  6
ByBlock
 62
    0
370
   -2
100
AcDbTrace
 10
325.2592592593
 20
235
 30
0
 11
325.6755439170728
 21
232.5
 31
0
 12
324.8429746015271
 22
232.5
 32
0
 13
324.8429746015271
 23
232.5
 33
0
  0
MTEXT
  5
D2
100
AcDbEntity
  8
Measurements
  6
CONTINUOUS
 62
    0
370
   -2
100
AcDbMText
 10
323.3842592593
 20
219
 30
0
 40
2.5
 41
3.055555555555711
 71
    5
 72
    1
  1
32
  7
STANDARD
210
0
220
0
230
1
 50
90
 73
    2
 44
1
  0
ENDBLK
  5
72
330
70
100
AcDbEntity
  8
0
100
AcDbBlockEnd
  0
BLOCK
  5
74
330
73
100
AcDbEntity
  8
0
100
AcDbBlockBegin
  2
*D13
 70
    1
 10
0
 20
0
  3
*D13
  1

  0
LINE
  5
D3
100
AcDbEntity
  8
Measurements
  6
ByBlock
 62
    0
370
   -2
100
AcDbLine
 10
360.625
 20
188
 11
365.25
 21
188
  0
LINE
  5
D4
100
AcDbEntity
  8
Measurements
  6
ByBlock
 62
    0
370
   -2
100
AcDbLine
 10
360.625
 20
173
 11
365.25
 21
173
  0
LINE
  5
D5
100
AcDbEntity
  8
Measurements
  6
ByBlock
 62
    0
370
   -2
100
AcDbLine
 10
364
 20
188
 11
364
 21
173
  0
SOLID
  5
D6
100
AcDbEntity
  8
Measurements
  6
ByBlock
 62
    0
370
   -2
100
AcDbTrace
 10
364
 20
188
 30
0
 11
364.4162846577728
 21
185.5
 31
0
 12
363.5837153422272
 22
185.5
 32
0
 13
363.5837153422272
 23
185.5
 33
0
  0
SOLID
  5
D7
100
AcDbEntity
  8
Measurements
  6
ByBlock
 62
    0
370
   -2
100
AcDbTrace
 10
364
 20
173
 30
0
 11
363.5837153422272
 21
175.5
 31
0
 12
364.4162846577728
 22
175.5
 32
0
 13
364.4162846577728
 23
175.5
 33
0
  0
MTEXT
  5
D8
100
AcDbEntity
  8
Measurements
  6
CONTINUOUS
 62
    0
370
   -2
100
AcDbMText
 10
362.125
 20
180.5
 30
0
 40
2.5
 41
2.500000000000155
 71
    5
 72
    1
  1
15
  7
STANDARD
210
0
220
0
230
1
 50
90
 73
    2
 44
1
  0
ENDBLK
  5
75
330
73
100
AcDbEntity
  8
0
100
AcDbBlockEnd
  0
BLOCK
  5
77
330
76
100
AcDbEntity
  8
0
100
AcDbBlockBegin
  2
*D8
 70
    1
 10
0
 20
0
  3
*D8
  1

  0
LINE
  5
D9
100
AcDbEntity
  8
Measurements
  6
ByBlock
 62
    0
370
   -2
100
AcDbLine
 10
330
 20
62.375
 11
330
 21
48.75
  0
LINE
  5
DA
100
AcDbEntity
  8
Measurements
  6
ByBlock
 62
    0
370
   -2
100
AcDbLine
 10
389
 20
62.375
 11
389
 21
48.75
  0
LINE
  5
DB
100
AcDbEntity
  8
Measurements
  6
ByBlock
 62
    0
370
   -2
100
AcDbLine
 10
330
 20
50
 11
389
 21
50
  0
SOLID
  5
DC
100
AcDbEntity
  8
Measurements
  6
ByBlock
 62
    0
370
   -2
100
AcDbTrace
 10
330
 20
50
 30
0
 11
332.5
 21
50.41628465777284
 31
0
 12
332.5
 22
49.58371534222716
 32
0
 13
332.5
 23
49.58371534222716
 33
0
  0
SOLID
  5
DD
100
AcDbEntity
  8
Measurements
  6
ByBlock
 62
    0
370
   -2
100
AcDbTrace
 10
389
 20
50
 30
0
 11
386.5
 21
49.58371534222716
 31
0
 12
386.5
 22
50.41628465777284
 32
0
 13
386.5
 23
50.41628465777284
 33
0
  0
MTEXT
  5
DE
100
AcDbEntity
  8
Measurements
  6
CONTINUOUS
 62
    0
370
   -2
100
AcDbMText
 10
359.5
 20
51.875
 30
0
 40
2.5
 41
3.055555555555711
 71
    5
 72
    1
  1
59
  7
STANDARD
210
0
220
0
230
1
 50
0
 73
    2
 44
1
  0
ENDBLK
  5
78
330
76
100
AcDbEntity
  8
0
100
AcDbBlockEnd
  0
BLOCK
  5
7A
330
79
100
AcDbEntity
  8
0
100
AcDbBlockBegin
  2
*D19
 70
    1
 10
0
 20
0
  3
*D19
  1

  0
LINE
  5
DF
100
AcDbEntity
  8
Measurements
  6
ByBlock
 62
    0
370
   -2
100
AcDbLine
 10
349.375
 20
101
 11
344.75
 21
101
  0
LINE
  5
E0
100
AcDbEntity
  8
Measurements
  6
ByBlock
 62
    0
370
   -2
100
AcDbLine
 10
349.375
 20
119
 11
344.75
 21
119
  0
LINE
  5
E1
100
AcDbEntity
  8
Measurements
  6
ByBlock
 62
    0
370
   -2
100
AcDbLine
 10
346
 20
101
 11
346
 21
119
  0
SOLID
  5
E2
100
AcDbEntity
  8
Measurements
  6
ByBlock
 62
    0
370
   -2
100
AcDbTrace
 10
346
 20
101
 30
0
 11
345.5837153422272
 21
103.5
 31
0
 12
346.4162846577728
 22
103.5
 32
0
 13
346.4162846577728
 23
103.5
 33
0
  0
SOLID
  5
E3
100
AcDbEntity
  8
Measurements
  6
ByBlock
 62
    0
370
   -2
100
AcDbTrace
 10
346
 20
119
 30
0
 11
346.4162846577728
 21
116.5
 31
0
 12
345.5837153422272
 22
116.5
 32
0
 13
345.5837153422272
 23
116.5
 33
0
  0
MTEXT
  5
E4
100
AcDbEntity
  8
Measurements
  6
CONTINUOUS
 62
    0
370
   -2
100
AcDbMText
 10
344.125
 20
110
 30
0
 40
2.5
 41
2.5
 71
    5
 72
    1
  1
18
  7
STANDARD
210
0
220
0
230
1
 50
90
 73
    2
 44
1
  0
ENDBLK
  5
7B
330
79
100
AcDbEntity
  8
0
100
AcDbBlockEnd
  0
BLOCK
  5
7D
330
7C
100
AcDbEntity
  8
0
100
AcDbBlockBegin
  2
*D18
 70
    1
 10
0
 20
0
  3
*D18
  1

  0
LINE
  5
E5
100
AcDbEntity
  8
Measurements
  6
ByBlock
 62
    0
370
   -2
100
AcDbLine
 10
406
 20
89.375
 11
406
 21
75.75
  0
LINE
  5
E6
100
AcDbEntity
  8
Measurements
  6
ByBlock
 62
    0
370
   -2
100
AcDbLine
 10
465
 20
89.375
 11
465
 21
75.75
  0
LINE
  5
E7
100
AcDbEntity
  8
Measurements
  6
ByBlock
 62
    0
370
   -2
100
AcDbLine
 10
406
 20
77
 11
465
 21
77
  0
SOLID
  5
E8
100
AcDbEntity
  8
Measurements
  6
ByBlock
 62
    0
370
   -2
100
AcDbTrace
 10
406
 20
77
 30
0
 11
408.5
 21
77.41628465777283
 31
0
 12
408.5
 22
76.58371534222717
 32
0
 13
408.5
 23
76.58371534222717
 33
0
  0
SOLID
  5
E9
100
AcDbEntity
  8
Measurements
  6
ByBlock
 62
    0
370
   -2
100
AcDbTrace
 10
465
 20
77
 30
0
 11
462.5
 21
76.58371534222717
 31
0
 12
462.5
 22
77.41628465777283
 32
0
 13
462.5
 23
77.41628465777283
 33
0
  0
MTEXT
  5
EA
100
AcDbEntity
  8
Measurements
  6
CONTINUOUS
 62
    0
370
   -2
100
AcDbMText
 10
435.5
 20
78.875
 30
0
 40
2.5
 41
3.055555555555711
 71
    5
 72
    1
  1
59
  7
STANDARD
210
0
220
0
230
1
 50
0
 73
    2
 44
1
  0
ENDBLK
  5
7E
330
7C
100
AcDbEntity
  8
0
100
AcDbBlockEnd
  0
BLOCK
  5
80
330
7F
100
AcDbEntity
  8
0
100
AcDbBlockBegin
  2
*D14
 70
    1
 10
0
 20
0
  3
*D14
  1

  0
LINE
  5
EB
100
AcDbEntity
  8
Measurements
  6
ByBlock
 62
    0
370
   -2
100
AcDbLine
 10
360.125
 20
90
 11
372.25
 21
90
  0
LINE
  5
EC
100
AcDbEntity
  8
Measurements
  6
ByBlock
 62
    0
370
   -2
100
AcDbLine
 10
360.125
 20
110
 11
372.25
 21
110
  0
LINE
  5
ED
100
AcDbEntity
  8
Measurements
  6
ByBlock
 62
    0
370
   -2
100
AcDbLine
 10
371
 20
90
 11
371
 21
110
  0
SOLID
  5
EE
100
AcDbEntity
  8
Measurements
  6
ByBlock
 62
    0
370
   -2
100
AcDbTrace
 10
371
 20
90
 30
0
 11
370.5837153422272
 21
92.5
 31
0
 12
371.4162846577728
 22
92.5
 32
0
 13
371.4162846577728
 23
92.5
 33
0
  0
SOLID
  5
EF
100
AcDbEntity
  8
Measurements
  6
ByBlock
 62
    0
370
   -2
100
AcDbTrace
 10
371
 20
110
 30
0
 11
371.4162846577728
 21
107.5
 31
0
 12
370.5837153422272
 22
107.5
 32
0
 13
370.5837153422272
 23
107.5
 33
0
  0
MTEXT
  5
F0
100
AcDbEntity
  8
Measurements
  6
CONTINUOUS
 62
    0
370
   -2
100
AcDbMText
 10
369.125
 20
100
 30
0
 40
2.5
 41
3.055555555555556
 71
    5
 72
    1
  1
20
  7
STANDARD
210
0
220
0
230
1
 50
90
 73
    2
 44
1
  0
ENDBLK
  5
81
330
7F
100
AcDbEntity
  8
0
100
AcDbBlockEnd
  0
BLOCK
  5
83
330
82
100
AcDbEntity
  8
0
100
AcDbBlockBegin
  2
*D2
 70
    1
 10
0
 20
0
  3
*D2
  1

  0
LINE
  5
F1
100
AcDbEntity
  8
Misure
  6
ByBlock
 62
    0
370
   -2
100
AcDbLine
 10
125
 20
140.625
 11
125
 21
161.25
  0
LINE
  5
F2
100
AcDbEntity
  8
Misure
  6
ByBlock
 62
    0
370
   -2
100
AcDbLine
 10
210
 20
140.625
 11
210
 21
161.25
  0
LINE
  5
F3
100
AcDbEntity
  8
Misure
  6
ByBlock
 62
    0
370
   -2
100
AcDbLine
 10
125
 20
160
 11
210
 21
160
  0
SOLID
  5
F4
100
AcDbEntity
  8
Misure
  6
ByBlock
 62
    0
370
   -2
100
AcDbTrace
 10
125
 20
160
 30
0
 11
127.5
 21
160.4162846577728
 31
0
 12
127.5
 22
159.5837153422272
 32
0
 13
127.5
 23
159.5837153422272
 33
0
  0
SOLID
  5
F5
100
AcDbEntity
  8
Misure
  6
ByBlock
 62
    0
370
   -2
100
AcDbTrace
 10
210
 20
160
 30
0
 11
207.5
 21
159.5837153422272
 31
0
 12
207.5
 22
160.4162846577728
 32
0
 13
207.5
 23
160.4162846577728
 33
0
  0
MTEXT
  5
F6
100
AcDbEntity
  8
Misure
  6
CONTINUOUS
 62
    0
370
   -2
100
AcDbMText
 10
167.5
 20
161.875
 30
0
 40
2.5
 41
3.055555555555711
 71
    5
 72
    1
  1
85
  7
STANDARD
210
0
220
0
230
1
 50
0
 73
    2
 44
1
  0
ENDBLK
  5
84
330
82
100
AcDbEntity
  8
0
100
AcDbBlockEnd
  0
BLOCK
  5
86
330
85
100
AcDbEntity
  8
0
100
AcDbBlockBegin
  2
*D7
 70
    1
 10
0
 20
0
  3
*D7
  1

  0
LINE
  5
F7
100
AcDbEntity
  8
Misure
  6
ByBlock
 62
    0
370
   -2
100
AcDbLine
 10
6.500000007268851
 20
69.62499904632568
 11
6.500000084318777
 21
76.25000095948936
  0
LINE
  5
F8
100
AcDbEntity
  8
Misure
  6
ByBlock
 62
    0
370
   -2
100
AcDbLine
 10
88.50000000726887
 20
69.62499809265141
 11
88.5000000843188
 21
76.25000000581508
  0
LINE
  5
F9
100
AcDbEntity
  8
Misure
  6
ByBlock
 62
    0
370
   -2
100
AcDbLine
 10
6.500000069781059
 20
75.00000095948936
 11
88.50000006978108
 21
75.00000000581508
  0
SOLID
  5
FA
100
AcDbEntity
  8
Misure
  6
ByBlock
 62
    0
370
   -2
100
AcDbTrace
 10
6.500000069781059
 20
75.00000095948936
 30
0
 11
9.000000074622521
 21
75.41628558818677
 31
0
 12
9.000000064939595
 22
74.58371627264108
 32
0
 13
9.000000064939595
 23
74.58371627264108
 33
0
  0
SOLID
  5
FB
100
AcDbEntity
  8
Misure
  6
ByBlock
 62
    0
370
   -2
100
AcDbTrace
 10
88.50000006978108
 20
75.00000000581508
 30
0
 11
86.00000006493961
 21
74.58371537711767
 31
0
 12
86.00000007462255
 22
75.41628469266335
 32
0
 13
86.00000007462255
 23
75.41628469266335
 33
0
  0
MTEXT
  5
FC
100
AcDbEntity
  8
Misure
  6
CONTINUOUS
 62
    0
370
   -2
100
AcDbMText
 10
47.50000009158764
 20
76.87500048265221
 30
0
 40
2.5
 41
3.055555555555556
 71
    5
 72
    1
  1
82
  7
STANDARD
210
0
220
0
230
1
 50
359.9999993336401
 73
    2
 44
1
  0
ENDBLK
  5
87
330
85
100
AcDbEntity
  8
0
100
AcDbBlockEnd
  0
BLOCK
  5
89
330
88
100
AcDbEntity
  8
0
100
AcDbBlockBegin
  2
*D4
 70
    1
 10
0
 20
0
  3
*D4
  1

  0
LINE
  5
FD
100
AcDbEntity
  8
Misure
  6
ByBlock
 62
    0
370
   -2
100
AcDbLine
 10
5
 20
130.625
 11
5
 21
132.033117406
  0
LINE
  5
FE
100
AcDbEntity
  8
Misure
  6
ByBlock
 62
    0
370
   -2
100
AcDbLine
 10
47.5
 20
130.625
 11
47.5
 21
132.033117406
  0
LINE
  5
FF
100
AcDbEntity
  8
Misure
  6
ByBlock
 62
    0
370
   -2
100
AcDbLine
 10
5
 20
130.783117406
 11
47.5
 21
130.783117406
  0
SOLID
  5
100
100
AcDbEntity
  8
Misure
  6
ByBlock
 62
    0
370
   -2
100
AcDbTrace
 10
5
 20
130.783117406
 30
0
 11
7.5
 21
131.1994020637729
 31
0
 12
7.5
 22
130.3668327482272
 32
0
 13
7.5
 23
130.3668327482272
 33
0
  0
SOLID
  5
101
100
AcDbEntity
  8
Misure
  6
ByBlock
 62
    0
370
   -2
100
AcDbTrace
 10
47.5
 20
130.783117406
 30
0
 11
45
 21
130.3668327482272
 31
0
 12
45
 22
131.1994020637729
 32
0
 13
45
 23
131.1994020637729
 33
0
  0
MTEXT
  5
102
100
AcDbEntity
  8
Misure
  6
CONTINUOUS
 62
    0
370
   -2
100
AcDbMText
 10
26.25
 20
132.658117406
 30
0
 40
2.5
 41
6.250000000000156
 71
    5
 72
    1
  1
42,5
  7
STANDARD
210
0
220
0
230
1
 50
0
 73
    2
 44
1
  0
ENDBLK
  5
8A
330
88
100
AcDbEntity
  8
0
100
AcDbBlockEnd
  0
BLOCK
  5
8C
330
8B
100
AcDbEntity
  8
0
100
AcDbBlockBegin
  2
*D15
 70
    1
 10
0
 20
0
  3
*D15
  1

  0
LINE
  5
103
100
AcDbEntity
  8
Measurements
  6
ByBlock
 62
    0
370
   -2
100
AcDbLine
 10
308
 20
89.375
 11
308
 21
82.5100873187
  0
LINE
  5
104
100
AcDbEntity
  8
Measurements
  6
ByBlock
 62
    0
370
   -2
100
AcDbLine
 10
335
 20
89.375
 11
335
 21
82.5100873187
  0
LINE
  5
105
100
AcDbEntity
  8
Measurements
  6
ByBlock
 62
    0
370
   -2
100
AcDbLine
 10
308
 20
83.7600873187
 11
335
 21
83.7600873187
  0
SOLID
  5
106
100
AcDbEntity
  8
Measurements
  6
ByBlock
 62
    0
370
   -2
100
AcDbTrace
 10
308
 20
83.7600873187
 30
0
 11
310.5
 21
84.17637197647284
 31
0
 12
310.5
 22
83.34380266092717
 32
0
 13
310.5
 23
83.34380266092717
 33
0
  0
SOLID
  5
107
100
AcDbEntity
  8
Measurements
  6
ByBlock
 62
    0
370
   -2
100
AcDbTrace
 10
335
 20
83.7600873187
 30
0
 11
332.5
 21
83.34380266092717
 31
0
 12
332.5
 22
84.17637197647284
 32
0
 13
332.5
 23
84.17637197647284
 33
0
  0
MTEXT
  5
108
100
AcDbEntity
  8
Measurements
  6
CONTINUOUS
 62
    0
370
   -2
100
AcDbMText
 10
321.5
 20
85.6350873187
 30
0
 40
2.5
 41
3.055555555555556
 71
    5
 72
    1
  1
27
  7
STANDARD
210
0
220
0
230
1
 50
0
 73
    2
 44
1
  0
ENDBLK
  5
8D
330
8B
100
AcDbEntity
  8
0
100
AcDbBlockEnd
  0
BLOCK
  5
8F
330
8E
100
AcDbEntity
  8
0
100
AcDbBlockBegin
  2
*D10
 70
    1
 10
0
 20
0
  3
*D10
  1

  0
LINE
  5
109
100
AcDbEntity
  8
Measurements
  6
ByBlock
 62
    0
370
   -2
100
AcDbLine
 10
357.375
 20
208
 11
353.75
 21
208
  0
LINE
  5
10A
100
AcDbEntity
  8
Measurements
  6
ByBlock
 62
    0
370
   -2
100
AcDbLine
 10
357.375
 20
198
 11
353.75
 21
198
  0
LINE
  5
10B
100
AcDbEntity
  8
Measurements
  6
ByBlock
 62
    0
370
   -2
100
AcDbLine
 10
355
 20
208
 11
355
 21
198
  0
SOLID
  5
10C
100
AcDbEntity
  8
Measurements
  6
ByBlock
 62
    0
370
   -2
100
AcDbTrace
 10
355
 20
208
 30
0
 11
355.4162846577728
 21
205.5
 31
0
 12
354.5837153422272
 22
205.5
 32
0
 13
354.5837153422272
 23
205.5
 33
0
  0
SOLID
  5
10D
100
AcDbEntity
  8
Measurements
  6
ByBlock
 62
    0
370
   -2
100
AcDbTrace
 10
355
 20
198
 30
0
 11
354.5837153422272
 21
200.5
 31
0
 12
355.4162846577728
 22
200.5
 32
0
 13
355.4162846577728
 23
200.5
 33
0
  0
MTEXT
  5
10E
100
AcDbEntity
  8
Measurements
  6
CONTINUOUS
 62
    0
370
   -2
100
AcDbMText
 10
353.125
 20
203
 30
0
 40
2.5
 41
2.5
 71
    5
 72
    1
  1
10
  7
STANDARD
210
0
220
0
230
1
 50
90
 73
    2
 44
1
  0
ENDBLK
  5
90
330
8E
100
AcDbEntity
  8
0
100
AcDbBlockEnd
  0
BLOCK
  5
92
330
91
100
AcDbEntity
  8
0
100
AcDbBlockBegin
  2
*D16
 70
    1
 10
0
 20
0
  3
*D16
  1

  0
LINE
  5
10F
100
AcDbEntity
  8
Measurements
  6
ByBlock
 62
    0
370
   -2
100
AcDbLine
 10
307.375
 20
208
 11
303.75
 21
208
  0
LINE
  5
110
100
AcDbEntity
  8
Measurements
  6
ByBlock
 62
    0
370
   -2
100
AcDbLine
 10
307.375
 20
153
 11
303.75
 21
153
  0
LINE
  5
111
100
AcDbEntity
  8
Measurements
  6
ByBlock
 62
    0
370
   -2
100
AcDbLine
 10
305
 20
208
 11
305
 21
153
  0
SOLID
  5
112
100
AcDbEntity
  8
Measurements
  6
ByBlock
 62
    0
370
   -2
100
AcDbTrace
 10
305
 20
208
 30
0
 11
305.4162846577728
 21
205.5
 31
0
 12
304.5837153422272
 22
205.5
 32
0
 13
304.5837153422272
 23
205.5
 33
0
  0
SOLID
  5
113
100
AcDbEntity
  8
Measurements
  6
ByBlock
 62
    0
370
   -2
100
AcDbTrace
 10
305
 20
153
 30
0
 11
304.5837153422272
 21
155.5
 31
0
 12
305.4162846577728
 22
155.5
 32
0
 13
305.4162846577728
 23
155.5
 33
0
  0
MTEXT
  5
114
100
AcDbEntity
  8
Measurements
  6
CONTINUOUS
 62
    0
370
   -2
100
AcDbMText
 10
303.125
 20
180.5
 30
0
 40
2.5
 41
3.055555555555866
 71
    5
 72
    1
  1
55
  7
STANDARD
210
0
220
0
230
1
 50
90
 73
    2
 44
1
  0
ENDBLK
  5
93
330
91
100
AcDbEntity
  8
0
100
AcDbBlockEnd
  0
BLOCK
  5
95
330
94
100
AcDbEntity
  8
0
100
AcDbBlockBegin
  2
*D21
 70
    1
 10
0
 20
0
  3
*D21
  1

  0
LINE
  5
115
100
AcDbEntity
  8
Measurements
  6
ByBlock
 62
    0
370
   -2
100
AcDbLine
 10
330
 20
230.625
 11
330
 21
241.25
  0
LINE
  5
116
100
AcDbEntity
  8
Measurements
  6
ByBlock
 62
    0
370
   -2
100
AcDbLine
 10
395
 20
230.625
 11
395
 21
241.25
  0
LINE
  5
117
100
AcDbEntity
  8
Measurements
  6
ByBlock
 62
    0
370
   -2
100
AcDbLine
 10
330
 20
240
 11
395
 21
240
  0
SOLID
  5
118
100
AcDbEntity
  8
Measurements
  6
ByBlock
 62
    0
370
   -2
100
AcDbTrace
 10
330
 20
240
 30
0
 11
332.5
 21
240.4162846577728
 31
0
 12
332.5
 22
239.5837153422272
 32
0
 13
332.5
 23
239.5837153422272
 33
0
  0
SOLID
  5
119
100
AcDbEntity
  8
Measurements
  6
ByBlock
 62
    0
370
   -2
100
AcDbTrace
 10
395
 20
240
 30
0
 11
392.5
 21
239.5837153422272
 31
0
 12
392.5
 22
240.4162846577728
 32
0
 13
392.5
 23
240.4162846577728
 33
0
  0
MTEXT
  5
11A
100
AcDbEntity
  8
Measurements
  6
CONTINUOUS
 62
    0
370
   -2
100
AcDbMText
 10
362.5
 20
241.875
 30
0
 40
2.5
 41
3.055555555555866
 71
    5
 72
    1
  1
65
  7
STANDARD
210
0
220
0
230
1
 50
0
 73
    2
 44
1
  0
ENDBLK
  5
96
330
94
100
AcDbEntity
  8
0
100
AcDbBlockEnd
  0
BLOCK
  5
98
330
97
100
AcDbEntity
  8
0
100
AcDbBlockBegin
  2
*D11
 70
    1
 10
0
 20
0
  3
*D11
  1

  0
LINE
  5
11B
100
AcDbEntity
  8
Measurements
  6
ByBlock
 62
    0
370
   -2
100
AcDbLine
 10
349.375
 20
208
 11
346.75
 21
208
  0
LINE
  5
11C
100
AcDbEntity
  8
Measurements
  6
ByBlock
 62
    0
370
   -2
100
AcDbLine
 10
349.375
 20
188
 11
346.75
 21
188
  0
LINE
  5
11D
100
AcDbEntity
  8
Measurements
  6
ByBlock
 62
    0
370
   -2
100
AcDbLine
 10
348
 20
208
 11
348
 21
188
  0
SOLID
  5
11E
100
AcDbEntity
  8
Measurements
  6
ByBlock
 62
    0
370
   -2
100
AcDbTrace
 10
348
 20
208
 30
0
 11
348.4162846577728
 21
205.5
 31
0
 12
347.5837153422272
 22
205.5
 32
0
 13
347.5837153422272
 23
205.5
 33
0
  0
SOLID
  5
11F
100
AcDbEntity
  8
Measurements
  6
ByBlock
 62
    0
370
   -2
100
AcDbTrace
 10
348
 20
188
 30
0
 11
347.5837153422272
 21
190.5
 31
0
 12
348.4162846577728
 22
190.5
 32
0
 13
348.4162846577728
 23
190.5
 33
0
  0
MTEXT
  5
120
100
AcDbEntity
  8
Measurements
  6
CONTINUOUS
 62
    0
370
   -2
100
AcDbMText
 10
346.125
 20
198
 30
0
 40
2.5
 41
3.055555555555556
 71
    5
 72
    1
  1
20
  7
STANDARD
210
0
220
0
230
1
 50
90
 73
    2
 44
1
  0
ENDBLK
  5
99
330
97
100
AcDbEntity
  8
0
100
AcDbBlockEnd
  0
BLOCK
  5
9B
330
9A
100
AcDbEntity
  8
0
100
AcDbBlockBegin
  2
*D9
 70
    1
 10
0
 20
0
  3
*D9
  1

  0
LINE
  5
121
100
AcDbEntity
  8
Measurements
  6
ByBlock
 62
    0
370
   -2
100
AcDbLine
 10
305.375
 20
90
 11
299.3863636364
 21
90
  0
LINE
  5
122
100
AcDbEntity
  8
Measurements
  6
ByBlock
 62
    0
370
   -2
100
AcDbLine
 10
305.375
 20
208
 11
299.3863636364
 21
208
  0
LINE
  5
123
100
AcDbEntity
  8
Measurements
  6
ByBlock
 62
    0
370
   -2
100
AcDbLine
 10
300.6363636364
 20
90
 11
300.6363636364
 21
208
  0
SOLID
  5
124
100
AcDbEntity
  8
Measurements
  6
ByBlock
 62
    0
370
   -2
100
AcDbTrace
 10
300.6363636364
 20
90
 30
0
 11
300.2200789786272
 21
92.5
 31
0
 12
301.0526482941729
 22
92.5
 32
0
 13
301.0526482941729
 23
92.5
 33
0
  0
SOLID
  5
125
100
AcDbEntity
  8
Measurements
  6
ByBlock
 62
    0
370
   -2
100
AcDbTrace
 10
300.6363636364
 20
208
 30
0
 11
301.0526482941729
 21
205.5
 31
0
 12
300.2200789786272
 22
205.5
 32
0
 13
300.2200789786272
 23
205.5
 33
0
  0
MTEXT
  5
126
100
AcDbEntity
  8
Measurements
  6
CONTINUOUS
 62
    0
370
   -2
100
AcDbMText
 10
298.7613636364
 20
149
 30
0
 40
2.5
 41
3.888888888888889
 71
    5
 72
    1
  1
118
  7
STANDARD
210
0
220
0
230
1
 50
90
 73
    2
 44
1
  0
ENDBLK
  5
9C
330
9A
100
AcDbEntity
  8
0
100
AcDbBlockEnd
  0
BLOCK
  5
9E
330
9D
100
AcDbEntity
  8
0
100
AcDbBlockBegin
  2
fablab-0
 70
    0
 10
0
 20
0
  3
fablab-0
  1

  0
SPLINE
  5
127
100
AcDbEntity
  8
FabLabLogo
  6
ByLayer
 62
    7
370
   -1
100
AcDbSpline
210
0
220
0
230
0
 70
    8
 71
    3
 72
    8
 73
    4
 74
    0
 42
1e-07
 43
1e-07
 40
0
 40
0
 40
0
 40
0
 40
1
 40
1
 40
1
 40
1
 10
189.167
 20
139.22
 30
0
 10
190.617
 20
139.773
 30
0
 10
192.03
 20
140.436
 30
0
 10
193.389
 20
141.236
 30
0
  0
SPLINE
  5
128
100
AcDbEntity
  8
FabLabLogo
  6
ByLayer
 62
    7
370
   -1
100
AcDbSpline
210
0
220
0
230
0
 70
    8
 71
    3
 72
    8
 73
    4
 74
    0
 42
1e-07
 43
1e-07
 40
0
 40
0
 40
0
 40
0
 40
1
 40
1
 40
1
 40
1
 10
193.389
 20
141.236
 30
0
 10
212.644
 20
152.589
 30
0
 10
214.668
 20
184.839
 30
0
 10
197.906
 20
213.265
 30
0
  0
SPLINE
  5
129
100
AcDbEntity
  8
FabLabLogo
  6
ByLayer
 62
    7
370
   -1
100
AcDbSpline
210
0
220
0
230
0
 70
    8
 71
    3
 72
    8
 73
    4
 74
    0
 42
1e-07
 43
1e-07
 40
0
 40
0
 40
0
 40
0
 40
1
 40
1
 40
1
 40
1
 10
197.906
 20
213.265
 30
0
 10
181.146
 20
241.691
 30
0
 10
151.95
 20
255.532
 30
0
 10
132.695
 20
244.18
 30
0
  0
SPLINE
  5
12A
100
AcDbEntity
  8
FabLabLogo
  6
ByLayer
 62
    7
370
   -1
100
AcDbSpline
210
0
220
0
230
0
 70
    8
 71
    3
 72
    8
 73
    4
 74
    0
 42
1e-07
 43
1e-07
 40
0
 40
0
 40
0
 40
0
 40
1
 40
1
 40
1
 40
1
 10
132.695
 20
244.18
 30
0
 10
113.44
 20
232.827
 30
0
 10
111.417
 20
200.578
 30
0
 10
128.176
 20
172.151
 30
0
  0
SPLINE
  5
12B
100
AcDbEntity
  8
FabLabLogo
  6
ByLayer
 62
    7
370
   -1
100
AcDbSpline
210
0
220
0
230
0
 70
    8
 71
    3
 72
    8
 73
    4
 74
    0
 42
1e-07
 43
1e-07
 40
0
 40
0
 40
0
 40
0
 40
1
 40
1
 40
1
 40
1
 10
128.176
 20
172.151
 30
0
 10
130.88
 20
167.566
 30
0
 10
133.91
 20
163.367
 30
0
 10
137.167
 20
159.586
 30
0
  0
LWPOLYLINE
  5
12C
100
AcDbEntity
  8
FabLabLogo
  6
ByLayer
 62
    7
370
   -1
100
AcDbPolyline
 90
    2
 70
    0
 43
0
 10
189.167
 20
98.83320000000001
 10
189.167
 20
139.22
  0
SPLINE
  5
12D
100
AcDbEntity
  8
FabLabLogo
  6
ByLayer
 62
    7
370
   -1
100
AcDbSpline
210
0
220
0
230
0
 70
    8
 71
    3
 72
    8
 73
    4
 74
    0
 42
1e-07
 43
1e-07
 40
0
 40
0
 40
0
 40
0
 40
1
 40
1
 40
1
 40
1
 10
81.1199
 20
311.686
 30
0
 10
67.8691
 20
287.542
 30
0
 10
60.3328
 20
259.817
 30
0
 10
60.3328
 20
230.333
 30
0
  0
SPLINE
  5
12E
100
AcDbEntity
  8
FabLabLogo
  6
ByLayer
 62
    7
370
   -1
100
AcDbSpline
210
0
220
0
230
0
 70
    8
 71
    3
 72
    8
 73
    4
 74
    0
 42
1e-07
 43
1e-07
 40
0
 40
0
 40
0
 40
0
 40
1
 40
1
 40
1
 40
1
 10
60.3328
 20
230.333
 30
0
 10
60.3328
 20
138.723
 30
0
 10
133.024
 20
64.13979999999999
 30
0
 10
223.901
 20
61.1301
 30
0
  0
LWPOLYLINE
  5
12F
100
AcDbEntity
  8
FabLabLogo
  6
ByLayer
 62
    7
370
   -1
100
AcDbPolyline
 90
    5
 70
    0
 43
0
 10
137.167
 20
159.586
 10
137.167
 20
129.583
 10
95.66719999999999
 20
153.333
 10
95.66719999999999
 20
302.083
 10
81.1199
 20
311.686
  0
LWPOLYLINE
  5
130
100
AcDbEntity
  8
FabLabLogo
  6
ByLayer
 62
    7
370
   -1
100
AcDbPolyline
 90
    3
 70
    0
 43
0
 10
223.901
 20
61.1301
 10
223.917
 20
78.58320000000001
 10
189.167
 20
98.83320000000001
  0
SPLINE
  5
131
100
AcDbEntity
  8
FabLabLogo
  6
ByLayer
 62
    7
370
   -1
100
AcDbSpline
210
0
220
0
230
0
 70
    8
 71
    3
 72
    8
 73
    4
 74
    0
 42
1e-07
 43
1e-07
 40
0
 40
0
 40
0
 40
0
 40
1
 40
1
 40
1
 40
1
 10
166.333
 20
320.167
 30
0
 10
165.833
 20
315.999
 30
0
 10
165.817
 20
311.41
 30
0
 10
165.833
 20
309.833
 30
0
  0
SPLINE
  5
132
100
AcDbEntity
  8
FabLabLogo
  6
ByLayer
 62
    7
370
   -1
100
AcDbSpline
210
0
220
0
230
0
 70
    8
 71
    3
 72
    8
 73
    4
 74
    0
 42
1e-07
 43
1e-07
 40
0
 40
0
 40
0
 40
0
 40
1
 40
1
 40
1
 40
1
 10
165.833
 20
309.833
 30
0
 10
166.065
 20
287.482
 30
0
 10
196.335
 20
270.491
 30
0
 10
229.333
 20
270.833
 30
0
  0
SPLINE
  5
133
100
AcDbEntity
  8
FabLabLogo
  6
ByLayer
 62
    7
370
   -1
100
AcDbSpline
210
0
220
0
230
0
 70
    8
 71
    3
 72
    8
 73
    4
 74
    0
 42
1e-07
 43
1e-07
 40
0
 40
0
 40
0
 40
0
 40
1
 40
1
 40
1
 40
1
 10
229.333
 20
270.833
 30
0
 10
262.331
 20
271.175
 30
0
 10
285.833
 20
291.166
 30
0
 10
285.667
 20
310.833
 30
0
  0
SPLINE
  5
134
100
AcDbEntity
  8
FabLabLogo
  6
ByLayer
 62
    7
370
   -1
100
AcDbSpline
210
0
220
0
230
0
 70
    8
 71
    3
 72
    8
 73
    4
 74
    0
 42
1e-07
 43
1e-07
 40
0
 40
0
 40
0
 40
0
 40
1
 40
1
 40
1
 40
1
 10
285.667
 20
310.833
 30
0
 10
285.479
 20
333.184
 30
0
 10
263.985
 20
350.683
 30
0
 10
231
 20
351.666
 30
0
  0
SPLINE
  5
135
100
AcDbEntity
  8
FabLabLogo
  6
ByLayer
 62
    7
370
   -1
100
AcDbSpline
210
0
220
0
230
0
 70
    8
 71
    3
 72
    8
 73
    4
 74
    0
 42
1e-07
 43
1e-07
 40
0
 40
0
 40
0
 40
0
 40
1
 40
1
 40
1
 40
1
 10
231
 20
351.666
 30
0
 10
219.833
 20
351.999
 30
0
 10
209.068
 20
349.77
 30
0
 10
204.167
 20
348.833
 30
0
  0
LWPOLYLINE
  5
136
100
AcDbEntity
  8
FabLabLogo
  6
ByLayer
 62
    7
370
   -1
100
AcDbPolyline
 90
    2
 70
    0
 43
0
 10
140.968
 20
335.199
 10
166.333
 20
320.167
  0
SPLINE
  5
137
100
AcDbEntity
  8
FabLabLogo
  6
ByLayer
 62
    7
370
   -1
100
AcDbSpline
210
0
220
0
230
0
 70
    8
 71
    3
 72
    8
 73
    4
 74
    0
 42
1e-07
 43
1e-07
 40
0
 40
0
 40
0
 40
0
 40
1
 40
1
 40
1
 40
1
 10
374.25
 20
318.54
 30
0
 10
359.938
 20
342.071
 30
0
 10
339.671
 20
362.435
 30
0
 10
314.119
 20
377.146
 30
0
  0
SPLINE
  5
138
100
AcDbEntity
  8
FabLabLogo
  6
ByLayer
 62
    7
370
   -1
100
AcDbSpline
210
0
220
0
230
0
 70
    8
 71
    3
 72
    8
 73
    4
 74
    0
 42
1e-07
 43
1e-07
 40
0
 40
0
 40
0
 40
0
 40
1
 40
1
 40
1
 40
1
 10
314.119
 20
377.146
 30
0
 10
234.727
 20
422.855
 30
0
 10
133.821
 20
397.072
 30
0
 10
85.8699
 20
319.816
 30
0
  0
LWPOLYLINE
  5
139
100
AcDbEntity
  8
FabLabLogo
  6
ByLayer
 62
    7
370
   -1
100
AcDbPolyline
 90
    5
 70
    0
 43
0
 10
204.167
 20
348.833
 10
185.667
 20
360.666
 10
229.667
 20
385.771
 10
359.375
 20
310.375
 10
374.25
 20
318.54
  0
LWPOLYLINE
  5
13A
100
AcDbEntity
  8
FabLabLogo
  6
ByLayer
 62
    7
370
   -1
100
AcDbPolyline
 90
    3
 70
    0
 43
0
 10
85.8699
 20
319.816
 10
100.625
 20
310.5
 10
140.968
 20
335.199
  0
SPLINE
  5
13B
100
AcDbEntity
  8
FabLabLogo
  6
ByLayer
 62
    7
370
   -1
100
AcDbSpline
210
0
220
0
230
0
 70
    8
 71
    3
 72
    8
 73
    4
 74
    0
 42
1e-07
 43
1e-07
 40
0
 40
0
 40
0
 40
0
 40
1
 40
1
 40
1
 40
1
 10
336.168
 20
238.832
 30
0
 10
335.168
 20
238.999
 30
0
 10
329.046
 20
244.73
 30
0
 10
327.668
 20
245.499
 30
0
  0
SPLINE
  5
13C
100
AcDbEntity
  8
FabLabLogo
  6
ByLayer
 62
    7
370
   -1
100
AcDbSpline
210
0
220
0
230
0
 70
    8
 71
    3
 72
    8
 73
    4
 74
    0
 42
1e-07
 43
1e-07
 40
0
 40
0
 40
0
 40
0
 40
1
 40
1
 40
1
 40
1
 10
327.668
 20
245.499
 30
0
 10
308.142
 20
256.377
 30
0
 10
279.395
 20
241.994
 30
0
 10
263.334
 20
213.166
 30
0
  0
SPLINE
  5
13D
100
AcDbEntity
  8
FabLabLogo
  6
ByLayer
 62
    7
370
   -1
100
AcDbSpline
210
0
220
0
230
0
 70
    8
 71
    3
 72
    8
 73
    4
 74
    0
 42
1e-07
 43
1e-07
 40
0
 40
0
 40
0
 40
0
 40
1
 40
1
 40
1
 40
1
 10
263.334
 20
213.166
 30
0
 10
247.273
 20
184.34
 30
0
 10
248.643
 20
151.38
 30
0
 10
268.168
 20
140.499
 30
0
  0
SPLINE
  5
13E
100
AcDbEntity
  8
FabLabLogo
  6
ByLayer
 62
    7
370
   -1
100
AcDbSpline
210
0
220
0
230
0
 70
    8
 71
    3
 72
    8
 73
    4
 74
    0
 42
1e-07
 43
1e-07
 40
0
 40
0
 40
0
 40
0
 40
1
 40
1
 40
1
 40
1
 10
268.168
 20
140.499
 30
0
 10
287.695
 20
129.622
 30
0
 10
316.771
 20
142.673
 30
0
 10
332.834
 20
171.499
 30
0
  0
SPLINE
  5
13F
100
AcDbEntity
  8
FabLabLogo
  6
ByLayer
 62
    7
370
   -1
100
AcDbSpline
210
0
220
0
230
0
 70
    8
 71
    3
 72
    8
 73
    4
 74
    0
 42
1e-07
 43
1e-07
 40
0
 40
0
 40
0
 40
0
 40
1
 40
1
 40
1
 40
1
 10
332.834
 20
171.499
 30
0
 10
335.424
 20
176.149
 30
0
 10
338.884
 20
186.945
 30
0
 10
340.501
 20
191.666
 30
0
  0
LWPOLYLINE
  5
140
100
AcDbEntity
  8
FabLabLogo
  6
ByLayer
 62
    7
370
   -1
100
AcDbPolyline
 90
    2
 70
    0
 43
0
 10
363.75
 20
253.25
 10
336.168
 20
238.832
  0
SPLINE
  5
141
100
AcDbEntity
  8
FabLabLogo
  6
ByLayer
 62
    7
370
   -1
100
AcDbSpline
210
0
220
0
230
0
 70
    8
 71
    3
 72
    8
 73
    4
 74
    0
 42
1e-07
 43
1e-07
 40
0
 40
0
 40
0
 40
0
 40
1
 40
1
 40
1
 40
1
 10
234.563
 20
61.1031
 30
0
 10
262.094
 20
61.866
 30
0
 10
289.826
 20
69.3738
 30
0
 10
315.27
 20
84.2711
 30
0
  0
SPLINE
  5
142
100
AcDbEntity
  8
FabLabLogo
  6
ByLayer
 62
    7
370
   -1
100
AcDbSpline
210
0
220
0
230
0
 70
    8
 71
    3
 72
    8
 73
    4
 74
    0
 42
1e-07
 43
1e-07
 40
0
 40
0
 40
0
 40
0
 40
1
 40
1
 40
1
 40
1
 10
315.27
 20
84.2711
 30
0
 10
394.323
 20
130.563
 30
0
 10
421.952
 20
230.979
 30
0
 10
378.63
 20
310.921
 30
0
  0
LWPOLYLINE
  5
143
100
AcDbEntity
  8
FabLabLogo
  6
ByLayer
 62
    7
370
   -1
100
AcDbPolyline
 90
    5
 70
    0
 43
0
 10
340.501
 20
191.666
 10
364
 20
205.25
 10
363.861
 20
153.672
 10
234.5
 20
78.125
 10
234.563
 20
61.1031
  0
LWPOLYLINE
  5
144
100
AcDbEntity
  8
FabLabLogo
  6
ByLayer
 62
    7
370
   -1
100
AcDbPolyline
 90
    3
 70
    0
 43
0
 10
378.63
 20
310.921
 10
363.75
 20
302.75
 10
363.75
 20
253.25
  0
LWPOLYLINE
  5
145
100
AcDbEntity
  8
FabLabLogo
  6
ByLayer
 62
    2
370
   -1
100
AcDbPolyline
 90
    2
 70
    0
 43
0
 10
27
 20
36
 10
0
 20
36
  0
LWPOLYLINE
  5
146
100
AcDbEntity
  8
FabLabLogo
  6
ByLayer
 62
    2
370
   -1
100
AcDbPolyline
 90
    2
 70
    0
 43
0
 10
36
 20
27
 10
36
 20
0
  0
LWPOLYLINE
  5
147
100
AcDbEntity
  8
FabLabLogo
  6
ByLayer
 62
    2
370
   -1
100
AcDbPolyline
 90
    2
 70
    0
 43
0
 10
27
 20
424
 10
0
 20
424
  0
LWPOLYLINE
  5
148
100
AcDbEntity
  8
FabLabLogo
  6
ByLayer
 62
    2
370
   -1
100
AcDbPolyline
 90
    2
 70
    0
 43
0
 10
36
 20
433
 10
36
 20
460
  0
LWPOLYLINE
  5
149
100
AcDbEntity
  8
FabLabLogo
  6
ByLayer
 62
    2
370
   -1
100
AcDbPolyline
 90
    2
 70
    0
 43
0
 10
433
 20
424
 10
460
 20
424
  0
LWPOLYLINE
  5
14A
100
AcDbEntity
  8
FabLabLogo
  6
ByLayer
 62
    2
370
   -1
100
AcDbPolyline
 90
    2
 70
    0
 43
0
 10
424
 20
433
 10
424
 20
460
  0
LWPOLYLINE
  5
14B
100
AcDbEntity
  8
FabLabLogo
  6
ByLayer
 62
    2
370
   -1
100
AcDbPolyline
 90
    2
 70
    0
 43
0
 10
433
 20
36
 10
460
 20
36
  0
LWPOLYLINE
  5
14C
100
AcDbEntity
  8
FabLabLogo
  6
ByLayer
 62
    2
370
   -1
100
AcDbPolyline
 90
    2
 70
    0
 43
0
 10
424
 20
27
 10
424
 20
0
  0
ENDBLK
  5
9F
330
9D
100
AcDbEntity
  8
0
100
AcDbBlockEnd
  0
BLOCK
  5
A1
330
A0
100
AcDbEntity
  8
0
100
AcDbBlockBegin
  2
ScatolaV2.0
 70
    0
 10
0
 20
0
  3
ScatolaV2.0
  1

  0
IMAGE
  5
14F
100
AcDbEntity
  8
0
  6
ByLayer
 62
  256
370
   -1
100
AcDbRasterImage
 10
117.228803415
 20
129.243533853
 30
0
 11
0.03
 21
0
 31
0
 12
1.83697019872e-18
 22
0.03
 32
0
 13
1214
 23
383
340
14D
 70
    1
280
    0
281
   50
282
   50
283
    0
360
14E
  0
HATCH
  5
150
100
AcDbEntity
  8
SVG
  6
ByLayer
 62
  256
370
   -1
100
AcDbHatch
 10
0
 20
0
 30
0
210
0
220
0
230
1
  2
SOLID
 70
    1
 71
    0
 91
    1
 92
    0
 93
    2
 72
    2
 10
138.05
 20
139.4
 40
2.40757107931
 50
0
 51
360
 73
    1
 72
    2
 10
138.05
 20
139.4
 40
3.10845620847
 50
0
 51
360
 73
    1
 97
    0
 75
    0
 76
    1
 98
    0
  0
HATCH
  5
151
100
AcDbEntity
  8
SVG
  6
ByLayer
 62
  256
370
   -1
100
AcDbHatch
 10
0
 20
0
 30
0
210
0
220
0
230
1
  2
SOLID
 70
    1
 71
    0
 91
    1
 92
    0
 93
    5
 72
    2
 10
149.8
 20
139.4
 40
0.989949493661
 50
0
 51
360
 73
    1
 72
    2
 10
149.344676809
 20
139.4
 40
2.51639109472
 50
42.49848114750001
 51
317.501518853
 73
    1
 72
    1
 10
151.2
 20
137.7
 11
151.2
 21
136.8
 72
    2
 10
149.344676809
 20
139.4
 40
3.19409206843
 50
54.48888350070002
 51
305.511116499
 73
    0
 72
    1
 10
151.2
 20
142
 11
151.2
 21
141.1
 97
    0
 75
    0
 76
    1
 98
    0
  0
HATCH
  5
152
100
AcDbEntity
  8
SVG
  6
ByLayer
 62
  256
370
   -1
100
AcDbHatch
 10
0
 20
0
 30
0
210
0
220
0
230
1
  2
SOLID
 70
    1
 71
    0
 91
    1
 92
    0
 93
    2
 72
    2
 10
159.97
 20
139.36
 40
2.46546141726
 50
0
 51
360
 73
    1
 72
    2
 10
159.97
 20
139.36
 40
3.0968532416
 50
0
 51
360
 73
    1
 97
    0
 75
    0
 76
    1
 98
    0
  0
LINE
  5
153
100
AcDbEntity
  8
0
  6
ByLayer
 62
  256
370
   -1
100
AcDbLine
 10
89
 20
40
 11
30
 21
40
  0
LINE
  5
154
100
AcDbEntity
  8
0
  6
ByLayer
 62
  256
370
   -1
100
AcDbLine
 10
8
 20
40
 11
30
 21
40
  0
LINE
  5
155
100
AcDbEntity
  8
0
  6
ByLayer
 62
  256
370
   -1
100
AcDbLine
 10
111
 20
40
 11
89
 21
40
  0
LINE
  5
156
100
AcDbEntity
  8
0
  6
ByLayer
 62
  256
370
   -1
100
AcDbLine
 10
165
 20
40
 11
111
 21
40
  0
DIMENSION
  5
157
100
AcDbEntity
  8
Measurements
  6
ByLayer
 62
  256
370
   -1
100
AcDbDimension
 10
89
 20
0
 30
0
 11
59.5
 21
1.875
 31
0
 70
   33
 71
    5
  3
Standard
 53
0
210
0
220
0
230
1
100
AcDbAlignedDimension
 13
30
 23
13
 33
0
 14
89
 24
13
 34
0
  0
LINE
  5
158
100
AcDbEntity
  8
0
  6
ByLayer
 62
  256
370
   -1
100
AcDbLine
 10
30
 20
158
 11
89
 21
158
  0
LINE
  5
159
100
AcDbEntity
  8
0
  6
ByLayer
 62
  256
370
   -1
100
AcDbLine
 10
89
 20
180
 11
30
 21
180
  0
LINE
  5
15A
100
AcDbEntity
  8
0
  6
ByLayer
 62
  256
370
   -1
100
AcDbLine
 10
89
 20
158
 11
89
 21
180
  0
LINE
  5
15B
100
AcDbEntity
  8
0
  6
ByLayer
 62
  256
370
   -1
100
AcDbLine
 10
30
 20
180
 11
30
 21
158
  0
LINE
  5
15C
100
AcDbEntity
  8
0
  6
ByLayer
 62
  256
370
   -1
100
AcDbLine
 10
30
 20
158
 11
8
 21
158
  0
LINE
  5
15D
100
AcDbEntity
  8
0
  6
ByLayer
 62
  256
370
   -1
100
AcDbLine
 10
89
 20
158
 11
111
 21
158
  0
LINE
  5
15E
100
AcDbEntity
  8
0
  6
ByLayer
 62
  256
370
   -1
100
AcDbLine
 10
111
 20
158
 11
165
 21
158
  0
DIMENSION
  5
15F
100
AcDbEntity
  8
Measurements
  6
ByLayer
 62
  256
370
   -1
100
AcDbDimension
 10
0.6363636364000058
 20
158
 30
0
 11
-1.238636363599994
 21
99
 31
0
 70
   33
 71
    5
  3
Standard
 53
0
210
0
220
0
230
1
100
AcDbAlignedDimension
 13
6
 23
40
 33
0
 14
6
 24
158
 34
0
  0
LINE
  5
160
100
AcDbEntity
  8
0
  6
ByLayer
 62
  256
370
   -1
100
AcDbLine
 10
8
 20
158
 11
8
 21
40
  0
LINE
  5
161
100
AcDbEntity
  8
0
  6
ByLayer
 62
  256
370
   -1
100
AcDbLine
 10
89
 20
158
 11
89
 21
40
  0
LINE
  5
162
100
AcDbEntity
  8
0
  6
ByLayer
 62
  256
370
   -1
100
AcDbLine
 10
30
 20
40
 11
30
 21
158
  0
LINE
  5
163
100
AcDbEntity
  8
0
  6
ByLayer
 62
  256
370
   -1
100
AcDbLine
 10
165
 20
158
 11
165
 21
40
  0
LINE
  5
164
100
AcDbEntity
  8
0
  6
ByLayer
 62
  256
370
   -1
100
AcDbLine
 10
111
 20
40
 11
111
 21
158
  0
DIMENSION
  5
165
100
AcDbEntity
  8
Measurements
  6
ByLayer
 62
  256
370
   -1
100
AcDbDimension
 10
55
 20
148
 30
0
 11
53.125
 21
153
 31
0
 70
   33
 71
    5
  3
Standard
 53
0
210
0
220
0
230
1
100
AcDbAlignedDimension
 13
58
 23
158
 33
0
 14
58
 24
148
 34
0
  0
DIMENSION
  5
166
100
AcDbEntity
  8
Measurements
  6
ByLayer
 62
  256
370
   -1
100
AcDbDimension
 10
48
 20
138
 30
0
 11
46.125
 21
148
 31
0
 70
   33
 71
    5
  3
Standard
 53
0
210
0
220
0
230
1
100
AcDbAlignedDimension
 13
50
 23
158
 33
0
 14
50
 24
138
 34
0
  0
DIMENSION
  5
167
100
AcDbEntity
  8
Measurements
  6
ByLayer
 62
  256
370
   -1
100
AcDbDimension
 10
46
 20
145.6
 30
0
 11
38
 21
147.475
 31
0
 70
   33
 71
    5
  3
Standard
 53
0
210
0
220
0
230
1
100
AcDbAlignedDimension
 13
30
 23
144
 33
0
 14
46
 24
144
 34
0
  0
LINE
  5
168
100
AcDbEntity
  8
Measurements
  6
ByLayer
 62
  256
370
   -1
100
AcDbLine
 10
46
 20
138
 11
73
 21
138
  0
DIMENSION
  5
169
100
AcDbEntity
  8
Measurements
  6
ByLayer
 62
  256
370
   -1
100
AcDbDimension
 10
64
 20
123
 30
0
 11
62.125
 21
130.5
 31
0
 70
   33
 71
    5
 72
    0
  3
Standard
 53
0
210
0
220
0
230
1
100
AcDbAlignedDimension
 13
60
 23
138
 33
0
 14
60
 24
123
 34
0
  0
POINT
  5
16A
100
AcDbEntity
  8
Measurements
  6
ByLayer
 62
  256
370
   -1
100
AcDbPoint
 10
59.5
 20
158
  0
DIMENSION
  5
16B
100
AcDbEntity
  8
Measurements
  6
ByLayer
 62
  256
370
   -1
100
AcDbDimension
 10
71
 20
60
 30
0
 11
69.125
 21
50
 31
0
 70
   33
 71
    5
 72
    0
  3
Standard
 53
0
210
0
220
0
230
1
100
AcDbAlignedDimension
 13
59.5
 23
40
 33
0
 14
59.5
 24
60
 34
0
  0
DIMENSION
  5
16C
100
AcDbEntity
  8
Measurements
  6
ByLayer
 62
  256
370
   -1
100
AcDbDimension
 10
35
 20
33.7600873187
 30
0
 11
21.5
 21
35.6350873187
 31
0
 70
   33
 71
    5
 72
    0
  3
Standard
 53
0
210
0
220
0
230
1
100
AcDbAlignedDimension
 13
8
 23
40
 33
0
 14
35
 24
40
 34
0
  0
DIMENSION
  5
16D
100
AcDbEntity
  8
Measurements
  6
ByLayer
 62
  256
370
   -1
100
AcDbDimension
 10
5
 20
103
 30
0
 11
3.125
 21
130.5
 31
0
 70
   33
 71
    5
 72
    0
  3
Standard
 53
0
210
0
220
0
230
1
100
AcDbAlignedDimension
 13
8
 23
158
 33
0
 14
8
 24
103
 34
0
  0
DIMENSION
  5
16E
100
AcDbEntity
  8
Measurements
  6
ByLayer
 62
  256
370
   -1
100
AcDbDimension
 10
21.5
 20
99
 30
0
 11
14.75
 21
100.875
 31
0
 70
   33
 71
    5
 72
    0
  3
Standard
 53
0
210
0
220
0
230
1
100
AcDbAlignedDimension
 13
8
 23
103
 33
0
 14
21.5
 24
103
 34
0
  0
DIMENSION
  5
16F
100
AcDbEntity
  8
Measurements
  6
ByLayer
 62
  256
370
   -1
100
AcDbDimension
 10
165
 20
27
 30
0
 11
135.5
 21
28.875
 31
0
 70
   33
 71
    5
  3
Standard
 53
0
210
0
220
0
230
1
100
AcDbAlignedDimension
 13
106
 23
40
 33
0
 14
165
 24
40
 34
0
  0
LINE
  5
170
100
AcDbEntity
  8
Borders
  6
ByLayer
 62
  256
370
   -1
100
AcDbLine
 10
30
 20
51.5
 11
35
 21
51.5
  0
LINE
  5
171
100
AcDbEntity
  8
Borders
  6
ByLayer
 62
  256
370
   -1
100
AcDbLine
 10
30
 20
51.5
 11
30
 21
56.5
  0
LINE
  5
172
100
AcDbEntity
  8
Borders
  6
ByLayer
 62
  256
370
   -1
100
AcDbLine
 10
30
 20
56.5
 11
35
 21
56.5
  0
LINE
  5
173
100
AcDbEntity
  8
Borders
  6
ByLayer
 62
  256
370
   -1
100
AcDbLine
 10
35
 20
56.5
 11
35
 21
61.5
  0
LINE
  5
174
100
AcDbEntity
  8
Borders
  6
ByLayer
 62
  256
370
   -1
100
AcDbLine
 10
35
 20
61.5
 11
30
 21
61.5
  0
LINE
  5
175
100
AcDbEntity
  8
Borders
  6
ByLayer
 62
  256
370
   -1
100
AcDbLine
 10
30
 20
61.5
 11
30
 21
66.5
  0
LINE
  5
176
100
AcDbEntity
  8
Borders
  6
ByLayer
 62
  256
370
   -1
100
AcDbLine
 10
30
 20
66.5
 11
35
 21
66.5
  0
LINE
  5
177
100
AcDbEntity
  8
Borders
  6
ByLayer
 62
  256
370
   -1
100
AcDbLine
 10
35
 20
66.5
 11
35
 21
71.5
  0
LINE
  5
178
100
AcDbEntity
  8
Borders
  6
ByLayer
 62
  256
370
   -1
100
AcDbLine
 10
35
 20
71.5
 11
30
 21
71.5
  0
LINE
  5
179
100
AcDbEntity
  8
Borders
  6
ByLayer
 62
  256
370
   -1
100
AcDbLine
 10
30
 20
71.5
 11
30
 21
76.5
  0
LINE
  5
17A
100
AcDbEntity
  8
Borders
  6
ByLayer
 62
  256
370
   -1
100
AcDbLine
 10
30
 20
76.5
 11
35
 21
76.5
  0
LINE
  5
17B
100
AcDbEntity
  8
Borders
  6
ByLayer
 62
  256
370
   -1
100
AcDbLine
 10
35
 20
76.5
 11
35
 21
81.5
  0
LINE
  5
17C
100
AcDbEntity
  8
Borders
  6
ByLayer
 62
  256
370
   -1
100
AcDbLine
 10
35
 20
81.5
 11
30
 21
81.5
  0
LINE
  5
17D
100
AcDbEntity
  8
Borders
  6
ByLayer
 62
  256
370
   -1
100
AcDbLine
 10
30
 20
81.5
 11
30
 21
86.5
  0
LINE
  5
17E
100
AcDbEntity
  8
Borders
  6
ByLayer
 62
  256
370
   -1
100
AcDbLine
 10
30
 20
86.5
 11
35
 21
86.5
  0
LINE
  5
17F
100
AcDbEntity
  8
Borders
  6
ByLayer
 62
  256
370
   -1
100
AcDbLine
 10
35
 20
86.5
 11
35
 21
91.5
  0
LINE
  5
180
100
AcDbEntity
  8
Borders
  6
ByLayer
 62
  256
370
   -1
100
AcDbLine
 10
35
 20
91.5
 11
30
 21
91.5
  0
LINE
  5
181
100
AcDbEntity
  8
Borders
  6
ByLayer
 62
  256
370
   -1
100
AcDbLine
 10
30
 20
91.5
 11
30
 21
96.5
  0
LINE
  5
182
100
AcDbEntity
  8
Borders
  6
ByLayer
 62
  256
370
   -1
100
AcDbLine
 10
30
 20
96.5
 11
35
 21
96.5
  0
LINE
  5
183
100
AcDbEntity
  8
Borders
  6
ByLayer
 62
  256
370
   -1
100
AcDbLine
 10
35
 20
96.5
 11
35
 21
101.5
  0
LINE
  5
184
100
AcDbEntity
  8
Borders
  6
ByLayer
 62
  256
370
   -1
100
AcDbLine
 10
35
 20
101.5
 11
30
 21
101.5
  0
LINE
  5
185
100
AcDbEntity
  8
Borders
  6
ByLayer
 62
  256
370
   -1
100
AcDbLine
 10
30
 20
101.5
 11
30
 21
106.5
  0
LINE
  5
186
100
AcDbEntity
  8
Borders
  6
ByLayer
 62
  256
370
   -1
100
AcDbLine
 10
30
 20
106.5
 11
35
 21
106.5
  0
LINE
  5
187
100
AcDbEntity
  8
Borders
  6
ByLayer
 62
  256
370
   -1
100
AcDbLine
 10
35
 20
106.5
 11
35
 21
111.5
  0
LINE
  5
188
100
AcDbEntity
  8
Borders
  6
ByLayer
 62
  256
370
   -1
100
AcDbLine
 10
35
 20
111.5
 11
30
 21
111.5
  0
LINE
  5
189
100
AcDbEntity
  8
Borders
  6
ByLayer
 62
  256
370
   -1
100
AcDbLine
 10
30
 20
111.5
 11
30
 21
116.5
  0
LINE
  5
18A
100
AcDbEntity
  8
Borders
  6
ByLayer
 62
  256
370
   -1
100
AcDbLine
 10
30
 20
116.5
 11
35
 21
116.5
  0
LINE
  5
18B
100
AcDbEntity
  8
Borders
  6
ByLayer
 62
  256
370
   -1
100
AcDbLine
 10
35
 20
116.5
 11
35
 21
121.5
  0
LINE
  5
18C
100
AcDbEntity
  8
Borders
  6
ByLayer
 62
  256
370
   -1
100
AcDbLine
 10
35
 20
121.5
 11
30
 21
121.5
  0
LINE
  5
18D
100
AcDbEntity
  8
Borders
  6
ByLayer
 62
  256
370
   -1
100
AcDbLine
 10
30
 20
121.5
 11
30
 21
126.5
  0
LINE
  5
18E
100
AcDbEntity
  8
Borders
  6
ByLayer
 62
  256
370
   -1
100
AcDbLine
 10
30
 20
126.5
 11
35
 21
126.5
  0
LINE
  5
18F
100
AcDbEntity
  8
Borders
  6
ByLayer
 62
  256
370
   -1
100
AcDbLine
 10
35
 20
126.5
 11
35
 21
131.5
  0
LINE
  5
190
100
AcDbEntity
  8
Borders
  6
ByLayer
 62
  256
370
   -1
100
AcDbLine
 10
35
 20
131.5
 11
30
 21
131.5
  0
LINE
  5
191
100
AcDbEntity
  8
Borders
  6
ByLayer
 62
  256
370
   -1
100
AcDbLine
 10
30
 20
131.5
 11
30
 21
136.5
  0
LINE
  5
192
100
AcDbEntity
  8
Borders
  6
ByLayer
 62
  256
370
   -1
100
AcDbLine
 10
30
 20
136.5
 11
35
 21
136.5
  0
LINE
  5
193
100
AcDbEntity
  8
Borders
  6
ByLayer
 62
  256
370
   -1
100
AcDbLine
 10
35
 20
136.5
 11
35
 21
141.5
  0
LINE
  5
194
100
AcDbEntity
  8
Borders
  6
ByLayer
 62
  256
370
   -1
100
AcDbLine
 10
35
 20
141.5
 11
30
 21
141.5
  0
LINE
  5
195
100
AcDbEntity
  8
Borders
  6
ByLayer
 62
  256
370
   -1
100
AcDbLine
 10
30
 20
141.5
 11
30
 21
146.5
  0
LINE
  5
196
100
AcDbEntity
  8
Borders
  6
ByLayer
 62
  256
370
   -1
100
AcDbLine
 10
30
 20
146.5
 11
35
 21
146.5
  0
LINE
  5
197
100
AcDbEntity
  8
Borders
  6
ByLayer
 62
  256
370
   -1
100
AcDbLine
 10
35
 20
146.5
 11
35
 21
151.5
  0
LINE
  5
198
100
AcDbEntity
  8
Borders
  6
ByLayer
 62
  256
370
   -1
100
AcDbLine
 10
35
 20
151.5
 11
30
 21
151.5
  0
LINE
  5
199
100
AcDbEntity
  8
Borders
  6
ByLayer
 62
  256
370
   -1
100
AcDbLine
 10
30
 20
151.5
 11
30
 21
156.5
  0
LINE
  5
19A
100
AcDbEntity
  8
Borders
  6
ByLayer
 62
  256
370
   -1
100
AcDbLine
 10
30
 20
156.5
 11
30
 21
158
  0
LINE
  5
19B
100
AcDbEntity
  8
Borders
  6
ByLayer
 62
  256
370
   -1
100
AcDbLine
 10
35
 20
46.5
 11
30
 21
46.5
  0
LINE
  5
19C
100
AcDbEntity
  8
Borders
  6
ByLayer
 62
  256
370
   -1
100
AcDbLine
 10
35
 20
51.5
 11
35
 21
46.5
  0
LINE
  5
19D
100
AcDbEntity
  8
0
  6
ByLayer
 62
  256
370
   -1
100
AcDbLine
 10
89
 20
18
 11
89
 21
40
  0
LINE
  5
19E
100
AcDbEntity
  8
0
  6
ByLayer
 62
  256
370
   -1
100
AcDbLine
 10
30
 20
40
 11
30
 21
18
  0
LINE
  5
19F
100
AcDbEntity
  8
0
  6
ByLayer
 62
  256
370
   -1
100
AcDbLine
 10
30
 20
18
 11
89
 21
18
  0
DIMENSION
  5
1A0
100
AcDbEntity
  8
Measurements
  6
ByLayer
 62
  256
370
   -1
100
AcDbDimension
 10
46
 20
69
 30
0
 11
44.125
 21
60
 31
0
 70
   33
 71
    5
  3
Standard
 53
0
210
0
220
0
230
1
100
AcDbAlignedDimension
 13
50
 23
51
 33
0
 14
50
 24
69
 34
0
  0
DIMENSION
  5
1A1
100
AcDbEntity
  8
Measurements
  6
ByLayer
 62
  256
370
   -1
100
AcDbDimension
 10
69.5
 20
72
 30
0
 11
59.5
 21
73.875
 31
0
 70
   33
 71
    5
  3
Standard
 53
0
210
0
220
0
230
1
100
AcDbAlignedDimension
 13
49.5
 23
69
 33
0
 14
69.5
 24
69
 34
0
  0
ELLIPSE
  5
1A2
100
AcDbEntity
  8
Measurements
  6
ByLayer
 62
  256
370
   -1
100
AcDbEllipse
 10
59.5
 20
60
 30
0
 11
-16.5476672157
 21
0
 31
0
 40
0.7967456541420002
 41
0
 42
6.283185307179586
  0
CIRCLE
  5
1A3
100
AcDbEntity
  8
Holes
  6
ByLayer
 62
  256
370
   -1
100
AcDbCircle
 10
106.5
 20
181
 40
2
  0
CIRCLE
  5
1A4
100
AcDbEntity
  8
Holes
  6
ByLayer
 62
  256
370
   -1
100
AcDbCircle
 10
133.5
 20
181
 40
2
  0
CIRCLE
  5
1A5
100
AcDbEntity
  8
Holes
  6
ByLayer
 62
  256
370
   -1
100
AcDbCircle
 10
120
 20
181
 40
6
  0
ELLIPSE
  5
1A6
100
AcDbEntity
  8
Borders
  6
ByLayer
 62
  256
370
   -1
100
AcDbEllipse
 10
120
 20
181
 30
0
 11
-16.5476672157
 21
0
 31
0
 40
0.7967456541420002
 41
0
 42
6.283185307179586
  0
LINE
  5
1A7
100
AcDbEntity
  8
Borders
  6
ByLayer
 62
  256
370
   -1
100
AcDbLine
 10
95
 20
51.5
 11
90
 21
51.5
  0
LINE
  5
1A8
100
AcDbEntity
  8
Borders
  6
ByLayer
 62
  256
370
   -1
100
AcDbLine
 10
95
 20
51.5
 11
95
 21
56.5
  0
LINE
  5
1A9
100
AcDbEntity
  8
Borders
  6
ByLayer
 62
  256
370
   -1
100
AcDbLine
 10
95
 20
56.5
 11
90
 21
56.5
  0
LINE
  5
1AA
100
AcDbEntity
  8
Borders
  6
ByLayer
 62
  256
370
   -1
100
AcDbLine
 10
90
 20
56.5
 11
90
 21
61.5
  0
LINE
  5
1AB
100
AcDbEntity
  8
Borders
  6
ByLayer
 62
  256
370
   -1
100
AcDbLine
 10
90
 20
61.5
 11
95
 21
61.5
  0
LINE
  5
1AC
100
AcDbEntity
  8
Borders
  6
ByLayer
 62
  256
370
   -1
100
AcDbLine
 10
95
 20
61.5
 11
95
 21
66.5
  0
LINE
  5
1AD
100
AcDbEntity
  8
Borders
  6
ByLayer
 62
  256
370
   -1
100
AcDbLine
 10
95
 20
66.5
 11
90
 21
66.5
  0
LINE
  5
1AE
100
AcDbEntity
  8
Borders
  6
ByLayer
 62
  256
370
   -1
100
AcDbLine
 10
90
 20
66.5
 11
90
 21
71.5
  0
LINE
  5
1AF
100
AcDbEntity
  8
Borders
  6
ByLayer
 62
  256
370
   -1
100
AcDbLine
 10
90
 20
71.5
 11
95
 21
71.5
  0
LINE
  5
1B0
100
AcDbEntity
  8
Borders
  6
ByLayer
 62
  256
370
   -1
100
AcDbLine
 10
95
 20
71.5
 11
95
 21
76.5
  0
LINE
  5
1B1
100
AcDbEntity
  8
Borders
  6
ByLayer
 62
  256
370
   -1
100
AcDbLine
 10
95
 20
76.5
 11
90
 21
76.5
  0
LINE
  5
1B2
100
AcDbEntity
  8
Borders
  6
ByLayer
 62
  256
370
   -1
100
AcDbLine
 10
90
 20
76.5
 11
90
 21
81.5
  0
LINE
  5
1B3
100
AcDbEntity
  8
Borders
  6
ByLayer
 62
  256
370
   -1
100
AcDbLine
 10
90
 20
81.5
 11
95
 21
81.5
  0
LINE
  5
1B4
100
AcDbEntity
  8
Borders
  6
ByLayer
 62
  256
370
   -1
100
AcDbLine
 10
95
 20
81.5
 11
95
 21
86.5
  0
LINE
  5
1B5
100
AcDbEntity
  8
Borders
  6
ByLayer
 62
  256
370
   -1
100
AcDbLine
 10
95
 20
86.5
 11
90
 21
86.5
  0
LINE
  5
1B6
100
AcDbEntity
  8
Borders
  6
ByLayer
 62
  256
370
   -1
100
AcDbLine
 10
90
 20
86.5
 11
90
 21
91.5
  0
LINE
  5
1B7
100
AcDbEntity
  8
Borders
  6
ByLayer
 62
  256
370
   -1
100
AcDbLine
 10
90
 20
91.5
 11
95
 21
91.5
  0
LINE
  5
1B8
100
AcDbEntity
  8
Borders
  6
ByLayer
 62
  256
370
   -1
100
AcDbLine
 10
95
 20
91.5
 11
95
 21
96.5
  0
LINE
  5
1B9
100
AcDbEntity
  8
Borders
  6
ByLayer
 62
  256
370
   -1
100
AcDbLine
 10
95
 20
96.5
 11
90
 21
96.5
  0
LINE
  5
1BA
100
AcDbEntity
  8
Borders
  6
ByLayer
 62
  256
370
   -1
100
AcDbLine
 10
90
 20
96.5
 11
90
 21
101.5
  0
LINE
  5
1BB
100
AcDbEntity
  8
Borders
  6
ByLayer
 62
  256
370
   -1
100
AcDbLine
 10
90
 20
101.5
 11
95
 21
101.5
  0
LINE
  5
1BC
100
AcDbEntity
  8
Borders
  6
ByLayer
 62
  256
370
   -1
100
AcDbLine
 10
95
 20
101.5
 11
95
 21
106.5
  0
LINE
  5
1BD
100
AcDbEntity
  8
Borders
  6
ByLayer
 62
  256
370
   -1
100
AcDbLine
 10
95
 20
106.5
 11
90
 21
106.5
  0
LINE
  5
1BE
100
AcDbEntity
  8
Borders
  6
ByLayer
 62
  256
370
   -1
100
AcDbLine
 10
90
 20
106.5
 11
90
 21
111.5
  0
LINE
  5
1BF
100
AcDbEntity
  8
Borders
  6
ByLayer
 62
  256
370
   -1
100
AcDbLine
 10
90
 20
111.5
 11
95
 21
111.5
  0
LINE
  5
1C0
100
AcDbEntity
  8
Borders
  6
ByLayer
 62
  256
370
   -1
100
AcDbLine
 10
95
 20
111.5
 11
95
 21
116.5
  0
LINE
  5
1C1
100
AcDbEntity
  8
Borders
  6
ByLayer
 62
  256
370
   -1
100
AcDbLine
 10
95
 20
116.5
 11
90
 21
116.5
  0
LINE
  5
1C2
100
AcDbEntity
  8
Borders
  6
ByLayer
 62
  256
370
   -1
100
AcDbLine
 10
90
 20
116.5
 11
90
 21
121.5
  0
LINE
  5
1C3
100
AcDbEntity
  8
Borders
  6
ByLayer
 62
  256
370
   -1
100
AcDbLine
 10
90
 20
121.5
 11
95
 21
121.5
  0
LINE
  5
1C4
100
AcDbEntity
  8
Borders
  6
ByLayer
 62
  256
370
   -1
100
AcDbLine
 10
95
 20
121.5
 11
95
 21
126.5
  0
LINE
  5
1C5
100
AcDbEntity
  8
Borders
  6
ByLayer
 62
  256
370
   -1
100
AcDbLine
 10
95
 20
126.5
 11
90
 21
126.5
  0
LINE
  5
1C6
100
AcDbEntity
  8
Borders
  6
ByLayer
 62
  256
370
   -1
100
AcDbLine
 10
90
 20
126.5
 11
90
 21
131.5
  0
LINE
  5
1C7
100
AcDbEntity
  8
Borders
  6
ByLayer
 62
  256
370
   -1
100
AcDbLine
 10
90
 20
131.5
 11
95
 21
131.5
  0
LINE
  5
1C8
100
AcDbEntity
  8
Borders
  6
ByLayer
 62
  256
370
   -1
100
AcDbLine
 10
95
 20
131.5
 11
95
 21
136.5
  0
LINE
  5
1C9
100
AcDbEntity
  8
Borders
  6
ByLayer
 62
  256
370
   -1
100
AcDbLine
 10
95
 20
136.5
 11
90
 21
136.5
  0
LINE
  5
1CA
100
AcDbEntity
  8
Borders
  6
ByLayer
 62
  256
370
   -1
100
AcDbLine
 10
90
 20
136.5
 11
90
 21
141.5
  0
LINE
  5
1CB
100
AcDbEntity
  8
Borders
  6
ByLayer
 62
  256
370
   -1
100
AcDbLine
 10
90
 20
141.5
 11
95
 21
141.5
  0
LINE
  5
1CC
100
AcDbEntity
  8
Borders
  6
ByLayer
 62
  256
370
   -1
100
AcDbLine
 10
95
 20
141.5
 11
95
 21
146.5
  0
LINE
  5
1CD
100
AcDbEntity
  8
Borders
  6
ByLayer
 62
  256
370
   -1
100
AcDbLine
 10
95
 20
146.5
 11
90
 21
146.5
  0
LINE
  5
1CE
100
AcDbEntity
  8
Borders
  6
ByLayer
 62
  256
370
   -1
100
AcDbLine
 10
90
 20
146.5
 11
90
 21
151.5
  0
LINE
  5
1CF
100
AcDbEntity
  8
Borders
  6
ByLayer
 62
  256
370
   -1
100
AcDbLine
 10
90
 20
151.5
 11
95
 21
151.5
  0
LINE
  5
1D0
100
AcDbEntity
  8
Borders
  6
ByLayer
 62
  256
370
   -1
100
AcDbLine
 10
95
 20
151.5
 11
95
 21
156.5
  0
LINE
  5
1D1
100
AcDbEntity
  8
Borders
  6
ByLayer
 62
  256
370
   -1
100
AcDbLine
 10
95
 20
156.5
 11
95
 21
158
  0
LINE
  5
1D2
100
AcDbEntity
  8
Borders
  6
ByLayer
 62
  256
370
   -1
100
AcDbLine
 10
90
 20
46.5
 11
95
 21
46.5
  0
LINE
  5
1D3
100
AcDbEntity
  8
Borders
  6
ByLayer
 62
  256
370
   -1
100
AcDbLine
 10
95
 20
46.5
 11
95.0949515817
 21
40
  0
LINE
  5
1D4
100
AcDbEntity
  8
Borders
  6
ByLayer
 62
  256
370
   -1
100
AcDbLine
 10
90
 20
51.5
 11
90
 21
46.5
  0
CIRCLE
  5
1D5
100
AcDbEntity
  8
Holes
  6
ByLayer
 62
  256
370
   -1
100
AcDbCircle
 10
62.5
 20
148
 40
3.25
  0
CIRCLE
  5
1D6
100
AcDbEntity
  8
Holes
  6
ByLayer
 62
  256
370
   -1
100
AcDbCircle
 10
62.5
 20
123
 40
3.75
  0
LINE
  5
1D7
100
AcDbEntity
  8
Holes
  6
ByLayer
 62
  256
370
   -1
100
AcDbLine
 10
52.5
 20
69
 11
72.5
 21
69
  0
LINE
  5
1D8
100
AcDbEntity
  8
Holes
  6
ByLayer
 62
  256
370
   -1
100
AcDbLine
 10
72.5
 20
69
 11
72.5
 21
51
  0
LINE
  5
1D9
100
AcDbEntity
  8
Holes
  6
ByLayer
 62
  256
370
   -1
100
AcDbLine
 10
72.5
 20
51
 11
52.5
 21
51
  0
LINE
  5
1DA
100
AcDbEntity
  8
Holes
  6
ByLayer
 62
  256
370
   -1
100
AcDbLine
 10
52.5
 20
51
 11
52.5
 21
69
  0
CIRCLE
  5
1DB
100
AcDbEntity
  8
Holes
  6
ByLayer
 62
  256
370
   -1
100
AcDbCircle
 10
49
 20
60
 40
2
  0
CIRCLE
  5
1DC
100
AcDbEntity
  8
Holes
  6
ByLayer
 62
  256
370
   -1
100
AcDbCircle
 10
76
 20
60
 40
2
  0
MTEXT
  5
1DD
100
AcDbEntity
  8
Text
  6
ByLayer
 62
  256
370
   -1
100
AcDbMText
 10
42.02692315550001
 20
102.844714265
 30
0
 40
3
 41
15
 71
    5
 72
    1
  1
OUTPUT
  7
standard
210
0
220
0
230
1
 50
270
 73
    2
 44
1
  0
MTEXT
  5
1DE
100
AcDbEntity
  8
Text
  6
ByLayer
 62
  256
370
   -1
100
AcDbMText
 10
82.5
 20
103.777777778
 30
0
 40
3
 41
10.66666666666667
 71
    5
 72
    1
  1
INPUT
  7
standard
210
0
220
0
230
1
 50
90
 73
    2
 44
1
  0
CIRCLE
  5
1DF
100
AcDbEntity
  8
Holes
  6
ByLayer
 62
  256
370
   -1
100
AcDbCircle
 10
47
 20
138
 40
3.75
  0
CIRCLE
  5
1E0
100
AcDbEntity
  8
Holes
  6
ByLayer
 62
  256
370
   -1
100
AcDbCircle
 10
78
 20
138
 40
3.75
  0
MTEXT
  5
1E1
100
AcDbEntity
  8
Text
  6
ByLayer
 62
  256
370
   -1
100
AcDbMText
 10
47.316227766
 20
124.448683298
 30
0
 40
3
 41
8.33333333333352
 71
    5
 72
    1
  1
GAIN
  7
standard
210
0
220
0
230
1
 50
0
 73
    2
 44
1
  0
MTEXT
  5
1E2
100
AcDbEntity
  8
Text
  6
ByLayer
 62
  256
370
   -1
100
AcDbMText
 10
77.90000000000001
 20
124.4
 30
0
 40
3
 41
9.333333333333332
 71
    5
 72
    1
  1
TONE
  7
standard
210
0
220
0
230
1
 50
0
 73
    2
 44
1
  0
MTEXT
  5
1E3
100
AcDbEntity
  8
Text
  6
ByLayer
 62
  256
370
   -1
100
AcDbMText
 10
63
 20
112
 30
0
 40
3
 41
11.33333333333333
 71
    5
 72
    1
  1
LEVEL
  7
standard
210
0
220
0
230
1
 50
0
 73
    2
 44
1
  0
LINE
  5
1E4
100
AcDbEntity
  8
Borders
  6
ByLayer
 62
  256
370
   -1
100
AcDbLine
 10
8
 20
51.5
 11
3
 21
51.5
  0
LINE
  5
1E5
100
AcDbEntity
  8
Borders
  6
ByLayer
 62
  256
370
   -1
100
AcDbLine
 10
8
 20
51.5
 11
8
 21
56.5
  0
LINE
  5
1E6
100
AcDbEntity
  8
Borders
  6
ByLayer
 62
  256
370
   -1
100
AcDbLine
 10
8
 20
56.5
 11
3
 21
56.5
  0
LINE
  5
1E7
100
AcDbEntity
  8
Borders
  6
ByLayer
 62
  256
370
   -1
100
AcDbLine
 10
3
 20
56.5
 11
3
 21
61.5
  0
LINE
  5
1E8
100
AcDbEntity
  8
Borders
  6
ByLayer
 62
  256
370
   -1
100
AcDbLine
 10
3
 20
61.5
 11
8
 21
61.5
  0
LINE
  5
1E9
100
AcDbEntity
  8
Borders
  6
ByLayer
 62
  256
370
   -1
100
AcDbLine
 10
8
 20
61.5
 11
8
 21
66.5
  0
LINE
  5
1EA
100
AcDbEntity
  8
Borders
  6
ByLayer
 62
  256
370
   -1
100
AcDbLine
 10
8
 20
66.5
 11
3
 21
66.5
  0
LINE
  5
1EB
100
AcDbEntity
  8
Borders
  6
ByLayer
 62
  256
370
   -1
100
AcDbLine
 10
3
 20
66.5
 11
3
 21
71.5
  0
LINE
  5
1EC
100
AcDbEntity
  8
Borders
  6
ByLayer
 62
  256
370
   -1
100
AcDbLine
 10
3
 20
71.5
 11
8
 21
71.5
  0
LINE
  5
1ED
100
AcDbEntity
  8
Borders
  6
ByLayer
 62
  256
370
   -1
100
AcDbLine
 10
8
 20
71.5
 11
8
 21
76.5
  0
LINE
  5
1EE
100
AcDbEntity
  8
Borders
  6
ByLayer
 62
  256
370
   -1
100
AcDbLine
 10
8
 20
76.5
 11
3
 21
76.5
  0
LINE
  5
1EF
100
AcDbEntity
  8
Borders
  6
ByLayer
 62
  256
370
   -1
100
AcDbLine
 10
3
 20
76.5
 11
3
 21
81.5
  0
LINE
  5
1F0
100
AcDbEntity
  8
Borders
  6
ByLayer
 62
  256
370
   -1
100
AcDbLine
 10
3
 20
81.5
 11
8
 21
81.5
  0
LINE
  5
1F1
100
AcDbEntity
  8
Borders
  6
ByLayer
 62
  256
370
   -1
100
AcDbLine
 10
8
 20
81.5
 11
8
 21
86.5
  0
LINE
  5
1F2
100
AcDbEntity
  8
Borders
  6
ByLayer
 62
  256
370
   -1
100
AcDbLine
 10
8
 20
86.5
 11
3
 21
86.5
  0
LINE
  5
1F3
100
AcDbEntity
  8
Borders
  6
ByLayer
 62
  256
370
   -1
100
AcDbLine
 10
3
 20
86.5
 11
3
 21
91.5
  0
LINE
  5
1F4
100
AcDbEntity
  8
Borders
  6
ByLayer
 62
  256
370
   -1
100
AcDbLine
 10
3
 20
91.5
 11
8
 21
91.5
  0
LINE
  5
1F5
100
AcDbEntity
  8
Borders
  6
ByLayer
 62
  256
370
   -1
100
AcDbLine
 10
8
 20
91.5
 11
8
 21
96.5
  0
LINE
  5
1F6
100
AcDbEntity
  8
Borders
  6
ByLayer
 62
  256
370
   -1
100
AcDbLine
 10
8
 20
96.5
 11
3
 21
96.5
  0
LINE
  5
1F7
100
AcDbEntity
  8
Borders
  6
ByLayer
 62
  256
370
   -1
100
AcDbLine
 10
3
 20
96.5
 11
3
 21
101.5
  0
LINE
  5
1F8
100
AcDbEntity
  8
Borders
  6
ByLayer
 62
  256
370
   -1
100
AcDbLine
 10
3
 20
101.5
 11
8
 21
101.5
  0
LINE
  5
1F9
100
AcDbEntity
  8
Borders
  6
ByLayer
 62
  256
370
   -1
100
AcDbLine
 10
8
 20
101.5
 11
8
 21
106.5
  0
LINE
  5
1FA
100
AcDbEntity
  8
Borders
  6
ByLayer
 62
  256
370
   -1
100
AcDbLine
 10
8
 20
106.5
 11
3
 21
106.5
  0
LINE
  5
1FB
100
AcDbEntity
  8
Borders
  6
ByLayer
 62
  256
370
   -1
100
AcDbLine
 10
3
 20
106.5
 11
3
 21
111.5
  0
LINE
  5
1FC
100
AcDbEntity
  8
Borders
  6
ByLayer
 62
  256
370
   -1
100
AcDbLine
 10
3
 20
111.5
 11
8
 21
111.5
  0
LINE
  5
1FD
100
AcDbEntity
  8
Borders
  6
ByLayer
 62
  256
370
   -1
100
AcDbLine
 10
8
 20
111.5
 11
8
 21
116.5
  0
LINE
  5
1FE
100
AcDbEntity
  8
Borders
  6
ByLayer
 62
  256
370
   -1
100
AcDbLine
 10
8
 20
116.5
 11
3
 21
116.5
  0
LINE
  5
1FF
100
AcDbEntity
  8
Borders
  6
ByLayer
 62
  256
370
   -1
100
AcDbLine
 10
3
 20
116.5
 11
3
 21
121.5
  0
LINE
  5
200
100
AcDbEntity
  8
Borders
  6
ByLayer
 62
  256
370
   -1
100
AcDbLine
 10
3
 20
121.5
 11
8
 21
121.5
  0
LINE
  5
201
100
AcDbEntity
  8
Borders
  6
ByLayer
 62
  256
370
   -1
100
AcDbLine
 10
8
 20
121.5
 11
8
 21
126.5
  0
LINE
  5
202
100
AcDbEntity
  8
Borders
  6
ByLayer
 62
  256
370
   -1
100
AcDbLine
 10
8
 20
126.5
 11
3
 21
126.5
  0
LINE
  5
203
100
AcDbEntity
  8
Borders
  6
ByLayer
 62
  256
370
   -1
100
AcDbLine
 10
3
 20
126.5
 11
3
 21
131.5
  0
LINE
  5
204
100
AcDbEntity
  8
Borders
  6
ByLayer
 62
  256
370
   -1
100
AcDbLine
 10
3
 20
131.5
 11
8
 21
131.5
  0
LINE
  5
205
100
AcDbEntity
  8
Borders
  6
ByLayer
 62
  256
370
   -1
100
AcDbLine
 10
8
 20
131.5
 11
8
 21
136.5
  0
LINE
  5
206
100
AcDbEntity
  8
Borders
  6
ByLayer
 62
  256
370
   -1
100
AcDbLine
 10
8
 20
136.5
 11
3
 21
136.5
  0
LINE
  5
207
100
AcDbEntity
  8
Borders
  6
ByLayer
 62
  256
370
   -1
100
AcDbLine
 10
3
 20
136.5
 11
3
 21
141.5
  0
LINE
  5
208
100
AcDbEntity
  8
Borders
  6
ByLayer
 62
  256
370
   -1
100
AcDbLine
 10
3
 20
141.5
 11
8
 21
141.5
  0
LINE
  5
209
100
AcDbEntity
  8
Borders
  6
ByLayer
 62
  256
370
   -1
100
AcDbLine
 10
8
 20
141.5
 11
8
 21
146.5
  0
LINE
  5
20A
100
AcDbEntity
  8
Borders
  6
ByLayer
 62
  256
370
   -1
100
AcDbLine
 10
8
 20
146.5
 11
3
 21
146.5
  0
LINE
  5
20B
100
AcDbEntity
  8
Borders
  6
ByLayer
 62
  256
370
   -1
100
AcDbLine
 10
3
 20
146.5
 11
3
 21
151.5
  0
LINE
  5
20C
100
AcDbEntity
  8
Borders
  6
ByLayer
 62
  256
370
   -1
100
AcDbLine
 10
3
 20
151.5
 11
8
 21
151.5
  0
LINE
  5
20D
100
AcDbEntity
  8
Borders
  6
ByLayer
 62
  256
370
   -1
100
AcDbLine
 10
3
 20
46.5
 11
8
 21
46.5
  0
LINE
  5
20E
100
AcDbEntity
  8
Borders
  6
ByLayer
 62
  256
370
   -1
100
AcDbLine
 10
3
 20
51.5
 11
3
 21
46.5
  0
LINE
  5
20F
100
AcDbEntity
  8
Borders
  6
ByLayer
 62
  256
370
   -1
100
AcDbLine
 10
8
 20
46.5
 11
8
 21
45
  0
LINE
  5
210
100
AcDbEntity
  8
Borders
  6
ByLayer
 62
  256
370
   -1
100
AcDbLine
 10
8
 20
151.5
 11
8
 21
153
  0
LINE
  5
211
100
AcDbEntity
  8
Borders
  6
ByLayer
 62
  256
370
   -1
100
AcDbLine
 10
117
 20
51.5
 11
122
 21
51.5
  0
LINE
  5
212
100
AcDbEntity
  8
Borders
  6
ByLayer
 62
  256
370
   -1
100
AcDbLine
 10
117
 20
51.5
 11
117
 21
56.5
  0
LINE
  5
213
100
AcDbEntity
  8
Borders
  6
ByLayer
 62
  256
370
   -1
100
AcDbLine
 10
117
 20
56.5
 11
122
 21
56.5
  0
LINE
  5
214
100
AcDbEntity
  8
Borders
  6
ByLayer
 62
  256
370
   -1
100
AcDbLine
 10
122
 20
56.5
 11
122
 21
61.5
  0
LINE
  5
215
100
AcDbEntity
  8
Borders
  6
ByLayer
 62
  256
370
   -1
100
AcDbLine
 10
122
 20
61.5
 11
117
 21
61.5
  0
LINE
  5
216
100
AcDbEntity
  8
Borders
  6
ByLayer
 62
  256
370
   -1
100
AcDbLine
 10
117
 20
61.5
 11
117
 21
66.5
  0
LINE
  5
217
100
AcDbEntity
  8
Borders
  6
ByLayer
 62
  256
370
   -1
100
AcDbLine
 10
117
 20
66.5
 11
122
 21
66.5
  0
LINE
  5
218
100
AcDbEntity
  8
Borders
  6
ByLayer
 62
  256
370
   -1
100
AcDbLine
 10
122
 20
66.5
 11
122
 21
71.5
  0
LINE
  5
219
100
AcDbEntity
  8
Borders
  6
ByLayer
 62
  256
370
   -1
100
AcDbLine
 10
122
 20
71.5
 11
117
 21
71.5
  0
LINE
  5
21A
100
AcDbEntity
  8
Borders
  6
ByLayer
 62
  256
370
   -1
100
AcDbLine
 10
117
 20
71.5
 11
117
 21
76.5
  0
LINE
  5
21B
100
AcDbEntity
  8
Borders
  6
ByLayer
 62
  256
370
   -1
100
AcDbLine
 10
117
 20
76.5
 11
122
 21
76.5
  0
LINE
  5
21C
100
AcDbEntity
  8
Borders
  6
ByLayer
 62
  256
370
   -1
100
AcDbLine
 10
122
 20
76.5
 11
122
 21
81.5
  0
LINE
  5
21D
100
AcDbEntity
  8
Borders
  6
ByLayer
 62
  256
370
   -1
100
AcDbLine
 10
122
 20
81.5
 11
117
 21
81.5
  0
LINE
  5
21E
100
AcDbEntity
  8
Borders
  6
ByLayer
 62
  256
370
   -1
100
AcDbLine
 10
117
 20
81.5
 11
117
 21
86.5
  0
LINE
  5
21F
100
AcDbEntity
  8
Borders
  6
ByLayer
 62
  256
370
   -1
100
AcDbLine
 10
117
 20
86.5
 11
122
 21
86.5
  0
LINE
  5
220
100
AcDbEntity
  8
Borders
  6
ByLayer
 62
  256
370
   -1
100
AcDbLine
 10
122
 20
86.5
 11
122
 21
91.5
  0
LINE
  5
221
100
AcDbEntity
  8
Borders
  6
ByLayer
 62
  256
370
   -1
100
AcDbLine
 10
122
 20
91.5
 11
117
 21
91.5
  0
LINE
  5
222
100
AcDbEntity
  8
Borders
  6
ByLayer
 62
  256
370
   -1
100
AcDbLine
 10
117
 20
91.5
 11
117
 21
96.5
  0
LINE
  5
223
100
AcDbEntity
  8
Borders
  6
ByLayer
 62
  256
370
   -1
100
AcDbLine
 10
117
 20
96.5
 11
122
 21
96.5
  0
LINE
  5
224
100
AcDbEntity
  8
Borders
  6
ByLayer
 62
  256
370
   -1
100
AcDbLine
 10
122
 20
96.5
 11
122
 21
101.5
  0
LINE
  5
225
100
AcDbEntity
  8
Borders
  6
ByLayer
 62
  256
370
   -1
100
AcDbLine
 10
122
 20
101.5
 11
117
 21
101.5
  0
LINE
  5
226
100
AcDbEntity
  8
Borders
  6
ByLayer
 62
  256
370
   -1
100
AcDbLine
 10
117
 20
101.5
 11
117
 21
106.5
  0
LINE
  5
227
100
AcDbEntity
  8
Borders
  6
ByLayer
 62
  256
370
   -1
100
AcDbLine
 10
117
 20
106.5
 11
122
 21
106.5
  0
LINE
  5
228
100
AcDbEntity
  8
Borders
  6
ByLayer
 62
  256
370
   -1
100
AcDbLine
 10
122
 20
106.5
 11
122
 21
111.5
  0
LINE
  5
229
100
AcDbEntity
  8
Borders
  6
ByLayer
 62
  256
370
   -1
100
AcDbLine
 10
122
 20
111.5
 11
117
 21
111.5
  0
LINE
  5
22A
100
AcDbEntity
  8
Borders
  6
ByLayer
 62
  256
370
   -1
100
AcDbLine
 10
117
 20
111.5
 11
117
 21
116.5
  0
LINE
  5
22B
100
AcDbEntity
  8
Borders
  6
ByLayer
 62
  256
370
   -1
100
AcDbLine
 10
117
 20
116.5
 11
122
 21
116.5
  0
LINE
  5
22C
100
AcDbEntity
  8
Borders
  6
ByLayer
 62
  256
370
   -1
100
AcDbLine
 10
122
 20
116.5
 11
122
 21
121.5
  0
LINE
  5
22D
100
AcDbEntity
  8
Borders
  6
ByLayer
 62
  256
370
   -1
100
AcDbLine
 10
122
 20
121.5
 11
117
 21
121.5
  0
LINE
  5
22E
100
AcDbEntity
  8
Borders
  6
ByLayer
 62
  256
370
   -1
100
AcDbLine
 10
117
 20
121.5
 11
117
 21
126.5
  0
LINE
  5
22F
100
AcDbEntity
  8
Borders
  6
ByLayer
 62
  256
370
   -1
100
AcDbLine
 10
117
 20
126.5
 11
122
 21
126.5
  0
LINE
  5
230
100
AcDbEntity
  8
Borders
  6
ByLayer
 62
  256
370
   -1
100
AcDbLine
 10
122
 20
126.5
 11
122
 21
131.5
  0
LINE
  5
231
100
AcDbEntity
  8
Borders
  6
ByLayer
 62
  256
370
   -1
100
AcDbLine
 10
122
 20
131.5
 11
117
 21
131.5
  0
LINE
  5
232
100
AcDbEntity
  8
Borders
  6
ByLayer
 62
  256
370
   -1
100
AcDbLine
 10
117
 20
131.5
 11
117
 21
136.5
  0
LINE
  5
233
100
AcDbEntity
  8
Borders
  6
ByLayer
 62
  256
370
   -1
100
AcDbLine
 10
117
 20
136.5
 11
122
 21
136.5
  0
LINE
  5
234
100
AcDbEntity
  8
Borders
  6
ByLayer
 62
  256
370
   -1
100
AcDbLine
 10
122
 20
136.5
 11
122
 21
141.5
  0
LINE
  5
235
100
AcDbEntity
  8
Borders
  6
ByLayer
 62
  256
370
   -1
100
AcDbLine
 10
122
 20
141.5
 11
117
 21
141.5
  0
LINE
  5
236
100
AcDbEntity
  8
Borders
  6
ByLayer
 62
  256
370
   -1
100
AcDbLine
 10
117
 20
141.5
 11
117
 21
146.5
  0
LINE
  5
237
100
AcDbEntity
  8
Borders
  6
ByLayer
 62
  256
370
   -1
100
AcDbLine
 10
117
 20
146.5
 11
122
 21
146.5
  0
LINE
  5
238
100
AcDbEntity
  8
Borders
  6
ByLayer
 62
  256
370
   -1
100
AcDbLine
 10
122
 20
146.5
 11
122
 21
151.5
  0
LINE
  5
239
100
AcDbEntity
  8
Borders
  6
ByLayer
 62
  256
370
   -1
100
AcDbLine
 10
122
 20
151.5
 11
117
 21
151.5
  0
LINE
  5
23A
100
AcDbEntity
  8
Borders
  6
ByLayer
 62
  256
370
   -1
100
AcDbLine
 10
122
 20
46.5
 11
117
 21
46.5
  0
LINE
  5
23B
100
AcDbEntity
  8
Borders
  6
ByLayer
 62
  256
370
   -1
100
AcDbLine
 10
117
 20
46.5
 11
116.905048418
 21
40
  0
LINE
  5
23C
100
AcDbEntity
  8
Borders
  6
ByLayer
 62
  256
370
   -1
100
AcDbLine
 10
122
 20
51.5
 11
122
 21
46.5
  0
LINE
  5
23D
100
AcDbEntity
  8
Borders
  6
ByLayer
 62
  256
370
   -1
100
AcDbLine
 10
117
 20
151.5
 11
117
 21
158
  0
LINE
  5
23E
100
AcDbEntity
  8
Borders
  6
ByLayer
 62
  256
370
   -1
100
AcDbLine
 10
182
 20
51.5
 11
177
 21
51.5
  0
LINE
  5
23F
100
AcDbEntity
  8
Borders
  6
ByLayer
 62
  256
370
   -1
100
AcDbLine
 10
182
 20
51.5
 11
182
 21
56.5
  0
LINE
  5
240
100
AcDbEntity
  8
Borders
  6
ByLayer
 62
  256
370
   -1
100
AcDbLine
 10
182
 20
56.5
 11
177
 21
56.5
  0
LINE
  5
241
100
AcDbEntity
  8
Borders
  6
ByLayer
 62
  256
370
   -1
100
AcDbLine
 10
177
 20
56.5
 11
177
 21
61.5
  0
LINE
  5
242
100
AcDbEntity
  8
Borders
  6
ByLayer
 62
  256
370
   -1
100
AcDbLine
 10
177
 20
61.5
 11
182
 21
61.5
  0
LINE
  5
243
100
AcDbEntity
  8
Borders
  6
ByLayer
 62
  256
370
   -1
100
AcDbLine
 10
182
 20
61.5
 11
182
 21
66.5
  0
LINE
  5
244
100
AcDbEntity
  8
Borders
  6
ByLayer
 62
  256
370
   -1
100
AcDbLine
 10
182
 20
66.5
 11
177
 21
66.5
  0
LINE
  5
245
100
AcDbEntity
  8
Borders
  6
ByLayer
 62
  256
370
   -1
100
AcDbLine
 10
177
 20
66.5
 11
177
 21
71.5
  0
LINE
  5
246
100
AcDbEntity
  8
Borders
  6
ByLayer
 62
  256
370
   -1
100
AcDbLine
 10
177
 20
71.5
 11
182
 21
71.5
  0
LINE
  5
247
100
AcDbEntity
  8
Borders
  6
ByLayer
 62
  256
370
   -1
100
AcDbLine
 10
182
 20
71.5
 11
182
 21
76.5
  0
LINE
  5
248
100
AcDbEntity
  8
Borders
  6
ByLayer
 62
  256
370
   -1
100
AcDbLine
 10
182
 20
76.5
 11
177
 21
76.5
  0
LINE
  5
249
100
AcDbEntity
  8
Borders
  6
ByLayer
 62
  256
370
   -1
100
AcDbLine
 10
177
 20
76.5
 11
177
 21
81.5
  0
LINE
  5
24A
100
AcDbEntity
  8
Borders
  6
ByLayer
 62
  256
370
   -1
100
AcDbLine
 10
177
 20
81.5
 11
182
 21
81.5
  0
LINE
  5
24B
100
AcDbEntity
  8
Borders
  6
ByLayer
 62
  256
370
   -1
100
AcDbLine
 10
182
 20
81.5
 11
182
 21
86.5
  0
LINE
  5
24C
100
AcDbEntity
  8
Borders
  6
ByLayer
 62
  256
370
   -1
100
AcDbLine
 10
182
 20
86.5
 11
177
 21
86.5
  0
LINE
  5
24D
100
AcDbEntity
  8
Borders
  6
ByLayer
 62
  256
370
   -1
100
AcDbLine
 10
177
 20
86.5
 11
177
 21
91.5
  0
LINE
  5
24E
100
AcDbEntity
  8
Borders
  6
ByLayer
 62
  256
370
   -1
100
AcDbLine
 10
177
 20
91.5
 11
182
 21
91.5
  0
LINE
  5
24F
100
AcDbEntity
  8
Borders
  6
ByLayer
 62
  256
370
   -1
100
AcDbLine
 10
182
 20
91.5
 11
182
 21
96.5
  0
LINE
  5
250
100
AcDbEntity
  8
Borders
  6
ByLayer
 62
  256
370
   -1
100
AcDbLine
 10
182
 20
96.5
 11
177
 21
96.5
  0
LINE
  5
251
100
AcDbEntity
  8
Borders
  6
ByLayer
 62
  256
370
   -1
100
AcDbLine
 10
177
 20
96.5
 11
177
 21
101.5
  0
LINE
  5
252
100
AcDbEntity
  8
Borders
  6
ByLayer
 62
  256
370
   -1
100
AcDbLine
 10
177
 20
101.5
 11
182
 21
101.5
  0
LINE
  5
253
100
AcDbEntity
  8
Borders
  6
ByLayer
 62
  256
370
   -1
100
AcDbLine
 10
182
 20
101.5
 11
182
 21
106.5
  0
LINE
  5
254
100
AcDbEntity
  8
Borders
  6
ByLayer
 62
  256
370
   -1
100
AcDbLine
 10
182
 20
106.5
 11
177
 21
106.5
  0
LINE
  5
255
100
AcDbEntity
  8
Borders
  6
ByLayer
 62
  256
370
   -1
100
AcDbLine
 10
177
 20
106.5
 11
177
 21
111.5
  0
LINE
  5
256
100
AcDbEntity
  8
Borders
  6
ByLayer
 62
  256
370
   -1
100
AcDbLine
 10
177
 20
111.5
 11
182
 21
111.5
  0
LINE
  5
257
100
AcDbEntity
  8
Borders
  6
ByLayer
 62
  256
370
   -1
100
AcDbLine
 10
182
 20
111.5
 11
182
 21
116.5
  0
LINE
  5
258
100
AcDbEntity
  8
Borders
  6
ByLayer
 62
  256
370
   -1
100
AcDbLine
 10
182
 20
116.5
 11
177
 21
116.5
  0
LINE
  5
259
100
AcDbEntity
  8
Borders
  6
ByLayer
 62
  256
370
   -1
100
AcDbLine
 10
177
 20
116.5
 11
177
 21
121.5
  0
LINE
  5
25A
100
AcDbEntity
  8
Borders
  6
ByLayer
 62
  256
370
   -1
100
AcDbLine
 10
177
 20
121.5
 11
182
 21
121.5
  0
LINE
  5
25B
100
AcDbEntity
  8
Borders
  6
ByLayer
 62
  256
370
   -1
100
AcDbLine
 10
182
 20
121.5
 11
182
 21
126.5
  0
LINE
  5
25C
100
AcDbEntity
  8
Borders
  6
ByLayer
 62
  256
370
   -1
100
AcDbLine
 10
182
 20
126.5
 11
177
 21
126.5
  0
LINE
  5
25D
100
AcDbEntity
  8
Borders
  6
ByLayer
 62
  256
370
   -1
100
AcDbLine
 10
177
 20
126.5
 11
177
 21
131.5
  0
LINE
  5
25E
100
AcDbEntity
  8
Borders
  6
ByLayer
 62
  256
370
   -1
100
AcDbLine
 10
177
 20
131.5
 11
182
 21
131.5
  0
LINE
  5
25F
100
AcDbEntity
  8
Borders
  6
ByLayer
 62
  256
370
   -1
100
AcDbLine
 10
182
 20
131.5
 11
182
 21
136.5
  0
LINE
  5
260
100
AcDbEntity
  8
Borders
  6
ByLayer
 62
  256
370
   -1
100
AcDbLine
 10
182
 20
136.5
 11
177
 21
136.5
  0
LINE
  5
261
100
AcDbEntity
  8
Borders
  6
ByLayer
 62
  256
370
   -1
100
AcDbLine
 10
177
 20
136.5
 11
177
 21
141.5
  0
LINE
  5
262
100
AcDbEntity
  8
Borders
  6
ByLayer
 62
  256
370
   -1
100
AcDbLine
 10
177
 20
141.5
 11
182
 21
141.5
  0
LINE
  5
263
100
AcDbEntity
  8
Borders
  6
ByLayer
 62
  256
370
   -1
100
AcDbLine
 10
182
 20
141.5
 11
182
 21
146.5
  0
LINE
  5
264
100
AcDbEntity
  8
Borders
  6
ByLayer
 62
  256
370
   -1
100
AcDbLine
 10
182
 20
146.5
 11
177
 21
146.5
  0
LINE
  5
265
100
AcDbEntity
  8
Borders
  6
ByLayer
 62
  256
370
   -1
100
AcDbLine
 10
177
 20
146.5
 11
177
 21
151.5
  0
LINE
  5
266
100
AcDbEntity
  8
Borders
  6
ByLayer
 62
  256
370
   -1
100
AcDbLine
 10
177
 20
151.5
 11
182
 21
151.5
  0
LINE
  5
267
100
AcDbEntity
  8
Borders
  6
ByLayer
 62
  256
370
   -1
100
AcDbLine
 10
182
 20
151.5
 11
182
 21
156.5
  0
LINE
  5
268
100
AcDbEntity
  8
Borders
  6
ByLayer
 62
  256
370
   -1
100
AcDbLine
 10
182
 20
156.5
 11
182
 21
158
  0
LINE
  5
269
100
AcDbEntity
  8
Borders
  6
ByLayer
 62
  256
370
   -1
100
AcDbLine
 10
177
 20
46.5
 11
182
 21
46.5
  0
LINE
  5
26A
100
AcDbEntity
  8
Borders
  6
ByLayer
 62
  256
370
   -1
100
AcDbLine
 10
182
 20
46.5
 11
182.094951582
 21
40
  0
LINE
  5
26B
100
AcDbEntity
  8
Borders
  6
ByLayer
 62
  256
370
   -1
100
AcDbLine
 10
177
 20
51.5
 11
177
 21
46.5
  0
CIRCLE
  5
26C
100
AcDbEntity
  8
Holes
  6
ByLayer
 62
  256
370
   -1
100
AcDbCircle
 10
62.5
 20
169
 40
6
  0
CIRCLE
  5
26D
100
AcDbEntity
  8
Holes
  6
ByLayer
 62
  256
370
   -1
100
AcDbCircle
 10
106
 20
103
 40
5
  0
CIRCLE
  5
26E
100
AcDbEntity
  8
Holes
  6
ByLayer
 62
  256
370
   -1
100
AcDbCircle
 10
19
 20
103
 40
5
  0
LINE
  5
26F
100
AcDbEntity
  8
Borders
  6
ByLayer
 62
  256
370
   -1
100
AcDbLine
 10
90
 20
174
 11
95
 21
174
  0
LINE
  5
270
100
AcDbEntity
  8
Borders
  6
ByLayer
 62
  256
370
   -1
100
AcDbLine
 10
95
 20
158
 11
95
 21
164
  0
LINE
  5
271
100
AcDbEntity
  8
Borders
  6
ByLayer
 62
  256
370
   -1
100
AcDbLine
 10
95
 20
164
 11
90
 21
164
  0
LINE
  5
272
100
AcDbEntity
  8
Borders
  6
ByLayer
 62
  256
370
   -1
100
AcDbLine
 10
95
 20
174
 11
95
 21
180
  0
LINE
  5
273
100
AcDbEntity
  8
Borders
  6
ByLayer
 62
  256
370
   -1
100
AcDbLine
 10
90
 20
164
 11
90
 21
174
  0
LINE
  5
274
100
AcDbEntity
  8
Borders
  6
ByLayer
 62
  256
370
   -1
100
AcDbLine
 10
95
 20
153
 11
101
 21
153
  0
LINE
  5
275
100
AcDbEntity
  8
Borders
  6
ByLayer
 62
  256
370
   -1
100
AcDbLine
 10
101
 20
153
 11
101
 21
158
  0
LINE
  5
276
100
AcDbEntity
  8
Borders
  6
ByLayer
 62
  256
370
   -1
100
AcDbLine
 10
111
 20
153
 11
117
 21
153
  0
LINE
  5
277
100
AcDbEntity
  8
Borders
  6
ByLayer
 62
  256
370
   -1
100
AcDbLine
 10
111
 20
158
 11
111
 21
153
  0
LINE
  5
278
100
AcDbEntity
  8
Borders
  6
ByLayer
 62
  256
370
   -1
100
AcDbLine
 10
101
 20
158
 11
111
 21
158
  0
DIMENSION
  5
279
100
AcDbEntity
  8
Measurements
  6
ByLayer
 62
  256
370
   -1
100
AcDbDimension
 10
95
 20
190
 30
0
 11
62.5
 21
191.875
 31
0
 70
   33
 71
    5
  3
Standard
 53
0
210
0
220
0
230
1
100
AcDbAlignedDimension
 13
30
 23
180
 33
0
 14
95
 24
180
 34
0
  0
DIMENSION
  5
27A
100
AcDbEntity
  8
Measurements
  6
ByLayer
 62
  256
370
   -1
100
AcDbDimension
 10
25.25925925929999
 20
185
 30
0
 11
23.38425925929999
 21
169
 31
0
 70
   33
 71
    5
  3
Standard
 53
0
210
0
220
0
230
1
100
AcDbAlignedDimension
 13
30
 23
153
 33
0
 14
30
 24
185
 34
0
  0
LINE
  5
27B
100
AcDbEntity
  8
Borders
  6
ByLayer
 62
  256
370
   -1
100
AcDbLine
 10
35
 20
174
 11
30
 21
174
  0
LINE
  5
27C
100
AcDbEntity
  8
Borders
  6
ByLayer
 62
  256
370
   -1
100
AcDbLine
 10
30
 20
158
 11
30
 21
164
  0
LINE
  5
27D
100
AcDbEntity
  8
Borders
  6
ByLayer
 62
  256
370
   -1
100
AcDbLine
 10
30
 20
164
 11
35
 21
164
  0
LINE
  5
27E
100
AcDbEntity
  8
Borders
  6
ByLayer
 62
  256
370
   -1
100
AcDbLine
 10
30
 20
174
 11
30
 21
180
  0
LINE
  5
27F
100
AcDbEntity
  8
Borders
  6
ByLayer
 62
  256
370
   -1
100
AcDbLine
 10
35
 20
164
 11
35
 21
174
  0
LINE
  5
280
100
AcDbEntity
  8
Borders
  6
ByLayer
 62
  256
370
   -1
100
AcDbLine
 10
45
 20
158
 11
45
 21
153
  0
LINE
  5
281
100
AcDbEntity
  8
Borders
  6
ByLayer
 62
  256
370
   -1
100
AcDbLine
 10
45
 20
153
 11
50
 21
153
  0
LINE
  5
282
100
AcDbEntity
  8
Borders
  6
ByLayer
 62
  256
370
   -1
100
AcDbLine
 10
50
 20
153
 11
50
 21
158
  0
LINE
  5
283
100
AcDbEntity
  8
Borders
  6
ByLayer
 62
  256
370
   -1
100
AcDbLine
 10
50
 20
158
 11
55
 21
158
  0
LINE
  5
284
100
AcDbEntity
  8
Borders
  6
ByLayer
 62
  256
370
   -1
100
AcDbLine
 10
55
 20
158
 11
55
 21
153
  0
LINE
  5
285
100
AcDbEntity
  8
Borders
  6
ByLayer
 62
  256
370
   -1
100
AcDbLine
 10
55
 20
153
 11
60
 21
153
  0
LINE
  5
286
100
AcDbEntity
  8
Borders
  6
ByLayer
 62
  256
370
   -1
100
AcDbLine
 10
60
 20
153
 11
60
 21
158
  0
LINE
  5
287
100
AcDbEntity
  8
Borders
  6
ByLayer
 62
  256
370
   -1
100
AcDbLine
 10
60
 20
158
 11
65
 21
158
  0
LINE
  5
288
100
AcDbEntity
  8
Borders
  6
ByLayer
 62
  256
370
   -1
100
AcDbLine
 10
80
 20
158
 11
80
 21
153
  0
LINE
  5
289
100
AcDbEntity
  8
Borders
  6
ByLayer
 62
  256
370
   -1
100
AcDbLine
 10
80
 20
153
 11
75
 21
153
  0
LINE
  5
28A
100
AcDbEntity
  8
Borders
  6
ByLayer
 62
  256
370
   -1
100
AcDbLine
 10
75
 20
153
 11
75
 21
158
  0
LINE
  5
28B
100
AcDbEntity
  8
Borders
  6
ByLayer
 62
  256
370
   -1
100
AcDbLine
 10
75
 20
158
 11
70
 21
158
  0
LINE
  5
28C
100
AcDbEntity
  8
Borders
  6
ByLayer
 62
  256
370
   -1
100
AcDbLine
 10
70
 20
158
 11
70
 21
153
  0
LINE
  5
28D
100
AcDbEntity
  8
Borders
  6
ByLayer
 62
  256
370
   -1
100
AcDbLine
 10
70
 20
153
 11
65
 21
153
  0
LINE
  5
28E
100
AcDbEntity
  8
Borders
  6
ByLayer
 62
  256
370
   -1
100
AcDbLine
 10
65
 20
153
 11
65
 21
158
  0
LINE
  5
28F
100
AcDbEntity
  8
Borders
  6
ByLayer
 62
  256
370
   -1
100
AcDbLine
 10
65
 20
158
 11
60
 21
158
  0
LINE
  5
290
100
AcDbEntity
  8
Borders
  6
ByLayer
 62
  256
370
   -1
100
AcDbLine
 10
95
 20
158
 11
80
 21
158
  0
LINE
  5
291
100
AcDbEntity
  8
Borders
  6
ByLayer
 62
  256
370
   -1
100
AcDbLine
 10
30
 20
158
 11
45
 21
158
  0
LINE
  5
292
100
AcDbEntity
  8
Borders
  6
ByLayer
 62
  256
370
   -1
100
AcDbLine
 10
45
 20
180
 11
45
 21
185
  0
LINE
  5
293
100
AcDbEntity
  8
Borders
  6
ByLayer
 62
  256
370
   -1
100
AcDbLine
 10
45
 20
185
 11
50
 21
185
  0
LINE
  5
294
100
AcDbEntity
  8
Borders
  6
ByLayer
 62
  256
370
   -1
100
AcDbLine
 10
50
 20
185
 11
50
 21
180
  0
LINE
  5
295
100
AcDbEntity
  8
Borders
  6
ByLayer
 62
  256
370
   -1
100
AcDbLine
 10
50
 20
180
 11
55
 21
180
  0
LINE
  5
296
100
AcDbEntity
  8
Borders
  6
ByLayer
 62
  256
370
   -1
100
AcDbLine
 10
55
 20
180
 11
55
 21
185
  0
LINE
  5
297
100
AcDbEntity
  8
Borders
  6
ByLayer
 62
  256
370
   -1
100
AcDbLine
 10
55
 20
185
 11
60
 21
185
  0
LINE
  5
298
100
AcDbEntity
  8
Borders
  6
ByLayer
 62
  256
370
   -1
100
AcDbLine
 10
60
 20
185
 11
60
 21
180
  0
LINE
  5
299
100
AcDbEntity
  8
Borders
  6
ByLayer
 62
  256
370
   -1
100
AcDbLine
 10
60
 20
180
 11
65
 21
180
  0
LINE
  5
29A
100
AcDbEntity
  8
Borders
  6
ByLayer
 62
  256
370
   -1
100
AcDbLine
 10
80
 20
180
 11
80
 21
185
  0
LINE
  5
29B
100
AcDbEntity
  8
Borders
  6
ByLayer
 62
  256
370
   -1
100
AcDbLine
 10
80
 20
185
 11
75
 21
185
  0
LINE
  5
29C
100
AcDbEntity
  8
Borders
  6
ByLayer
 62
  256
370
   -1
100
AcDbLine
 10
75
 20
185
 11
75
 21
180
  0
LINE
  5
29D
100
AcDbEntity
  8
Borders
  6
ByLayer
 62
  256
370
   -1
100
AcDbLine
 10
75
 20
180
 11
70
 21
180
  0
LINE
  5
29E
100
AcDbEntity
  8
Borders
  6
ByLayer
 62
  256
370
   -1
100
AcDbLine
 10
70
 20
180
 11
70
 21
185
  0
LINE
  5
29F
100
AcDbEntity
  8
Borders
  6
ByLayer
 62
  256
370
   -1
100
AcDbLine
 10
70
 20
185
 11
65
 21
185
  0
LINE
  5
2A0
100
AcDbEntity
  8
Borders
  6
ByLayer
 62
  256
370
   -1
100
AcDbLine
 10
65
 20
185
 11
65
 21
180
  0
LINE
  5
2A1
100
AcDbEntity
  8
Borders
  6
ByLayer
 62
  256
370
   -1
100
AcDbLine
 10
65
 20
180
 11
60
 21
180
  0
LINE
  5
2A2
100
AcDbEntity
  8
Borders
  6
ByLayer
 62
  256
370
   -1
100
AcDbLine
 10
95
 20
180
 11
80
 21
180
  0
LINE
  5
2A3
100
AcDbEntity
  8
Borders
  6
ByLayer
 62
  256
370
   -1
100
AcDbLine
 10
30
 20
180
 11
45
 21
180
  0
LINE
  5
2A4
100
AcDbEntity
  8
Borders
  6
ByLayer
 62
  256
370
   -1
100
AcDbLine
 10
132
 20
158
 11
132
 21
153
  0
LINE
  5
2A5
100
AcDbEntity
  8
Borders
  6
ByLayer
 62
  256
370
   -1
100
AcDbLine
 10
132
 20
153
 11
137
 21
153
  0
LINE
  5
2A6
100
AcDbEntity
  8
Borders
  6
ByLayer
 62
  256
370
   -1
100
AcDbLine
 10
137
 20
153
 11
137
 21
158
  0
LINE
  5
2A7
100
AcDbEntity
  8
Borders
  6
ByLayer
 62
  256
370
   -1
100
AcDbLine
 10
137
 20
158
 11
142
 21
158
  0
LINE
  5
2A8
100
AcDbEntity
  8
Borders
  6
ByLayer
 62
  256
370
   -1
100
AcDbLine
 10
142
 20
158
 11
142
 21
153
  0
LINE
  5
2A9
100
AcDbEntity
  8
Borders
  6
ByLayer
 62
  256
370
   -1
100
AcDbLine
 10
142
 20
153
 11
147
 21
153
  0
LINE
  5
2AA
100
AcDbEntity
  8
Borders
  6
ByLayer
 62
  256
370
   -1
100
AcDbLine
 10
147
 20
153
 11
147
 21
158
  0
LINE
  5
2AB
100
AcDbEntity
  8
Borders
  6
ByLayer
 62
  256
370
   -1
100
AcDbLine
 10
147
 20
158
 11
152
 21
158
  0
LINE
  5
2AC
100
AcDbEntity
  8
Borders
  6
ByLayer
 62
  256
370
   -1
100
AcDbLine
 10
167
 20
158
 11
167
 21
153
  0
LINE
  5
2AD
100
AcDbEntity
  8
Borders
  6
ByLayer
 62
  256
370
   -1
100
AcDbLine
 10
167
 20
153
 11
162
 21
153
  0
LINE
  5
2AE
100
AcDbEntity
  8
Borders
  6
ByLayer
 62
  256
370
   -1
100
AcDbLine
 10
162
 20
153
 11
162
 21
158
  0
LINE
  5
2AF
100
AcDbEntity
  8
Borders
  6
ByLayer
 62
  256
370
   -1
100
AcDbLine
 10
162
 20
158
 11
157
 21
158
  0
LINE
  5
2B0
100
AcDbEntity
  8
Borders
  6
ByLayer
 62
  256
370
   -1
100
AcDbLine
 10
157
 20
158
 11
157
 21
153
  0
LINE
  5
2B1
100
AcDbEntity
  8
Borders
  6
ByLayer
 62
  256
370
   -1
100
AcDbLine
 10
157
 20
153
 11
152
 21
153
  0
LINE
  5
2B2
100
AcDbEntity
  8
Borders
  6
ByLayer
 62
  256
370
   -1
100
AcDbLine
 10
152
 20
153
 11
152
 21
158
  0
LINE
  5
2B3
100
AcDbEntity
  8
Borders
  6
ByLayer
 62
  256
370
   -1
100
AcDbLine
 10
152
 20
158
 11
147
 21
158
  0
LINE
  5
2B4
100
AcDbEntity
  8
Borders
  6
ByLayer
 62
  256
370
   -1
100
AcDbLine
 10
117
 20
158
 11
132
 21
158
  0
LINE
  5
2B5
100
AcDbEntity
  8
Borders
  6
ByLayer
 62
  256
370
   -1
100
AcDbLine
 10
182
 20
158
 11
167
 21
158
  0
LINE
  5
2B6
100
AcDbEntity
  8
Borders
  6
ByLayer
 62
  256
370
   -1
100
AcDbLine
 10
117
 20
40
 11
132
 21
40
  0
LINE
  5
2B7
100
AcDbEntity
  8
Borders
  6
ByLayer
 62
  256
370
   -1
100
AcDbLine
 10
182
 20
40
 11
167
 21
40
  0
LINE
  5
2B8
100
AcDbEntity
  8
Borders
  6
ByLayer
 62
  256
370
   -1
100
AcDbLine
 10
132
 20
45
 11
137
 21
45
  0
LINE
  5
2B9
100
AcDbEntity
  8
Borders
  6
ByLayer
 62
  256
370
   -1
100
AcDbLine
 10
137
 20
45
 11
137
 21
40
  0
LINE
  5
2BA
100
AcDbEntity
  8
Borders
  6
ByLayer
 62
  256
370
   -1
100
AcDbLine
 10
137
 20
40
 11
142
 21
40
  0
LINE
  5
2BB
100
AcDbEntity
  8
Borders
  6
ByLayer
 62
  256
370
   -1
100
AcDbLine
 10
142
 20
40
 11
142
 21
45
  0
LINE
  5
2BC
100
AcDbEntity
  8
Borders
  6
ByLayer
 62
  256
370
   -1
100
AcDbLine
 10
142
 20
45
 11
147
 21
45
  0
LINE
  5
2BD
100
AcDbEntity
  8
Borders
  6
ByLayer
 62
  256
370
   -1
100
AcDbLine
 10
147
 20
45
 11
147
 21
40
  0
LINE
  5
2BE
100
AcDbEntity
  8
Borders
  6
ByLayer
 62
  256
370
   -1
100
AcDbLine
 10
147
 20
40
 11
152
 21
40
  0
LINE
  5
2BF
100
AcDbEntity
  8
Borders
  6
ByLayer
 62
  256
370
   -1
100
AcDbLine
 10
167
 20
40
 11
167
 21
45
  0
LINE
  5
2C0
100
AcDbEntity
  8
Borders
  6
ByLayer
 62
  256
370
   -1
100
AcDbLine
 10
167
 20
45
 11
162
 21
45
  0
LINE
  5
2C1
100
AcDbEntity
  8
Borders
  6
ByLayer
 62
  256
370
   -1
100
AcDbLine
 10
162
 20
45
 11
162
 21
40
  0
LINE
  5
2C2
100
AcDbEntity
  8
Borders
  6
ByLayer
 62
  256
370
   -1
100
AcDbLine
 10
162
 20
40
 11
157
 21
40
  0
LINE
  5
2C3
100
AcDbEntity
  8
Borders
  6
ByLayer
 62
  256
370
   -1
100
AcDbLine
 10
157
 20
40
 11
157
 21
45
  0
LINE
  5
2C4
100
AcDbEntity
  8
Borders
  6
ByLayer
 62
  256
370
   -1
100
AcDbLine
 10
157
 20
45
 11
152
 21
45
  0
LINE
  5
2C5
100
AcDbEntity
  8
Borders
  6
ByLayer
 62
  256
370
   -1
100
AcDbLine
 10
152
 20
45
 11
152
 21
40
  0
LINE
  5
2C6
100
AcDbEntity
  8
Borders
  6
ByLayer
 62
  256
370
   -1
100
AcDbLine
 10
152
 20
40
 11
147
 21
40
  0
LINE
  5
2C7
100
AcDbEntity
  8
Borders
  6
ByLayer
 62
  256
370
   -1
100
AcDbLine
 10
132
 20
40
 11
132
 21
45
  0
LINE
  5
2C8
100
AcDbEntity
  8
Borders
  6
ByLayer
 62
  256
370
   -1
100
AcDbLine
 10
29.9050484183
 20
40
 11
45
 21
40
  0
LINE
  5
2C9
100
AcDbEntity
  8
Borders
  6
ByLayer
 62
  256
370
   -1
100
AcDbLine
 10
95
 20
40
 11
80
 21
40
  0
LINE
  5
2CA
100
AcDbEntity
  8
Borders
  6
ByLayer
 62
  256
370
   -1
100
AcDbLine
 10
45
 20
40
 11
45
 21
45
  0
LINE
  5
2CB
100
AcDbEntity
  8
Borders
  6
ByLayer
 62
  256
370
   -1
100
AcDbLine
 10
45
 20
45
 11
50
 21
45
  0
LINE
  5
2CC
100
AcDbEntity
  8
Borders
  6
ByLayer
 62
  256
370
   -1
100
AcDbLine
 10
50
 20
45
 11
50
 21
40
  0
LINE
  5
2CD
100
AcDbEntity
  8
Borders
  6
ByLayer
 62
  256
370
   -1
100
AcDbLine
 10
50
 20
40
 11
55
 21
40
  0
LINE
  5
2CE
100
AcDbEntity
  8
Borders
  6
ByLayer
 62
  256
370
   -1
100
AcDbLine
 10
55
 20
40
 11
55
 21
45
  0
LINE
  5
2CF
100
AcDbEntity
  8
Borders
  6
ByLayer
 62
  256
370
   -1
100
AcDbLine
 10
55
 20
45
 11
60
 21
45
  0
LINE
  5
2D0
100
AcDbEntity
  8
Borders
  6
ByLayer
 62
  256
370
   -1
100
AcDbLine
 10
60
 20
45
 11
60
 21
40
  0
LINE
  5
2D1
100
AcDbEntity
  8
Borders
  6
ByLayer
 62
  256
370
   -1
100
AcDbLine
 10
60
 20
40
 11
65
 21
40
  0
LINE
  5
2D2
100
AcDbEntity
  8
Borders
  6
ByLayer
 62
  256
370
   -1
100
AcDbLine
 10
80
 20
40
 11
80
 21
45
  0
LINE
  5
2D3
100
AcDbEntity
  8
Borders
  6
ByLayer
 62
  256
370
   -1
100
AcDbLine
 10
80
 20
45
 11
75
 21
45
  0
LINE
  5
2D4
100
AcDbEntity
  8
Borders
  6
ByLayer
 62
  256
370
   -1
100
AcDbLine
 10
75
 20
45
 11
75
 21
40
  0
LINE
  5
2D5
100
AcDbEntity
  8
Borders
  6
ByLayer
 62
  256
370
   -1
100
AcDbLine
 10
75
 20
40
 11
70
 21
40
  0
LINE
  5
2D6
100
AcDbEntity
  8
Borders
  6
ByLayer
 62
  256
370
   -1
100
AcDbLine
 10
70
 20
40
 11
70
 21
45
  0
LINE
  5
2D7
100
AcDbEntity
  8
Borders
  6
ByLayer
 62
  256
370
   -1
100
AcDbLine
 10
70
 20
45
 11
65
 21
45
  0
LINE
  5
2D8
100
AcDbEntity
  8
Borders
  6
ByLayer
 62
  256
370
   -1
100
AcDbLine
 10
65
 20
45
 11
65
 21
40
  0
LINE
  5
2D9
100
AcDbEntity
  8
Borders
  6
ByLayer
 62
  256
370
   -1
100
AcDbLine
 10
65
 20
40
 11
60
 21
40
  0
LINE
  5
2DA
100
AcDbEntity
  8
Borders
  6
ByLayer
 62
  256
370
   -1
100
AcDbLine
 10
45
 20
18
 11
45
 21
13
  0
LINE
  5
2DB
100
AcDbEntity
  8
Borders
  6
ByLayer
 62
  256
370
   -1
100
AcDbLine
 10
45
 20
13
 11
50
 21
13
  0
LINE
  5
2DC
100
AcDbEntity
  8
Borders
  6
ByLayer
 62
  256
370
   -1
100
AcDbLine
 10
50
 20
13
 11
50
 21
18
  0
LINE
  5
2DD
100
AcDbEntity
  8
Borders
  6
ByLayer
 62
  256
370
   -1
100
AcDbLine
 10
50
 20
18
 11
55
 21
18
  0
LINE
  5
2DE
100
AcDbEntity
  8
Borders
  6
ByLayer
 62
  256
370
   -1
100
AcDbLine
 10
55
 20
18
 11
55
 21
13
  0
LINE
  5
2DF
100
AcDbEntity
  8
Borders
  6
ByLayer
 62
  256
370
   -1
100
AcDbLine
 10
55
 20
13
 11
60
 21
13
  0
LINE
  5
2E0
100
AcDbEntity
  8
Borders
  6
ByLayer
 62
  256
370
   -1
100
AcDbLine
 10
60
 20
13
 11
60
 21
18
  0
LINE
  5
2E1
100
AcDbEntity
  8
Borders
  6
ByLayer
 62
  256
370
   -1
100
AcDbLine
 10
60
 20
18
 11
65
 21
18
  0
LINE
  5
2E2
100
AcDbEntity
  8
Borders
  6
ByLayer
 62
  256
370
   -1
100
AcDbLine
 10
80
 20
18
 11
80
 21
13
  0
LINE
  5
2E3
100
AcDbEntity
  8
Borders
  6
ByLayer
 62
  256
370
   -1
100
AcDbLine
 10
80
 20
13
 11
75
 21
13
  0
LINE
  5
2E4
100
AcDbEntity
  8
Borders
  6
ByLayer
 62
  256
370
   -1
100
AcDbLine
 10
75
 20
13
 11
75
 21
18
  0
LINE
  5
2E5
100
AcDbEntity
  8
Borders
  6
ByLayer
 62
  256
370
   -1
100
AcDbLine
 10
75
 20
18
 11
70
 21
18
  0
LINE
  5
2E6
100
AcDbEntity
  8
Borders
  6
ByLayer
 62
  256
370
   -1
100
AcDbLine
 10
70
 20
18
 11
70
 21
13
  0
LINE
  5
2E7
100
AcDbEntity
  8
Borders
  6
ByLayer
 62
  256
370
   -1
100
AcDbLine
 10
70
 20
13
 11
65
 21
13
  0
LINE
  5
2E8
100
AcDbEntity
  8
Borders
  6
ByLayer
 62
  256
370
   -1
100
AcDbLine
 10
65
 20
13
 11
65
 21
18
  0
LINE
  5
2E9
100
AcDbEntity
  8
Borders
  6
ByLayer
 62
  256
370
   -1
100
AcDbLine
 10
65
 20
18
 11
60
 21
18
  0
LINE
  5
2EA
100
AcDbEntity
  8
Borders
  6
ByLayer
 62
  256
370
   -1
100
AcDbLine
 10
95
 20
18
 11
80
 21
18
  0
LINE
  5
2EB
100
AcDbEntity
  8
Borders
  6
ByLayer
 62
  256
370
   -1
100
AcDbLine
 10
30
 20
18
 11
45
 21
18
  0
LINE
  5
2EC
100
AcDbEntity
  8
Measurements
  6
ByLayer
 62
  256
370
   -1
100
AcDbLine
 10
90
 20
99
 11
122
 21
99
  0
LINE
  5
2ED
100
AcDbEntity
  8
Borders
  6
ByLayer
 62
  256
370
   -1
100
AcDbLine
 10
8
 20
153
 11
14
 21
153
  0
LINE
  5
2EE
100
AcDbEntity
  8
Borders
  6
ByLayer
 62
  256
370
   -1
100
AcDbLine
 10
14
 20
153
 11
14
 21
158
  0
LINE
  5
2EF
100
AcDbEntity
  8
Borders
  6
ByLayer
 62
  256
370
   -1
100
AcDbLine
 10
24
 20
153
 11
30
 21
153
  0
LINE
  5
2F0
100
AcDbEntity
  8
Borders
  6
ByLayer
 62
  256
370
   -1
100
AcDbLine
 10
24
 20
158
 11
24
 21
153
  0
LINE
  5
2F1
100
AcDbEntity
  8
Borders
  6
ByLayer
 62
  256
370
   -1
100
AcDbLine
 10
14
 20
158
 11
24
 21
158
  0
LINE
  5
2F2
100
AcDbEntity
  8
Borders
  6
ByLayer
 62
  256
370
   -1
100
AcDbLine
 10
95
 20
45
 11
101
 21
45
  0
LINE
  5
2F3
100
AcDbEntity
  8
Borders
  6
ByLayer
 62
  256
370
   -1
100
AcDbLine
 10
101
 20
45
 11
101
 21
40
  0
LINE
  5
2F4
100
AcDbEntity
  8
Borders
  6
ByLayer
 62
  256
370
   -1
100
AcDbLine
 10
111
 20
45
 11
117
 21
45
  0
LINE
  5
2F5
100
AcDbEntity
  8
Borders
  6
ByLayer
 62
  256
370
   -1
100
AcDbLine
 10
111
 20
40
 11
111
 21
45
  0
LINE
  5
2F6
100
AcDbEntity
  8
Borders
  6
ByLayer
 62
  256
370
   -1
100
AcDbLine
 10
101
 20
40
 11
111
 21
40
  0
LINE
  5
2F7
100
AcDbEntity
  8
Borders
  6
ByLayer
 62
  256
370
   -1
100
AcDbLine
 10
8
 20
45
 11
14
 21
45
  0
LINE
  5
2F8
100
AcDbEntity
  8
Borders
  6
ByLayer
 62
  256
370
   -1
100
AcDbLine
 10
14
 20
45
 11
14
 21
40
  0
LINE
  5
2F9
100
AcDbEntity
  8
Borders
  6
ByLayer
 62
  256
370
   -1
100
AcDbLine
 10
24
 20
45
 11
30
 21
45
  0
LINE
  5
2FA
100
AcDbEntity
  8
Borders
  6
ByLayer
 62
  256
370
   -1
100
AcDbLine
 10
24
 20
40
 11
24
 21
45
  0
LINE
  5
2FB
100
AcDbEntity
  8
Borders
  6
ByLayer
 62
  256
370
   -1
100
AcDbLine
 10
14
 20
40
 11
24
 21
40
  0
LINE
  5
2FC
100
AcDbEntity
  8
Borders
  6
ByLayer
 62
  256
370
   -1
100
AcDbLine
 10
30
 20
46.5
 11
30
 21
40
  0
LINE
  5
2FD
100
AcDbEntity
  8
Borders
  6
ByLayer
 62
  256
370
   -1
100
AcDbLine
 10
90
 20
24
 11
95
 21
24
  0
LINE
  5
2FE
100
AcDbEntity
  8
Borders
  6
ByLayer
 62
  256
370
   -1
100
AcDbLine
 10
95
 20
40
 11
95
 21
34
  0
LINE
  5
2FF
100
AcDbEntity
  8
Borders
  6
ByLayer
 62
  256
370
   -1
100
AcDbLine
 10
95
 20
34
 11
90
 21
34
  0
LINE
  5
300
100
AcDbEntity
  8
Borders
  6
ByLayer
 62
  256
370
   -1
100
AcDbLine
 10
95
 20
24
 11
95
 21
18
  0
LINE
  5
301
100
AcDbEntity
  8
Borders
  6
ByLayer
 62
  256
370
   -1
100
AcDbLine
 10
90
 20
34
 11
90
 21
24
  0
LINE
  5
302
100
AcDbEntity
  8
Borders
  6
ByLayer
 62
  256
370
   -1
100
AcDbLine
 10
35
 20
24
 11
30
 21
24
  0
LINE
  5
303
100
AcDbEntity
  8
Borders
  6
ByLayer
 62
  256
370
   -1
100
AcDbLine
 10
30
 20
40
 11
30
 21
34
  0
LINE
  5
304
100
AcDbEntity
  8
Borders
  6
ByLayer
 62
  256
370
   -1
100
AcDbLine
 10
30
 20
34
 11
35
 21
34
  0
LINE
  5
305
100
AcDbEntity
  8
Borders
  6
ByLayer
 62
  256
370
   -1
100
AcDbLine
 10
30
 20
24
 11
30
 21
18
  0
LINE
  5
306
100
AcDbEntity
  8
Borders
  6
ByLayer
 62
  256
370
   -1
100
AcDbLine
 10
35
 20
34
 11
35
 21
24
  0
MTEXT
  5
307
100
AcDbEntity
  8
Text
  6
ByLayer
 62
  256
370
   -1
100
AcDbMText
 10
149.167743738
 20
125.675883273
 30
0
 40
5
 41
31.52777777777832
 71
    5
 72
    1
  1
9V 100mA
  7
standard
210
0
220
0
230
1
 50
0
 73
    2
 44
1
  0
MTEXT
  5
308
100
AcDbEntity
  8
Text
  6
ByLayer
 62
  256
370
   -1
100
AcDbMText
 10
63
 20
90
 30
0
 40
5
 41
30
 71
    5
 72
    1
  1
KSE\Poverdrive
  7
standard
210
0
220
0
230
1
 50
0
 73
    2
 44
1
  0
LINE
  5
309
100
AcDbEntity
  8
SVG
  6
ByLayer
 62
  256
370
   -1
100
AcDbLine
 10
151.2
 20
137.7
 11
151.2
 21
136.8
  0
LINE
  5
30A
100
AcDbEntity
  8
SVG
  6
ByLayer
 62
  256
370
   -1
100
AcDbLine
 10
151.2
 20
142
 11
151.2
 21
141.1
  0
LINE
  5
30B
100
AcDbEntity
  8
Measurements
  6
ByLayer
 62
  256
370
   -1
100
AcDbLine
 10
134.344676809
 20
139.4
 11
164.344676809
 21
139.4
  0
MTEXT
  5
30C
100
AcDbEntity
  8
SVG
  6
ByLayer
 62
  256
370
   35
100
AcDbMText
 10
138
 20
139.7
 30
0
 40
5
 41
2.222222222222222
 71
    5
 72
    1
  1
+
  7
iso
210
0
220
0
230
1
 50
0
 73
    2
 44
1
  0
MTEXT
  5
30D
100
AcDbEntity
  8
SVG
  6
ByLayer
 62
  256
370
   35
100
AcDbMText
 10
159.9
 20
140.2
 30
0
 40
5
 41
2.222222222222222
 71
    5
 72
    1
  1
-
  7
iso
210
0
220
0
230
1
 50
0
 73
    2
 44
1
  0
LINE
  5
30E
100
AcDbEntity
  8
SVG
  6
ByLayer
 62
  256
370
   50
100
AcDbLine
 10
141
 20
139.4
 11
146.3
 21
139.4
  0
LINE
  5
30F
100
AcDbEntity
  8
SVG
  6
ByLayer
 62
  256
370
   50
100
AcDbLine
 10
150.79
 20
139.4
 11
156.873
 21
139.4
  0
LINE
  5
310
100
AcDbEntity
  8
Measurements
  6
ByLayer
 62
  256
370
   -1
100
AcDbLine
 10
149.5
 20
40
 11
149.5
 21
158
  0
INSERT
  5
311
100
AcDbEntity
  8
SVG
  6
ByLayer
 62
  256
370
   -1
100
AcDbBlockReference
  2
fablab-0
 10
129.195
 20
49.96875
 30
0
 41
0.09
 42
0.09
 43
0
 50
0
 70
    1
 71
    1
 44
0
 45
0
  0
MTEXT
  5
312
100
AcDbEntity
  8
Text
  6
ByLayer
 62
  256
370
   -1
100
AcDbMText
 10
150
 20
48
 30
0
 40
3.5
 41
39.27777957778427
 71
    5
 72
    1
  1
fablabcascina.org\P
  7
iso
210
0
220
0
230
1
 50
0
 73
    2
 44
1
  0
MTEXT
  5
313
100
AcDbEntity
  8
Text
  6
ByLayer
 62
  256
370
   -1
100
AcDbMText
 10
149
 20
114.8
 30
0
 40
3.5
 41
49.29166772466466
 71
    5
 72
    1
  1
Realizzato da\PKickStart Electronics
  7
iso
210
0
220
0
230
1
 50
0
 73
    2
 44
1
  0
MTEXT
  5
314
100
AcDbEntity
  8
Text
  6
ByLayer
 62
  256
370
   -1
100
AcDbMText
 10
149
 20
98.09999999999999
 30
0
 40
3.3
 41
52.89166666666775
 71
    5
 72
    1
  1
con la collaborazione di\PFabLab Cascina
  7
iso
210
0
220
0
230
1
 50
0
 73
    2
 44
1
  0
ENDBLK
  5
A2
330
A0
100
AcDbEntity
  8
0
100
AcDbBlockEnd
  0
ENDSEC
  0
SECTION
  2
ENTITIES
  0
LINE
  5
315
100
AcDbEntity
  8
0
  6
ByLayer
 62
  256
370
   -1
100
AcDbLine
 10
125
 20
35
 11
210
 21
35
  0
LINE
  5
316
100
AcDbEntity
  8
0
  6
ByLayer
 62
  256
370
   -1
100
AcDbLine
 10
210
 20
35
 11
210
 21
140
  0
LINE
  5
317
100
AcDbEntity
  8
0
  6
ByLayer
 62
  256
370
   -1
100
AcDbLine
 10
210
 20
140
 11
125
 21
140
  0
LINE
  5
318
100
AcDbEntity
  8
0
  6
ByLayer
 62
  256
370
   -1
100
AcDbLine
 10
125
 20
140
 11
125
 21
35
  0
LINE
  5
319
100
AcDbEntity
  8
0
  6
ByLayer
 62
  256
370
   -1
100
AcDbLine
 10
215
 20
30
 11
215
 21
145
  0
LINE
  5
31A
100
AcDbEntity
  8
0
  6
ByLayer
 62
  256
370
   -1
100
AcDbLine
 10
215
 20
145
 11
120
 21
145
  0
LINE
  5
31B
100
AcDbEntity
  8
0
  6
ByLayer
 62
  256
370
   -1
100
AcDbLine
 10
120
 20
145
 11
120
 21
30
  0
LINE
  5
31C
100
AcDbEntity
  8
0
  6
ByLayer
 62
  256
370
   -1
100
AcDbLine
 10
120
 20
30
 11
215
 21
30
  0
DIMENSION
  5
31D
100
AcDbEntity
  8
Misure
  6
ByLayer
 62
  256
370
   -1
100
AcDbDimension
  2
*D1
 10
137
 20
130
 30
0
 11
135.125
 21
135
 31
0
 70
   33
 71
    5
  3
Standard
 53
0
210
0
220
0
230
1
100
AcDbAlignedDimension
 13
140
 23
140
 33
0
 14
140
 24
130
 34
0
  0
DIMENSION
  5
31E
100
AcDbEntity
  8
Misure
  6
ByLayer
 62
  256
370
   -1
100
AcDbDimension
  2
*D2
 10
210
 20
160
 30
0
 11
167.5
 21
161.875
 31
0
 70
   33
 71
    5
  3
Standard
 53
0
210
0
220
0
230
1
100
AcDbAlignedDimension
 13
125
 23
140
 33
0
 14
210
 24
140
 34
0
  0
DIMENSION
  5
31F
100
AcDbEntity
  8
Misure
  6
ByLayer
 62
  256
370
   -1
100
AcDbDimension
  2
*D3
 10
204
 20
123.943661972
 30
0
 11
168
 21
125.818661972
 31
0
 70
   33
 71
    5
  3
Standard
 53
0
210
0
220
0
230
1
100
AcDbAlignedDimension
 13
132
 23
128
 33
0
 14
204
 24
128
 34
0
  0
LINE
  5
320
100
AcDbEntity
  8
Fori
  6
ByLayer
 62
  256
370
   -1
100
AcDbLine
 10
132
 20
130
 11
204
 21
130
  0
LINE
  5
321
100
AcDbEntity
  8
Fori
  6
ByLayer
 62
  256
370
   -1
100
AcDbLine
 10
204
 20
130
 11
204
 21
105
  0
LINE
  5
322
100
AcDbEntity
  8
Fori
  6
ByLayer
 62
  256
370
   -1
100
AcDbLine
 10
204
 20
105
 11
132
 21
105
  0
LINE
  5
323
100
AcDbEntity
  8
Fori
  6
ByLayer
 62
  256
370
   -1
100
AcDbLine
 10
132
 20
105
 11
132
 21
130
  0
CIRCLE
  5
324
100
AcDbEntity
  8
Fori
  6
ByLayer
 62
  256
370
   -1
100
AcDbCircle
 10
160
 20
86.5
 40
8.5
  0
CIRCLE
  5
325
100
AcDbEntity
  8
Fori
  6
ByLayer
 62
  256
370
   -1
100
AcDbCircle
 10
139
 20
86.5
 40
8.5
  0
CIRCLE
  5
326
100
AcDbEntity
  8
Fori
  6
ByLayer
 62
  256
370
   -1
100
AcDbCircle
 10
196
 20
52.5
 40
8.5
  0
CIRCLE
  5
327
100
AcDbEntity
  8
Fori
  6
ByLayer
 62
  256
370
   -1
100
AcDbCircle
 10
175
 20
52.5
 40
8.5
  0
MTEXT
  5
328
100
AcDbEntity
  8
Testo
  6
ByLayer
 62
  256
370
   -1
100
AcDbMText
 10
143
 20
60
 30
0
 40
5
 41
8.550000000000001
 71
    5
 72
    1
  1
ON
  7
wqy-unicode
210
0
220
0
230
1
 50
0
 73
    2
 44
1
  0
MTEXT
  5
329
100
AcDbEntity
  8
Testo
  6
ByLayer
 62
  256
370
   -1
100
AcDbMText
 10
143
 20
42
 30
0
 40
5
 41
12.68888888888889
 71
    5
 72
    1
  1
OFF
  7
wqy-unicode
210
0
220
0
230
1
 50
0
 73
    2
 44
1
  0
LINE
  5
32A
100
AcDbEntity
  8
Testo
  6
ByLayer
 62
  256
370
   -1
100
AcDbLine
 10
181
 20
89
 11
183
 21
87
  0
LINE
  5
32B
100
AcDbEntity
  8
Testo
  6
ByLayer
 62
  256
370
   -1
100
AcDbLine
 10
183
 20
87
 11
178
 21
85
  0
LINE
  5
32C
100
AcDbEntity
  8
Testo
  6
ByLayer
 62
  256
370
   -1
100
AcDbLine
 10
183
 20
87
 11
188
 21
85
  0
LINE
  5
32D
100
AcDbEntity
  8
Testo
  6
ByLayer
 62
  256
370
   -1
100
AcDbLine
 10
188
 20
85
 11
183
 21
83
  0
LINE
  5
32E
100
AcDbEntity
  8
Testo
  6
ByLayer
 62
  256
370
   -1
100
AcDbLine
 10
183
 20
83
 11
178
 21
85
  0
LINE
  5
32F
100
AcDbEntity
  8
Testo
  6
ByLayer
 62
  256
370
   -1
100
AcDbLine
 10
180
 20
82
 11
183
 21
83
  0
LINE
  5
330
100
AcDbEntity
  8
Testo
  6
ByLayer
 62
  256
370
   -1
100
AcDbLine
 10
188
 20
85
 11
191
 21
87
  0
LINE
  5
331
100
AcDbEntity
  8
Testo
  6
ByLayer
 62
  256
370
   -1
100
AcDbLine
 10
191
 20
87
 11
186
 21
89
  0
LINE
  5
332
100
AcDbEntity
  8
Testo
  6
ByLayer
 62
  256
370
   -1
100
AcDbLine
 10
186
 20
89
 11
183
 21
87
  0
LINE
  5
333
100
AcDbEntity
  8
Testo
  6
ByLayer
 62
  256
370
   -1
100
AcDbLine
 10
176
 20
87
 11
181
 21
89
  0
LINE
  5
334
100
AcDbEntity
  8
Testo
  6
ByLayer
 62
  256
370
   -1
100
AcDbLine
 10
178
 20
85
 11
176
 21
87
  0
LINE
  5
335
100
AcDbEntity
  8
Testo
  6
ByLayer
 62
  256
370
   -1
100
AcDbLine
 10
178
 20
85
 11
175
 21
84
  0
LINE
  5
336
100
AcDbEntity
  8
Testo
  6
ByLayer
 62
  256
370
   -1
100
AcDbLine
 10
175
 20
84
 11
180
 21
82
  0
LINE
  5
337
100
AcDbEntity
  8
Testo
  6
ByLayer
 62
  256
370
   -1
100
AcDbLine
 10
183
 20
83
 11
187
 21
83
  0
LINE
  5
338
100
AcDbEntity
  8
Testo
  6
ByLayer
 62
  256
370
   -1
100
AcDbLine
 10
191
 20
85
 11
188
 21
85
  0
LINE
  5
339
100
AcDbEntity
  8
Testo
  6
ByLayer
 62
  256
370
   -1
100
AcDbLine
 10
187
 20
83
 11
191
 21
85
  0
LINE
  5
33A
100
AcDbEntity
  8
Testo
  6
ByLayer
 62
  256
370
   -1
100
AcDbLine
 10
188
 20
79
 11
188
 21
83.5
  0
LINE
  5
33B
100
AcDbEntity
  8
Testo
  6
ByLayer
 62
  256
370
   -1
100
AcDbLine
 10
178
 20
82.8
 11
178
 21
79
  0
LINE
  5
33C
100
AcDbEntity
  8
Testo
  6
ByLayer
 62
  256
370
   -1
100
AcDbLine
 10
183
 20
77
 11
183
 21
83
  0
LINE
  5
33D
100
AcDbEntity
  8
Testo
  6
ByLayer
 62
  256
370
   -1
100
AcDbLine
 10
183
 20
77
 11
188
 21
79
  0
LINE
  5
33E
100
AcDbEntity
  8
Testo
  6
ByLayer
 62
  256
370
   -1
100
AcDbLine
 10
178
 20
79
 11
183
 21
77
  0
MTEXT
  5
33F
100
AcDbEntity
  8
Testo
  6
ByLayer
 62
  256
370
   -1
100
AcDbMText
 10
205
 20
88
 30
0
 40
5
 41
36.1111136825478
 71
    6
 72
    1
  1
Mastermind\Pin a\PBox
  7
standard
210
0
220
0
230
1
 50
0
 73
    2
 44
1
  0
LINE
  5
340
100
AcDbEntity
  8
0
  6
ByLayer
 62
  256
370
   -1
100
AcDbLine
 10
120
 20
145
 11
120
 21
170
  0
LINE
  5
341
100
AcDbEntity
  8
0
  6
ByLayer
 62
  256
370
   -1
100
AcDbLine
 10
120
 20
170
 11
215
 21
170
  0
LINE
  5
342
100
AcDbEntity
  8
0
  6
ByLayer
 62
  256
370
   -1
100
AcDbLine
 10
215
 20
170
 11
215
 21
145
  0
CIRCLE
  5
343
100
AcDbEntity
  8
Fori
  6
ByLayer
 62
  256
370
   -1
100
AcDbCircle
 10
130
 20
134
 40
1.5
  0
CIRCLE
  5
344
100
AcDbEntity
  8
Fori
  6
ByLayer
 62
  256
370
   -1
100
AcDbCircle
 10
205.5
 20
134
 40
1.5
  0
CIRCLE
  5
345
100
AcDbEntity
  8
Fori
  6
ByLayer
 62
  256
370
   -1
100
AcDbCircle
 10
205.5
 20
103
 40
1.5
  0
CIRCLE
  5
346
100
AcDbEntity
  8
Fori
  6
ByLayer
 62
  256
370
   -1
100
AcDbCircle
 10
130
 20
103
 40
1.5
  0
LINE
  5
347
100
AcDbEntity
  8
Bordi
  6
ByLayer
 62
  256
370
   -1
100
AcDbLine
 10
215
 20
145
 11
215
 21
130
  0
LINE
  5
348
100
AcDbEntity
  8
Bordi
  6
ByLayer
 62
  256
370
   -1
100
AcDbLine
 10
120
 20
145
 11
120
 21
130
  0
LINE
  5
349
100
AcDbEntity
  8
Bordi
  6
ByLayer
 62
  256
370
   -1
100
AcDbLine
 10
120
 20
130
 11
125
 21
130
  0
LINE
  5
34A
100
AcDbEntity
  8
Bordi
  6
ByLayer
 62
  256
370
   -1
100
AcDbLine
 10
125
 20
130
 11
125
 21
120
  0
LINE
  5
34B
100
AcDbEntity
  8
Bordi
  6
ByLayer
 62
  256
370
   -1
100
AcDbLine
 10
125
 20
120
 11
120
 21
120
  0
LINE
  5
34C
100
AcDbEntity
  8
Bordi
  6
ByLayer
 62
  256
370
   -1
100
AcDbLine
 10
120
 20
30
 11
120
 21
40
  0
LINE
  5
34D
100
AcDbEntity
  8
Bordi
  6
ByLayer
 62
  256
370
   -1
100
AcDbLine
 10
120
 20
40
 11
125
 21
40
  0
LINE
  5
34E
100
AcDbEntity
  8
Bordi
  6
ByLayer
 62
  256
370
   -1
100
AcDbLine
 10
125
 20
40
 11
125
 21
50
  0
LINE
  5
34F
100
AcDbEntity
  8
Bordi
  6
ByLayer
 62
  256
370
   -1
100
AcDbLine
 10
125
 20
50
 11
120
 21
50
  0
LINE
  5
350
100
AcDbEntity
  8
Bordi
  6
ByLayer
 62
  256
370
   -1
100
AcDbLine
 10
120
 20
50
 11
120
 21
60
  0
LINE
  5
351
100
AcDbEntity
  8
Bordi
  6
ByLayer
 62
  256
370
   -1
100
AcDbLine
 10
120
 20
60
 11
125
 21
60
  0
LINE
  5
352
100
AcDbEntity
  8
Bordi
  6
ByLayer
 62
  256
370
   -1
100
AcDbLine
 10
125
 20
60
 11
125
 21
70
  0
LINE
  5
353
100
AcDbEntity
  8
Bordi
  6
ByLayer
 62
  256
370
   -1
100
AcDbLine
 10
125
 20
70
 11
120
 21
70
  0
LINE
  5
354
100
AcDbEntity
  8
Bordi
  6
ByLayer
 62
  256
370
   -1
100
AcDbLine
 10
120
 20
70
 11
120
 21
80
  0
LINE
  5
355
100
AcDbEntity
  8
Bordi
  6
ByLayer
 62
  256
370
   -1
100
AcDbLine
 10
120
 20
80
 11
125
 21
80
  0
LINE
  5
356
100
AcDbEntity
  8
Bordi
  6
ByLayer
 62
  256
370
   -1
100
AcDbLine
 10
125
 20
80
 11
125
 21
90
  0
LINE
  5
357
100
AcDbEntity
  8
Bordi
  6
ByLayer
 62
  256
370
   -1
100
AcDbLine
 10
125
 20
90
 11
120
 21
90
  0
LINE
  5
358
100
AcDbEntity
  8
Bordi
  6
ByLayer
 62
  256
370
   -1
100
AcDbLine
 10
120
 20
90
 11
120
 21
100
  0
LINE
  5
359
100
AcDbEntity
  8
Bordi
  6
ByLayer
 62
  256
370
   -1
100
AcDbLine
 10
120
 20
100
 11
125
 21
100
  0
LINE
  5
35A
100
AcDbEntity
  8
Bordi
  6
ByLayer
 62
  256
370
   -1
100
AcDbLine
 10
125
 20
100
 11
125
 21
110
  0
LINE
  5
35B
100
AcDbEntity
  8
Bordi
  6
ByLayer
 62
  256
370
   -1
100
AcDbLine
 10
125
 20
110
 11
120
 21
110
  0
LINE
  5
35C
100
AcDbEntity
  8
Bordi
  6
ByLayer
 62
  256
370
   -1
100
AcDbLine
 10
120
 20
110
 11
120
 21
120
  0
LINE
  5
35D
100
AcDbEntity
  8
Bordi
  6
ByLayer
 62
  256
370
   -1
100
AcDbLine
 10
215
 20
130
 11
210
 21
130
  0
LINE
  5
35E
100
AcDbEntity
  8
Bordi
  6
ByLayer
 62
  256
370
   -1
100
AcDbLine
 10
210
 20
130
 11
210
 21
120
  0
LINE
  5
35F
100
AcDbEntity
  8
Bordi
  6
ByLayer
 62
  256
370
   -1
100
AcDbLine
 10
210
 20
120
 11
215
 21
120
  0
LINE
  5
360
100
AcDbEntity
  8
Bordi
  6
ByLayer
 62
  256
370
   -1
100
AcDbLine
 10
215
 20
40
 11
210
 21
40
  0
LINE
  5
361
100
AcDbEntity
  8
Bordi
  6
ByLayer
 62
  256
370
   -1
100
AcDbLine
 10
210
 20
40
 11
210
 21
50
  0
LINE
  5
362
100
AcDbEntity
  8
Bordi
  6
ByLayer
 62
  256
370
   -1
100
AcDbLine
 10
210
 20
50
 11
215
 21
50
  0
LINE
  5
363
100
AcDbEntity
  8
Bordi
  6
ByLayer
 62
  256
370
   -1
100
AcDbLine
 10
215
 20
50
 11
215
 21
60
  0
LINE
  5
364
100
AcDbEntity
  8
Bordi
  6
ByLayer
 62
  256
370
   -1
100
AcDbLine
 10
215
 20
60
 11
210
 21
60
  0
LINE
  5
365
100
AcDbEntity
  8
Bordi
  6
ByLayer
 62
  256
370
   -1
100
AcDbLine
 10
210
 20
60
 11
210
 21
70
  0
LINE
  5
366
100
AcDbEntity
  8
Bordi
  6
ByLayer
 62
  256
370
   -1
100
AcDbLine
 10
210
 20
70
 11
215
 21
70
  0
LINE
  5
367
100
AcDbEntity
  8
Bordi
  6
ByLayer
 62
  256
370
   -1
100
AcDbLine
 10
215
 20
70
 11
215
 21
80
  0
LINE
  5
368
100
AcDbEntity
  8
Bordi
  6
ByLayer
 62
  256
370
   -1
100
AcDbLine
 10
215
 20
80
 11
210
 21
80
  0
LINE
  5
369
100
AcDbEntity
  8
Bordi
  6
ByLayer
 62
  256
370
   -1
100
AcDbLine
 10
210
 20
80
 11
210
 21
90
  0
LINE
  5
36A
100
AcDbEntity
  8
Bordi
  6
ByLayer
 62
  256
370
   -1
100
AcDbLine
 10
210
 20
90
 11
215
 21
90
  0
LINE
  5
36B
100
AcDbEntity
  8
Bordi
  6
ByLayer
 62
  256
370
   -1
100
AcDbLine
 10
215
 20
90
 11
215
 21
100
  0
LINE
  5
36C
100
AcDbEntity
  8
Bordi
  6
ByLayer
 62
  256
370
   -1
100
AcDbLine
 10
215
 20
100
 11
210
 21
100
  0
LINE
  5
36D
100
AcDbEntity
  8
Bordi
  6
ByLayer
 62
  256
370
   -1
100
AcDbLine
 10
210
 20
100
 11
210
 21
110
  0
LINE
  5
36E
100
AcDbEntity
  8
Bordi
  6
ByLayer
 62
  256
370
   -1
100
AcDbLine
 10
210
 20
110
 11
215
 21
110
  0
LINE
  5
36F
100
AcDbEntity
  8
Bordi
  6
ByLayer
 62
  256
370
   -1
100
AcDbLine
 10
215
 20
110
 11
215
 21
120
  0
LINE
  5
370
100
AcDbEntity
  8
Bordi
  6
ByLayer
 62
  256
370
   -1
100
AcDbLine
 10
133
 20
145
 11
133
 21
140
  0
LINE
  5
371
100
AcDbEntity
  8
Bordi
  6
ByLayer
 62
  256
370
   -1
100
AcDbLine
 10
133
 20
140
 11
143
 21
140
  0
LINE
  5
372
100
AcDbEntity
  8
Bordi
  6
ByLayer
 62
  256
370
   -1
100
AcDbLine
 10
143
 20
140
 11
143
 21
145
  0
LINE
  5
373
100
AcDbEntity
  8
Bordi
  6
ByLayer
 62
  256
370
   -1
100
AcDbLine
 10
143
 20
145
 11
153
 21
145
  0
LINE
  5
374
100
AcDbEntity
  8
Bordi
  6
ByLayer
 62
  256
370
   -1
100
AcDbLine
 10
153
 20
145
 11
153
 21
140
  0
LINE
  5
375
100
AcDbEntity
  8
Bordi
  6
ByLayer
 62
  256
370
   -1
100
AcDbLine
 10
153
 20
140
 11
163
 21
140
  0
LINE
  5
376
100
AcDbEntity
  8
Bordi
  6
ByLayer
 62
  256
370
   -1
100
AcDbLine
 10
163
 20
140
 11
163
 21
145
  0
LINE
  5
377
100
AcDbEntity
  8
Bordi
  6
ByLayer
 62
  256
370
   -1
100
AcDbLine
 10
163
 20
145
 11
173
 21
145
  0
LINE
  5
378
100
AcDbEntity
  8
Bordi
  6
ByLayer
 62
  256
370
   -1
100
AcDbLine
 10
173
 20
145
 11
173
 21
140
  0
LINE
  5
379
100
AcDbEntity
  8
Bordi
  6
ByLayer
 62
  256
370
   -1
100
AcDbLine
 10
173
 20
140
 11
183
 21
140
  0
LINE
  5
37A
100
AcDbEntity
  8
Bordi
  6
ByLayer
 62
  256
370
   -1
100
AcDbLine
 10
183
 20
140
 11
183
 21
145
  0
LINE
  5
37B
100
AcDbEntity
  8
Bordi
  6
ByLayer
 62
  256
370
   -1
100
AcDbLine
 10
183
 20
145
 11
193
 21
145
  0
LINE
  5
37C
100
AcDbEntity
  8
Bordi
  6
ByLayer
 62
  256
370
   -1
100
AcDbLine
 10
193
 20
145
 11
193
 21
140
  0
LINE
  5
37D
100
AcDbEntity
  8
Bordi
  6
ByLayer
 62
  256
370
   -1
100
AcDbLine
 10
193
 20
140
 11
203
 21
140
  0
LINE
  5
37E
100
AcDbEntity
  8
Bordi
  6
ByLayer
 62
  256
370
   -1
100
AcDbLine
 10
203
 20
140
 11
203
 21
145
  0
LINE
  5
37F
100
AcDbEntity
  8
Bordi
  6
ByLayer
 62
  256
370
   -1
100
AcDbLine
 10
120
 20
145
 11
133
 21
145
  0
LINE
  5
380
100
AcDbEntity
  8
Bordi
  6
ByLayer
 62
  256
370
   -1
100
AcDbLine
 10
203
 20
145
 11
215
 21
145
  0
LINE
  5
381
100
AcDbEntity
  8
Bordi
  6
ByLayer
 62
  256
370
   -1
100
AcDbLine
 10
133
 20
35
 11
143
 21
35
  0
LINE
  5
382
100
AcDbEntity
  8
Bordi
  6
ByLayer
 62
  256
370
   -1
100
AcDbLine
 10
143
 20
35
 11
143
 21
30
  0
LINE
  5
383
100
AcDbEntity
  8
Bordi
  6
ByLayer
 62
  256
370
   -1
100
AcDbLine
 10
143
 20
30
 11
153
 21
30
  0
LINE
  5
384
100
AcDbEntity
  8
Bordi
  6
ByLayer
 62
  256
370
   -1
100
AcDbLine
 10
153
 20
30
 11
153
 21
35
  0
LINE
  5
385
100
AcDbEntity
  8
Bordi
  6
ByLayer
 62
  256
370
   -1
100
AcDbLine
 10
153
 20
35
 11
163
 21
35
  0
LINE
  5
386
100
AcDbEntity
  8
Bordi
  6
ByLayer
 62
  256
370
   -1
100
AcDbLine
 10
163
 20
35
 11
163
 21
30
  0
LINE
  5
387
100
AcDbEntity
  8
Bordi
  6
ByLayer
 62
  256
370
   -1
100
AcDbLine
 10
163
 20
30
 11
173
 21
30
  0
LINE
  5
388
100
AcDbEntity
  8
Bordi
  6
ByLayer
 62
  256
370
   -1
100
AcDbLine
 10
173
 20
30
 11
173
 21
35
  0
LINE
  5
389
100
AcDbEntity
  8
Bordi
  6
ByLayer
 62
  256
370
   -1
100
AcDbLine
 10
173
 20
35
 11
183
 21
35
  0
LINE
  5
38A
100
AcDbEntity
  8
Bordi
  6
ByLayer
 62
  256
370
   -1
100
AcDbLine
 10
183
 20
35
 11
183
 21
30
  0
LINE
  5
38B
100
AcDbEntity
  8
Bordi
  6
ByLayer
 62
  256
370
   -1
100
AcDbLine
 10
183
 20
30
 11
193
 21
30
  0
LINE
  5
38C
100
AcDbEntity
  8
Bordi
  6
ByLayer
 62
  256
370
   -1
100
AcDbLine
 10
193
 20
30
 11
193
 21
35
  0
LINE
  5
38D
100
AcDbEntity
  8
Bordi
  6
ByLayer
 62
  256
370
   -1
100
AcDbLine
 10
193
 20
35
 11
203
 21
35
  0
LINE
  5
38E
100
AcDbEntity
  8
Bordi
  6
ByLayer
 62
  256
370
   -1
100
AcDbLine
 10
120
 20
30
 11
133
 21
30
  0
LINE
  5
38F
100
AcDbEntity
  8
Bordi
  6
ByLayer
 62
  256
370
   -1
100
AcDbLine
 10
133
 20
30
 11
133
 21
35
  0
LINE
  5
390
100
AcDbEntity
  8
Bordi
  6
ByLayer
 62
  256
370
   -1
100
AcDbLine
 10
215
 20
30
 11
215
 21
40
  0
LINE
  5
391
100
AcDbEntity
  8
Bordi
  6
ByLayer
 62
  256
370
   -1
100
AcDbLine
 10
203
 20
35
 11
203
 21
30
  0
LINE
  5
392
100
AcDbEntity
  8
Bordi
  6
ByLayer
 62
  256
370
   -1
100
AcDbLine
 10
203
 20
30
 11
215
 21
30
  0
LINE
  5
393
100
AcDbEntity
  8
Bordi
  6
ByLayer
 62
  256
370
   -1
100
AcDbLine
 10
133
 20
170
 11
133
 21
175
  0
LINE
  5
394
100
AcDbEntity
  8
Bordi
  6
ByLayer
 62
  256
370
   -1
100
AcDbLine
 10
133
 20
175
 11
143
 21
175
  0
LINE
  5
395
100
AcDbEntity
  8
Bordi
  6
ByLayer
 62
  256
370
   -1
100
AcDbLine
 10
143
 20
175
 11
143
 21
170
  0
LINE
  5
396
100
AcDbEntity
  8
Bordi
  6
ByLayer
 62
  256
370
   -1
100
AcDbLine
 10
143
 20
170
 11
153
 21
170
  0
LINE
  5
397
100
AcDbEntity
  8
Bordi
  6
ByLayer
 62
  256
370
   -1
100
AcDbLine
 10
153
 20
170
 11
153
 21
175
  0
LINE
  5
398
100
AcDbEntity
  8
Bordi
  6
ByLayer
 62
  256
370
   -1
100
AcDbLine
 10
153
 20
175
 11
163
 21
175
  0
LINE
  5
399
100
AcDbEntity
  8
Bordi
  6
ByLayer
 62
  256
370
   -1
100
AcDbLine
 10
163
 20
175
 11
163
 21
170
  0
LINE
  5
39A
100
AcDbEntity
  8
Bordi
  6
ByLayer
 62
  256
370
   -1
100
AcDbLine
 10
163
 20
170
 11
173
 21
170
  0
LINE
  5
39B
100
AcDbEntity
  8
Bordi
  6
ByLayer
 62
  256
370
   -1
100
AcDbLine
 10
173
 20
170
 11
173
 21
175
  0
LINE
  5
39C
100
AcDbEntity
  8
Bordi
  6
ByLayer
 62
  256
370
   -1
100
AcDbLine
 10
173
 20
175
 11
183
 21
175
  0
LINE
  5
39D
100
AcDbEntity
  8
Bordi
  6
ByLayer
 62
  256
370
   -1
100
AcDbLine
 10
183
 20
175
 11
183
 21
170
  0
LINE
  5
39E
100
AcDbEntity
  8
Bordi
  6
ByLayer
 62
  256
370
   -1
100
AcDbLine
 10
183
 20
170
 11
193
 21
170
  0
LINE
  5
39F
100
AcDbEntity
  8
Bordi
  6
ByLayer
 62
  256
370
   -1
100
AcDbLine
 10
193
 20
170
 11
193
 21
175
  0
LINE
  5
3A0
100
AcDbEntity
  8
Bordi
  6
ByLayer
 62
  256
370
   -1
100
AcDbLine
 10
193
 20
175
 11
203
 21
175
  0
LINE
  5
3A1
100
AcDbEntity
  8
Bordi
  6
ByLayer
 62
  256
370
   -1
100
AcDbLine
 10
203
 20
175
 11
203
 21
170
  0
LINE
  5
3A2
100
AcDbEntity
  8
Bordi
  6
ByLayer
 62
  256
370
   -1
100
AcDbLine
 10
120
 20
170
 11
133
 21
170
  0
LINE
  5
3A3
100
AcDbEntity
  8
Bordi
  6
ByLayer
 62
  256
370
   -1
100
AcDbLine
 10
203
 20
170
 11
215
 21
170
  0
LINE
  5
3A4
100
AcDbEntity
  8
Bordi
  6
ByLayer
 62
  256
370
   -1
100
AcDbLine
 10
125
 20
153
 11
125
 21
163
  0
LINE
  5
3A5
100
AcDbEntity
  8
Bordi
  6
ByLayer
 62
  256
370
   -1
100
AcDbLine
 10
125
 20
163
 11
120
 21
163
  0
LINE
  5
3A6
100
AcDbEntity
  8
Bordi
  6
ByLayer
 62
  256
370
   -1
100
AcDbLine
 10
120
 20
163
 11
120
 21
170
  0
LINE
  5
3A7
100
AcDbEntity
  8
Bordi
  6
ByLayer
 62
  256
370
   -1
100
AcDbLine
 10
215
 20
153
 11
210
 21
153
  0
LINE
  5
3A8
100
AcDbEntity
  8
Bordi
  6
ByLayer
 62
  256
370
   -1
100
AcDbLine
 10
210
 20
153
 11
210
 21
163
  0
LINE
  5
3A9
100
AcDbEntity
  8
Bordi
  6
ByLayer
 62
  256
370
   -1
100
AcDbLine
 10
210
 20
163
 11
215
 21
163
  0
LINE
  5
3AA
100
AcDbEntity
  8
Bordi
  6
ByLayer
 62
  256
370
   -1
100
AcDbLine
 10
215
 20
163
 11
215
 21
170
  0
LINE
  5
3AB
100
AcDbEntity
  8
Bordi
  6
ByLayer
 62
  256
370
   -1
100
AcDbLine
 10
215
 20
153
 11
215
 21
145
  0
LINE
  5
3AC
100
AcDbEntity
  8
Bordi
  6
ByLayer
 62
  256
370
   -1
100
AcDbLine
 10
120
 20
153
 11
125
 21
153
  0
LINE
  5
3AD
100
AcDbEntity
  8
Bordi
  6
ByLayer
 62
  256
370
   -1
100
AcDbLine
 10
120
 20
153
 11
120
 21
145
  0
LINE
  5
3AE
100
AcDbEntity
  8
Bordi
  6
ByLayer
 62
  256
370
   -1
100
AcDbLine
 10
133
 20
5
 11
133
 21
0
  0
LINE
  5
3AF
100
AcDbEntity
  8
Bordi
  6
ByLayer
 62
  256
370
   -1
100
AcDbLine
 10
133
 20
0
 11
143
 21
0
  0
LINE
  5
3B0
100
AcDbEntity
  8
Bordi
  6
ByLayer
 62
  256
370
   -1
100
AcDbLine
 10
143
 20
0
 11
143
 21
5
  0
LINE
  5
3B1
100
AcDbEntity
  8
Bordi
  6
ByLayer
 62
  256
370
   -1
100
AcDbLine
 10
143
 20
5
 11
153
 21
5
  0
LINE
  5
3B2
100
AcDbEntity
  8
Bordi
  6
ByLayer
 62
  256
370
   -1
100
AcDbLine
 10
153
 20
5
 11
153
 21
0
  0
LINE
  5
3B3
100
AcDbEntity
  8
Bordi
  6
ByLayer
 62
  256
370
   -1
100
AcDbLine
 10
153
 20
0
 11
163
 21
0
  0
LINE
  5
3B4
100
AcDbEntity
  8
Bordi
  6
ByLayer
 62
  256
370
   -1
100
AcDbLine
 10
163
 20
0
 11
163
 21
5
  0
LINE
  5
3B5
100
AcDbEntity
  8
Bordi
  6
ByLayer
 62
  256
370
   -1
100
AcDbLine
 10
163
 20
5
 11
173
 21
5
  0
LINE
  5
3B6
100
AcDbEntity
  8
Bordi
  6
ByLayer
 62
  256
370
   -1
100
AcDbLine
 10
173
 20
5
 11
173
 21
0
  0
LINE
  5
3B7
100
AcDbEntity
  8
Bordi
  6
ByLayer
 62
  256
370
   -1
100
AcDbLine
 10
173
 20
0
 11
183
 21
0
  0
LINE
  5
3B8
100
AcDbEntity
  8
Bordi
  6
ByLayer
 62
  256
370
   -1
100
AcDbLine
 10
183
 20
0
 11
183
 21
5
  0
LINE
  5
3B9
100
AcDbEntity
  8
Bordi
  6
ByLayer
 62
  256
370
   -1
100
AcDbLine
 10
183
 20
5
 11
193
 21
5
  0
LINE
  5
3BA
100
AcDbEntity
  8
Bordi
  6
ByLayer
 62
  256
370
   -1
100
AcDbLine
 10
193
 20
5
 11
193
 21
0
  0
LINE
  5
3BB
100
AcDbEntity
  8
Bordi
  6
ByLayer
 62
  256
370
   -1
100
AcDbLine
 10
193
 20
0
 11
203
 21
0
  0
LINE
  5
3BC
100
AcDbEntity
  8
Bordi
  6
ByLayer
 62
  256
370
   -1
100
AcDbLine
 10
203
 20
0
 11
203
 21
5
  0
LINE
  5
3BD
100
AcDbEntity
  8
Bordi
  6
ByLayer
 62
  256
370
   -1
100
AcDbLine
 10
120
 20
5
 11
133
 21
5
  0
LINE
  5
3BE
100
AcDbEntity
  8
Bordi
  6
ByLayer
 62
  256
370
   -1
100
AcDbLine
 10
203
 20
5
 11
215
 21
5
  0
LINE
  5
3BF
100
AcDbEntity
  8
Bordi
  6
ByLayer
 62
  256
370
   -1
100
AcDbLine
 10
120
 20
22
 11
125
 21
22
  0
LINE
  5
3C0
100
AcDbEntity
  8
Bordi
  6
ByLayer
 62
  256
370
   -1
100
AcDbLine
 10
125
 20
22
 11
125
 21
12
  0
LINE
  5
3C1
100
AcDbEntity
  8
Bordi
  6
ByLayer
 62
  256
370
   -1
100
AcDbLine
 10
125
 20
12
 11
120
 21
12
  0
LINE
  5
3C2
100
AcDbEntity
  8
Bordi
  6
ByLayer
 62
  256
370
   -1
100
AcDbLine
 10
120
 20
12
 11
120
 21
5
  0
LINE
  5
3C3
100
AcDbEntity
  8
Bordi
  6
ByLayer
 62
  256
370
   -1
100
AcDbLine
 10
120
 20
22
 11
120
 21
30
  0
LINE
  5
3C4
100
AcDbEntity
  8
Bordi
  6
ByLayer
 62
  256
370
   -1
100
AcDbLine
 10
215
 20
22
 11
210
 21
22
  0
LINE
  5
3C5
100
AcDbEntity
  8
Bordi
  6
ByLayer
 62
  256
370
   -1
100
AcDbLine
 10
210
 20
22
 11
210
 21
12
  0
LINE
  5
3C6
100
AcDbEntity
  8
Bordi
  6
ByLayer
 62
  256
370
   -1
100
AcDbLine
 10
210
 20
12
 11
215
 21
12
  0
LINE
  5
3C7
100
AcDbEntity
  8
Bordi
  6
ByLayer
 62
  256
370
   -1
100
AcDbLine
 10
215
 20
12
 11
215
 21
5
  0
LINE
  5
3C8
100
AcDbEntity
  8
Bordi
  6
ByLayer
 62
  256
370
   -1
100
AcDbLine
 10
215
 20
22
 11
215
 21
30
  0
LINE
  5
3C9
100
AcDbEntity
  8
Bordi
  6
ByLayer
 62
  256
370
   -1
100
AcDbLine
 10
95
 20
145
 11
95
 21
130
  0
LINE
  5
3CA
100
AcDbEntity
  8
Bordi
  6
ByLayer
 62
  256
370
   -1
100
AcDbLine
 10
95
 20
130
 11
90
 21
130
  0
LINE
  5
3CB
100
AcDbEntity
  8
Bordi
  6
ByLayer
 62
  256
370
   -1
100
AcDbLine
 10
90
 20
130
 11
90
 21
120
  0
LINE
  5
3CC
100
AcDbEntity
  8
Bordi
  6
ByLayer
 62
  256
370
   -1
100
AcDbLine
 10
90
 20
120
 11
95
 21
120
  0
LINE
  5
3CD
100
AcDbEntity
  8
Bordi
  6
ByLayer
 62
  256
370
   -1
100
AcDbLine
 10
95
 20
30
 11
95
 21
40
  0
LINE
  5
3CE
100
AcDbEntity
  8
Bordi
  6
ByLayer
 62
  256
370
   -1
100
AcDbLine
 10
95
 20
40
 11
90
 21
40
  0
LINE
  5
3CF
100
AcDbEntity
  8
Bordi
  6
ByLayer
 62
  256
370
   -1
100
AcDbLine
 10
90
 20
40
 11
90
 21
50
  0
LINE
  5
3D0
100
AcDbEntity
  8
Bordi
  6
ByLayer
 62
  256
370
   -1
100
AcDbLine
 10
90
 20
50
 11
95
 21
50
  0
LINE
  5
3D1
100
AcDbEntity
  8
Bordi
  6
ByLayer
 62
  256
370
   -1
100
AcDbLine
 10
95
 20
50
 11
95
 21
60
  0
LINE
  5
3D2
100
AcDbEntity
  8
Bordi
  6
ByLayer
 62
  256
370
   -1
100
AcDbLine
 10
95
 20
60
 11
90
 21
60
  0
LINE
  5
3D3
100
AcDbEntity
  8
Bordi
  6
ByLayer
 62
  256
370
   -1
100
AcDbLine
 10
90
 20
60
 11
90
 21
70
  0
LINE
  5
3D4
100
AcDbEntity
  8
Bordi
  6
ByLayer
 62
  256
370
   -1
100
AcDbLine
 10
90
 20
70
 11
95
 21
70
  0
LINE
  5
3D5
100
AcDbEntity
  8
Bordi
  6
ByLayer
 62
  256
370
   -1
100
AcDbLine
 10
95
 20
70
 11
95
 21
80
  0
LINE
  5
3D6
100
AcDbEntity
  8
Bordi
  6
ByLayer
 62
  256
370
   -1
100
AcDbLine
 10
95
 20
80
 11
90
 21
80
  0
LINE
  5
3D7
100
AcDbEntity
  8
Bordi
  6
ByLayer
 62
  256
370
   -1
100
AcDbLine
 10
90
 20
80
 11
90
 21
90
  0
LINE
  5
3D8
100
AcDbEntity
  8
Bordi
  6
ByLayer
 62
  256
370
   -1
100
AcDbLine
 10
90
 20
90
 11
95
 21
90
  0
LINE
  5
3D9
100
AcDbEntity
  8
Bordi
  6
ByLayer
 62
  256
370
   -1
100
AcDbLine
 10
95
 20
90
 11
95
 21
100
  0
LINE
  5
3DA
100
AcDbEntity
  8
Bordi
  6
ByLayer
 62
  256
370
   -1
100
AcDbLine
 10
95
 20
100
 11
90
 21
100
  0
LINE
  5
3DB
100
AcDbEntity
  8
Bordi
  6
ByLayer
 62
  256
370
   -1
100
AcDbLine
 10
90
 20
100
 11
90
 21
110
  0
LINE
  5
3DC
100
AcDbEntity
  8
Bordi
  6
ByLayer
 62
  256
370
   -1
100
AcDbLine
 10
90
 20
110
 11
95
 21
110
  0
LINE
  5
3DD
100
AcDbEntity
  8
Bordi
  6
ByLayer
 62
  256
370
   -1
100
AcDbLine
 10
95
 20
110
 11
95
 21
120
  0
LINE
  5
3DE
100
AcDbEntity
  8
Bordi
  6
ByLayer
 62
  256
370
   -1
100
AcDbLine
 10
240
 20
130
 11
245
 21
130
  0
LINE
  5
3DF
100
AcDbEntity
  8
Bordi
  6
ByLayer
 62
  256
370
   -1
100
AcDbLine
 10
245
 20
130
 11
245
 21
120
  0
LINE
  5
3E0
100
AcDbEntity
  8
Bordi
  6
ByLayer
 62
  256
370
   -1
100
AcDbLine
 10
245
 20
120
 11
240
 21
120
  0
LINE
  5
3E1
100
AcDbEntity
  8
Bordi
  6
ByLayer
 62
  256
370
   -1
100
AcDbLine
 10
240
 20
40
 11
245
 21
40
  0
LINE
  5
3E2
100
AcDbEntity
  8
Bordi
  6
ByLayer
 62
  256
370
   -1
100
AcDbLine
 10
245
 20
40
 11
245
 21
50
  0
LINE
  5
3E3
100
AcDbEntity
  8
Bordi
  6
ByLayer
 62
  256
370
   -1
100
AcDbLine
 10
245
 20
50
 11
240
 21
50
  0
LINE
  5
3E4
100
AcDbEntity
  8
Bordi
  6
ByLayer
 62
  256
370
   -1
100
AcDbLine
 10
240
 20
50
 11
240
 21
60
  0
LINE
  5
3E5
100
AcDbEntity
  8
Bordi
  6
ByLayer
 62
  256
370
   -1
100
AcDbLine
 10
240
 20
60
 11
245
 21
60
  0
LINE
  5
3E6
100
AcDbEntity
  8
Bordi
  6
ByLayer
 62
  256
370
   -1
100
AcDbLine
 10
245
 20
60
 11
245
 21
70
  0
LINE
  5
3E7
100
AcDbEntity
  8
Bordi
  6
ByLayer
 62
  256
370
   -1
100
AcDbLine
 10
245
 20
70
 11
240
 21
70
  0
LINE
  5
3E8
100
AcDbEntity
  8
Bordi
  6
ByLayer
 62
  256
370
   -1
100
AcDbLine
 10
240
 20
70
 11
240
 21
80
  0
LINE
  5
3E9
100
AcDbEntity
  8
Bordi
  6
ByLayer
 62
  256
370
   -1
100
AcDbLine
 10
240
 20
80
 11
245
 21
80
  0
LINE
  5
3EA
100
AcDbEntity
  8
Bordi
  6
ByLayer
 62
  256
370
   -1
100
AcDbLine
 10
245
 20
80
 11
245
 21
90
  0
LINE
  5
3EB
100
AcDbEntity
  8
Bordi
  6
ByLayer
 62
  256
370
   -1
100
AcDbLine
 10
245
 20
90
 11
240
 21
90
  0
LINE
  5
3EC
100
AcDbEntity
  8
Bordi
  6
ByLayer
 62
  256
370
   -1
100
AcDbLine
 10
240
 20
90
 11
240
 21
100
  0
LINE
  5
3ED
100
AcDbEntity
  8
Bordi
  6
ByLayer
 62
  256
370
   -1
100
AcDbLine
 10
240
 20
100
 11
245
 21
100
  0
LINE
  5
3EE
100
AcDbEntity
  8
Bordi
  6
ByLayer
 62
  256
370
   -1
100
AcDbLine
 10
245
 20
100
 11
245
 21
110
  0
LINE
  5
3EF
100
AcDbEntity
  8
Bordi
  6
ByLayer
 62
  256
370
   -1
100
AcDbLine
 10
245
 20
110
 11
240
 21
110
  0
LINE
  5
3F0
100
AcDbEntity
  8
Bordi
  6
ByLayer
 62
  256
370
   -1
100
AcDbLine
 10
240
 20
110
 11
240
 21
120
  0
LINE
  5
3F1
100
AcDbEntity
  8
Bordi
  6
ByLayer
 62
  256
370
   -1
100
AcDbLine
 10
0
 20
145
 11
0
 21
130
  0
LINE
  5
3F2
100
AcDbEntity
  8
Bordi
  6
ByLayer
 62
  256
370
   -1
100
AcDbLine
 10
0
 20
130
 11
5
 21
130
  0
LINE
  5
3F3
100
AcDbEntity
  8
Bordi
  6
ByLayer
 62
  256
370
   -1
100
AcDbLine
 10
5
 20
130
 11
5
 21
120
  0
LINE
  5
3F4
100
AcDbEntity
  8
Bordi
  6
ByLayer
 62
  256
370
   -1
100
AcDbLine
 10
5
 20
120
 11
0
 21
120
  0
LINE
  5
3F5
100
AcDbEntity
  8
Bordi
  6
ByLayer
 62
  256
370
   -1
100
AcDbLine
 10
0
 20
40
 11
5
 21
40
  0
LINE
  5
3F6
100
AcDbEntity
  8
Bordi
  6
ByLayer
 62
  256
370
   -1
100
AcDbLine
 10
5
 20
40
 11
5
 21
50
  0
LINE
  5
3F7
100
AcDbEntity
  8
Bordi
  6
ByLayer
 62
  256
370
   -1
100
AcDbLine
 10
5
 20
50
 11
0
 21
50
  0
LINE
  5
3F8
100
AcDbEntity
  8
Bordi
  6
ByLayer
 62
  256
370
   -1
100
AcDbLine
 10
0
 20
50
 11
0
 21
60
  0
LINE
  5
3F9
100
AcDbEntity
  8
Bordi
  6
ByLayer
 62
  256
370
   -1
100
AcDbLine
 10
0
 20
60
 11
5
 21
60
  0
LINE
  5
3FA
100
AcDbEntity
  8
Bordi
  6
ByLayer
 62
  256
370
   -1
100
AcDbLine
 10
5
 20
60
 11
5
 21
70
  0
LINE
  5
3FB
100
AcDbEntity
  8
Bordi
  6
ByLayer
 62
  256
370
   -1
100
AcDbLine
 10
5
 20
70
 11
0
 21
70
  0
LINE
  5
3FC
100
AcDbEntity
  8
Bordi
  6
ByLayer
 62
  256
370
   -1
100
AcDbLine
 10
0
 20
70
 11
0
 21
80
  0
LINE
  5
3FD
100
AcDbEntity
  8
Bordi
  6
ByLayer
 62
  256
370
   -1
100
AcDbLine
 10
0
 20
80
 11
5
 21
80
  0
LINE
  5
3FE
100
AcDbEntity
  8
Bordi
  6
ByLayer
 62
  256
370
   -1
100
AcDbLine
 10
5
 20
80
 11
5
 21
90
  0
LINE
  5
3FF
100
AcDbEntity
  8
Bordi
  6
ByLayer
 62
  256
370
   -1
100
AcDbLine
 10
5
 20
90
 11
0
 21
90
  0
LINE
  5
400
100
AcDbEntity
  8
Bordi
  6
ByLayer
 62
  256
370
   -1
100
AcDbLine
 10
0
 20
90
 11
0
 21
100
  0
LINE
  5
401
100
AcDbEntity
  8
Bordi
  6
ByLayer
 62
  256
370
   -1
100
AcDbLine
 10
0
 20
100
 11
5
 21
100
  0
LINE
  5
402
100
AcDbEntity
  8
Bordi
  6
ByLayer
 62
  256
370
   -1
100
AcDbLine
 10
5
 20
100
 11
5
 21
110
  0
LINE
  5
403
100
AcDbEntity
  8
Bordi
  6
ByLayer
 62
  256
370
   -1
100
AcDbLine
 10
5
 20
110
 11
0
 21
110
  0
LINE
  5
404
100
AcDbEntity
  8
Bordi
  6
ByLayer
 62
  256
370
   -1
100
AcDbLine
 10
0
 20
110
 11
0
 21
120
  0
LINE
  5
405
100
AcDbEntity
  8
Bordi
  6
ByLayer
 62
  256
370
   -1
100
AcDbLine
 10
82
 20
145
 11
82
 21
140
  0
LINE
  5
406
100
AcDbEntity
  8
Bordi
  6
ByLayer
 62
  256
370
   -1
100
AcDbLine
 10
82
 20
140
 11
72
 21
140
  0
LINE
  5
407
100
AcDbEntity
  8
Bordi
  6
ByLayer
 62
  256
370
   -1
100
AcDbLine
 10
72
 20
140
 11
72
 21
145
  0
LINE
  5
408
100
AcDbEntity
  8
Bordi
  6
ByLayer
 62
  256
370
   -1
100
AcDbLine
 10
72
 20
145
 11
62
 21
145
  0
LINE
  5
409
100
AcDbEntity
  8
Bordi
  6
ByLayer
 62
  256
370
   -1
100
AcDbLine
 10
62
 20
145
 11
62
 21
140
  0
LINE
  5
40A
100
AcDbEntity
  8
Bordi
  6
ByLayer
 62
  256
370
   -1
100
AcDbLine
 10
62
 20
140
 11
52
 21
140
  0
LINE
  5
40B
100
AcDbEntity
  8
Bordi
  6
ByLayer
 62
  256
370
   -1
100
AcDbLine
 10
52
 20
140
 11
52
 21
145
  0
LINE
  5
40C
100
AcDbEntity
  8
Bordi
  6
ByLayer
 62
  256
370
   -1
100
AcDbLine
 10
52
 20
145
 11
42
 21
145
  0
LINE
  5
40D
100
AcDbEntity
  8
Bordi
  6
ByLayer
 62
  256
370
   -1
100
AcDbLine
 10
42
 20
145
 11
42
 21
140
  0
LINE
  5
40E
100
AcDbEntity
  8
Bordi
  6
ByLayer
 62
  256
370
   -1
100
AcDbLine
 10
42
 20
140
 11
32
 21
140
  0
LINE
  5
40F
100
AcDbEntity
  8
Bordi
  6
ByLayer
 62
  256
370
   -1
100
AcDbLine
 10
32
 20
140
 11
32
 21
145
  0
LINE
  5
410
100
AcDbEntity
  8
Bordi
  6
ByLayer
 62
  256
370
   -1
100
AcDbLine
 10
32
 20
145
 11
22
 21
145
  0
LINE
  5
411
100
AcDbEntity
  8
Bordi
  6
ByLayer
 62
  256
370
   -1
100
AcDbLine
 10
22
 20
145
 11
22
 21
140
  0
LINE
  5
412
100
AcDbEntity
  8
Bordi
  6
ByLayer
 62
  256
370
   -1
100
AcDbLine
 10
22
 20
140
 11
12
 21
140
  0
LINE
  5
413
100
AcDbEntity
  8
Bordi
  6
ByLayer
 62
  256
370
   -1
100
AcDbLine
 10
12
 20
140
 11
12
 21
145
  0
LINE
  5
414
100
AcDbEntity
  8
Bordi
  6
ByLayer
 62
  256
370
   -1
100
AcDbLine
 10
95
 20
145
 11
82
 21
145
  0
LINE
  5
415
100
AcDbEntity
  8
Bordi
  6
ByLayer
 62
  256
370
   -1
100
AcDbLine
 10
12
 20
145
 11
0
 21
145
  0
LINE
  5
416
100
AcDbEntity
  8
Bordi
  6
ByLayer
 62
  256
370
   -1
100
AcDbLine
 10
82
 20
35
 11
72
 21
35
  0
LINE
  5
417
100
AcDbEntity
  8
Bordi
  6
ByLayer
 62
  256
370
   -1
100
AcDbLine
 10
72
 20
35
 11
72
 21
30
  0
LINE
  5
418
100
AcDbEntity
  8
Bordi
  6
ByLayer
 62
  256
370
   -1
100
AcDbLine
 10
72
 20
30
 11
62
 21
30
  0
LINE
  5
419
100
AcDbEntity
  8
Bordi
  6
ByLayer
 62
  256
370
   -1
100
AcDbLine
 10
62
 20
30
 11
62
 21
35
  0
LINE
  5
41A
100
AcDbEntity
  8
Bordi
  6
ByLayer
 62
  256
370
   -1
100
AcDbLine
 10
62
 20
35
 11
52
 21
35
  0
LINE
  5
41B
100
AcDbEntity
  8
Bordi
  6
ByLayer
 62
  256
370
   -1
100
AcDbLine
 10
52
 20
35
 11
52
 21
30
  0
LINE
  5
41C
100
AcDbEntity
  8
Bordi
  6
ByLayer
 62
  256
370
   -1
100
AcDbLine
 10
52
 20
30
 11
42
 21
30
  0
LINE
  5
41D
100
AcDbEntity
  8
Bordi
  6
ByLayer
 62
  256
370
   -1
100
AcDbLine
 10
42
 20
30
 11
42
 21
35
  0
LINE
  5
41E
100
AcDbEntity
  8
Bordi
  6
ByLayer
 62
  256
370
   -1
100
AcDbLine
 10
42
 20
35
 11
32
 21
35
  0
LINE
  5
41F
100
AcDbEntity
  8
Bordi
  6
ByLayer
 62
  256
370
   -1
100
AcDbLine
 10
32
 20
35
 11
32
 21
30
  0
LINE
  5
420
100
AcDbEntity
  8
Bordi
  6
ByLayer
 62
  256
370
   -1
100
AcDbLine
 10
32
 20
30
 11
22
 21
30
  0
LINE
  5
421
100
AcDbEntity
  8
Bordi
  6
ByLayer
 62
  256
370
   -1
100
AcDbLine
 10
22
 20
30
 11
22
 21
35
  0
LINE
  5
422
100
AcDbEntity
  8
Bordi
  6
ByLayer
 62
  256
370
   -1
100
AcDbLine
 10
22
 20
35
 11
12
 21
35
  0
LINE
  5
423
100
AcDbEntity
  8
Bordi
  6
ByLayer
 62
  256
370
   -1
100
AcDbLine
 10
95
 20
30
 11
82
 21
30
  0
LINE
  5
424
100
AcDbEntity
  8
Bordi
  6
ByLayer
 62
  256
370
   -1
100
AcDbLine
 10
82
 20
30
 11
82
 21
35
  0
LINE
  5
425
100
AcDbEntity
  8
Bordi
  6
ByLayer
 62
  256
370
   -1
100
AcDbLine
 10
0
 20
30
 11
0
 21
40
  0
LINE
  5
426
100
AcDbEntity
  8
Bordi
  6
ByLayer
 62
  256
370
   -1
100
AcDbLine
 10
12
 20
35
 11
12
 21
30
  0
LINE
  5
427
100
AcDbEntity
  8
Bordi
  6
ByLayer
 62
  256
370
   -1
100
AcDbLine
 10
12
 20
30
 11
0
 21
30
  0
DIMENSION
  5
428
100
AcDbEntity
  8
Misure
  6
ByLayer
 62
  256
370
   -1
100
AcDbDimension
  2
*D4
 10
47.5
 20
130.783117406
 30
0
 11
26.25
 21
132.658117406
 31
0
 70
   33
 71
    5
  3
Standard
 53
0
210
0
220
0
230
1
100
AcDbAlignedDimension
 13
5
 23
130
 33
0
 14
47.5
 24
130
 34
0
  0
MTEXT
  5
429
100
AcDbEntity
  8
Testo
  6
ByLayer
 62
  256
370
   -1
100
AcDbMText
 10
47.5
 20
125
 30
0
 40
8
 41
73.7511111111111
 71
    5
 72
    1
  1
Mastermind
  7
wqy-unicode
210
0
220
0
230
1
 50
0
 73
    2
 44
1
  0
LINE
  5
42A
100
AcDbEntity
  8
Testo
  6
ByLayer
 62
  256
370
   -1
100
AcDbLine
 10
41.8866666667
 20
117.391111111
 11
45.8866666667
 21
113.391111111
  0
LINE
  5
42B
100
AcDbEntity
  8
Testo
  6
ByLayer
 62
  256
370
   -1
100
AcDbLine
 10
45.8866666667
 20
113.391111111
 11
35.8866666667
 21
109.391111111
  0
LINE
  5
42C
100
AcDbEntity
  8
Testo
  6
ByLayer
 62
  256
370
   -1
100
AcDbLine
 10
45.8866666667
 20
113.391111111
 11
55.8866666667
 21
109.391111111
  0
LINE
  5
42D
100
AcDbEntity
  8
Testo
  6
ByLayer
 62
  256
370
   -1
100
AcDbLine
 10
55.8866666667
 20
109.391111111
 11
45.8866666667
 21
105.391111111
  0
LINE
  5
42E
100
AcDbEntity
  8
Testo
  6
ByLayer
 62
  256
370
   -1
100
AcDbLine
 10
45.8866666667
 20
105.391111111
 11
35.8866666667
 21
109.391111111
  0
LINE
  5
42F
100
AcDbEntity
  8
Testo
  6
ByLayer
 62
  256
370
   -1
100
AcDbLine
 10
39.8866666667
 20
103.391111111
 11
45.8866666667
 21
105.391111111
  0
LINE
  5
430
100
AcDbEntity
  8
Testo
  6
ByLayer
 62
  256
370
   -1
100
AcDbLine
 10
55.8866666667
 20
109.391111111
 11
61.8866666667
 21
113.391111111
  0
LINE
  5
431
100
AcDbEntity
  8
Testo
  6
ByLayer
 62
  256
370
   -1
100
AcDbLine
 10
61.8866666667
 20
113.391111111
 11
51.8866666667
 21
117.391111111
  0
LINE
  5
432
100
AcDbEntity
  8
Testo
  6
ByLayer
 62
  256
370
   -1
100
AcDbLine
 10
51.8866666667
 20
117.391111111
 11
45.8866666667
 21
113.391111111
  0
LINE
  5
433
100
AcDbEntity
  8
Testo
  6
ByLayer
 62
  256
370
   -1
100
AcDbLine
 10
31.8866666667
 20
113.391111111
 11
41.8866666667
 21
117.391111111
  0
LINE
  5
434
100
AcDbEntity
  8
Testo
  6
ByLayer
 62
  256
370
   -1
100
AcDbLine
 10
35.8866666667
 20
109.391111111
 11
31.8866666667
 21
113.391111111
  0
LINE
  5
435
100
AcDbEntity
  8
Testo
  6
ByLayer
 62
  256
370
   -1
100
AcDbLine
 10
35.8866666667
 20
109.391111111
 11
29.8866666667
 21
107.391111111
  0
LINE
  5
436
100
AcDbEntity
  8
Testo
  6
ByLayer
 62
  256
370
   -1
100
AcDbLine
 10
29.8866666667
 20
107.391111111
 11
39.8866666667
 21
103.391111111
  0
LINE
  5
437
100
AcDbEntity
  8
Testo
  6
ByLayer
 62
  256
370
   -1
100
AcDbLine
 10
45.8866666667
 20
105.391111111
 11
53.8866666667
 21
105.391111111
  0
LINE
  5
438
100
AcDbEntity
  8
Testo
  6
ByLayer
 62
  256
370
   -1
100
AcDbLine
 10
61.8866666667
 20
109.391111111
 11
55.8866666667
 21
109.391111111
  0
LINE
  5
439
100
AcDbEntity
  8
Testo
  6
ByLayer
 62
  256
370
   -1
100
AcDbLine
 10
53.8866666667
 20
105.391111111
 11
61.8866666667
 21
109.391111111
  0
LINE
  5
43A
100
AcDbEntity
  8
Testo
  6
ByLayer
 62
  256
370
   -1
100
AcDbLine
 10
55.8866666667
 20
97.3911111111
 11
55.8866666667
 21
106.391111111
  0
LINE
  5
43B
100
AcDbEntity
  8
Testo
  6
ByLayer
 62
  256
370
   -1
100
AcDbLine
 10
35.8866666667
 20
104.991111111
 11
35.8866666667
 21
97.3911111111
  0
LINE
  5
43C
100
AcDbEntity
  8
Testo
  6
ByLayer
 62
  256
370
   -1
100
AcDbLine
 10
45.8866666667
 20
93.3911111111
 11
45.8866666667
 21
105.391111111
  0
LINE
  5
43D
100
AcDbEntity
  8
Testo
  6
ByLayer
 62
  256
370
   -1
100
AcDbLine
 10
45.8866666667
 20
93.3911111111
 11
55.8866666667
 21
97.3911111111
  0
LINE
  5
43E
100
AcDbEntity
  8
Testo
  6
ByLayer
 62
  256
370
   -1
100
AcDbLine
 10
35.8866666667
 20
97.3911111111
 11
45.8866666667
 21
93.3911111111
  0
MTEXT
  5
43F
100
AcDbEntity
  8
Testo
  6
ByLayer
 62
  256
370
   -1
100
AcDbMText
 10
45.8866666667
 20
87.3911111111
 30
0
 40
8
 41
56.44444444444444
 71
    5
 72
    1
  1
in a Box
  7
wqy-unicode
210
0
220
0
230
1
 50
0
 73
    2
 44
1
  0
LINE
  5
440
100
AcDbEntity
  8
TestoLight
  6
ByLayer
 62
  256
370
   -1
100
AcDbLine
 10
149
 20
56
 11
137
 21
56
  0
ARC
  5
441
100
AcDbEntity
  8
TestoLight
  6
ByLayer
 62
  256
370
   -1
100
AcDbCircle
 10
137
 20
60
 40
4
100
AcDbArc
 50
90
 51
270
  0
ARC
  5
442
100
AcDbEntity
  8
TestoLight
  6
ByLayer
 62
  256
370
   -1
100
AcDbCircle
 10
149
 20
60
 40
4
100
AcDbArc
 50
270
 51
90
  0
LINE
  5
443
100
AcDbEntity
  8
TestoLight
  6
ByLayer
 62
  256
370
   -1
100
AcDbLine
 10
149
 20
38
 11
137
 21
38
  0
LINE
  5
444
100
AcDbEntity
  8
TestoLight
  6
ByLayer
 62
  256
370
   -1
100
AcDbLine
 10
137
 20
46
 11
149
 21
46
  0
ARC
  5
445
100
AcDbEntity
  8
TestoLight
  6
ByLayer
 62
  256
370
   -1
100
AcDbCircle
 10
137
 20
42
 40
4
100
AcDbArc
 50
90
 51
270
  0
ARC
  5
446
100
AcDbEntity
  8
TestoLight
  6
ByLayer
 62
  256
370
   -1
100
AcDbCircle
 10
149
 20
42
 40
4
100
AcDbArc
 50
270
 51
90
  0
LINE
  5
447
100
AcDbEntity
  8
TestoLight
  6
ByLayer
 62
  256
370
   -1
100
AcDbLine
 10
137
 20
64
 11
149
 21
64
  0
MTEXT
  5
448
100
AcDbEntity
  8
Testo
  6
ByLayer
 62
  256
370
   -1
100
AcDbMText
 10
139
 20
72
 30
0
 40
6
 41
4.753333333333334
 71
    5
 72
    1
  1
A
  7
wqy-unicode
210
0
220
0
230
1
 50
0
 73
    2
 44
1
  0
MTEXT
  5
449
100
AcDbEntity
  8
Testo
  6
ByLayer
 62
  256
370
   -1
100
AcDbMText
 10
160
 20
72
 30
0
 40
6
 41
4.093333333333334
 71
    5
 72
    1
  1
B
  7
wqy-unicode
210
0
220
0
230
1
 50
0
 73
    2
 44
1
  0
MTEXT
  5
44A
100
AcDbEntity
  8
Testo
  6
ByLayer
 62
  256
370
   -1
100
AcDbMText
 10
175
 20
67
 30
0
 40
6
 41
4.293333333333333
 71
    5
 72
    1
  1
C
  7
wqy-unicode
210
0
220
0
230
1
 50
0
 73
    2
 44
1
  0
MTEXT
  5
44B
100
AcDbEntity
  8
Testo
  6
ByLayer
 62
  256
370
   -1
100
AcDbMText
 10
196
 20
67
 30
0
 40
6
 41
4.133333333333333
 71
    5
 72
    1
  1
D
  7
wqy-unicode
210
0
220
0
230
1
 50
0
 73
    2
 44
1
  0
DIMENSION
  5
44C
100
AcDbEntity
  8
Misure
  6
ByLayer
 62
  256
370
   -1
100
AcDbDimension
  2
*D5
 10
240
 20
180
 30
0
 11
120
 21
181.875
 31
0
 70
   33
 71
    5
  3
Standard
 53
0
210
0
220
0
230
1
100
AcDbAlignedDimension
 13
0
 23
145
 33
0
 14
240
 24
145
 34
0
  0
DIMENSION
  5
44D
100
AcDbEntity
  8
Misure
  6
ByLayer
 62
  256
370
   -1
100
AcDbDimension
  2
*D6
 10
0.2408123146653421
 20
189.999017093
 30
0
 11
122.748465312
 21
191.374001474
 31
0
 70
   33
 71
    5
  3
Standard
 53
0
210
0
220
0
230
1
100
AcDbAlignedDimension
 13
245
 23
130
 33
0
 14
1.83697019872e-16
 24
131
 34
0
  0
LINE
  5
44E
100
AcDbEntity
  8
Bordi
  6
ByLayer
 62
  256
370
   -1
100
AcDbLine
 10
240
 20
35
 11
240
 21
40
  0
LINE
  5
44F
100
AcDbEntity
  8
Bordi
  6
ByLayer
 62
  256
370
   -1
100
AcDbLine
 10
240
 20
140
 11
240
 21
130
  0
LINE
  5
450
100
AcDbEntity
  8
Bordi
  6
ByLayer
 62
  256
370
   -1
100
AcDbLine
 10
223
 20
35
 11
223
 21
30
  0
LINE
  5
451
100
AcDbEntity
  8
Bordi
  6
ByLayer
 62
  256
370
   -1
100
AcDbLine
 10
223
 20
30
 11
233
 21
30
  0
LINE
  5
452
100
AcDbEntity
  8
Bordi
  6
ByLayer
 62
  256
370
   -1
100
AcDbLine
 10
233
 20
30
 11
233
 21
35
  0
LINE
  5
453
100
AcDbEntity
  8
Bordi
  6
ByLayer
 62
  256
370
   -1
100
AcDbLine
 10
233
 20
35
 11
240
 21
35
  0
LINE
  5
454
100
AcDbEntity
  8
Bordi
  6
ByLayer
 62
  256
370
   -1
100
AcDbLine
 10
223
 20
35
 11
215
 21
35
  0
LINE
  5
455
100
AcDbEntity
  8
Bordi
  6
ByLayer
 62
  256
370
   -1
100
AcDbLine
 10
112
 20
140
 11
112
 21
145
  0
LINE
  5
456
100
AcDbEntity
  8
Bordi
  6
ByLayer
 62
  256
370
   -1
100
AcDbLine
 10
112
 20
145
 11
102
 21
145
  0
LINE
  5
457
100
AcDbEntity
  8
Bordi
  6
ByLayer
 62
  256
370
   -1
100
AcDbLine
 10
102
 20
145
 11
102
 21
140
  0
LINE
  5
458
100
AcDbEntity
  8
Bordi
  6
ByLayer
 62
  256
370
   -1
100
AcDbLine
 10
102
 20
140
 11
95
 21
140
  0
LINE
  5
459
100
AcDbEntity
  8
Bordi
  6
ByLayer
 62
  256
370
   -1
100
AcDbLine
 10
112
 20
140
 11
120
 21
140
  0
LINE
  5
45A
100
AcDbEntity
  8
Bordi
  6
ByLayer
 62
  256
370
   -1
100
AcDbLine
 10
112
 20
35
 11
112
 21
30
  0
LINE
  5
45B
100
AcDbEntity
  8
Bordi
  6
ByLayer
 62
  256
370
   -1
100
AcDbLine
 10
112
 20
30
 11
102
 21
30
  0
LINE
  5
45C
100
AcDbEntity
  8
Bordi
  6
ByLayer
 62
  256
370
   -1
100
AcDbLine
 10
102
 20
30
 11
102
 21
35
  0
LINE
  5
45D
100
AcDbEntity
  8
Bordi
  6
ByLayer
 62
  256
370
   -1
100
AcDbLine
 10
102
 20
35
 11
95
 21
35
  0
LINE
  5
45E
100
AcDbEntity
  8
Bordi
  6
ByLayer
 62
  256
370
   -1
100
AcDbLine
 10
112
 20
35
 11
120
 21
35
  0
LINE
  5
45F
100
AcDbEntity
  8
Bordi
  6
ByLayer
 62
  256
370
   -1
100
AcDbLine
 10
223
 20
140
 11
223
 21
145
  0
LINE
  5
460
100
AcDbEntity
  8
Bordi
  6
ByLayer
 62
  256
370
   -1
100
AcDbLine
 10
223
 20
145
 11
233
 21
145
  0
LINE
  5
461
100
AcDbEntity
  8
Bordi
  6
ByLayer
 62
  256
370
   -1
100
AcDbLine
 10
233
 20
145
 11
233
 21
140
  0
LINE
  5
462
100
AcDbEntity
  8
Bordi
  6
ByLayer
 62
  256
370
   -1
100
AcDbLine
 10
233
 20
140
 11
240
 21
140
  0
LINE
  5
463
100
AcDbEntity
  8
Bordi
  6
ByLayer
 62
  256
370
   -1
100
AcDbLine
 10
223
 20
140
 11
215
 21
140
  0
POINT
  5
464
100
AcDbEntity
  8
correzione
  6
ByLayer
 62
  256
370
   -1
100
AcDbPoint
 10
47.5
 20
70
  0
MTEXT
  5
465
100
AcDbEntity
  8
correzione
  6
ByLayer
 62
  256
370
   -1
100
AcDbMText
 10
46.61110982539323
 20
69.5
 30
0
 40
4
 41
35.73777777777778
 71
    5
 72
    1
  1
Istruzioni
  7
wqy-unicode
210
0
220
0
230
1
 50
0
 73
    2
 44
1
  0
ARC
  5
466
100
AcDbEntity
  8
correzione
  6
ByLayer
 62
  256
370
   -1
100
AcDbCircle
 10
10.5
 20
69.00000000000001
 40
4
100
AcDbArc
 50
90
 51
180
  0
ARC
  5
467
100
AcDbEntity
  8
correzione
  6
ByLayer
 62
  256
370
   -1
100
AcDbCircle
 10
10.5
 20
44
 40
4
100
AcDbArc
 50
180
 51
270
  0
LINE
  5
468
100
AcDbEntity
  8
correzione
  6
ByLayer
 62
  256
370
   -1
100
AcDbLine
 10
6.500000000000004
 20
44
 11
6.500000000000001
 21
69.00000000000001
  0
ARC
  5
469
100
AcDbEntity
  8
correzione
  6
ByLayer
 62
  256
370
   -1
100
AcDbCircle
 10
84.5
 20
69.00000000000001
 40
4
100
AcDbArc
 50
0
 51
90
  0
LINE
  5
46A
100
AcDbEntity
  8
correzione
  6
ByLayer
 62
  256
370
   -1
100
AcDbLine
 10
88.50000000000001
 20
69.00000000000001
 11
88.5
 21
44.00000000000001
  0
ARC
  5
46B
100
AcDbEntity
  8
correzione
  6
ByLayer
 62
  256
370
   -1
100
AcDbCircle
 10
84.50000000000001
 20
44
 40
4
100
AcDbArc
 50
270
 51
0
  0
LINE
  5
46C
100
AcDbEntity
  8
correzione
  6
ByLayer
 62
  256
370
   -1
100
AcDbLine
 10
10.5
 20
40
 11
84.50000000000001
 21
40
  0
DIMENSION
  5
46D
100
AcDbEntity
  8
Misure
  6
ByLayer
 62
  256
370
   -1
100
AcDbDimension
  2
*D7
 10
88.50000006978108
 20
75.00000000581508
 30
0
 11
47.50000009158764
 21
76.87500048265221
 31
0
 70
   33
 71
    5
  3
Standard
 53
0
210
0
220
0
230
1
100
AcDbAlignedDimension
 13
6.499999999999993
 23
68.99999904632568
 33
0
 14
88.50000000000001
 24
68.99999809265141
 34
0
  0
MTEXT
  5
46E
100
AcDbEntity
  8
correzione
  6
ByLayer
 62
  256
370
   -1
100
AcDbMText
 10
10
 20
51
 30
0
 40
2
 41
74.61111316826127
 71
    4
 72
    1
  1
La combinazione  composta da quattro simboli, anche\Pripetuti: usa i quattro bottoni per inserirne una,\Pe otterrai dei suggerimenti\P- O per ogni simbolo giusto nella giusta posizione\P- X per ogni simbolo giusto nella posizione sbagliata.
  7
iso
210
0
220
0
230
1
 50
0
 73
    2
 44
1
  0
MTEXT
  5
46F
100
AcDbEntity
  8
correzione
  6
ByLayer
 62
  256
370
   -1
100
AcDbMText
 10
48.52430557355562
 20
62.27666666666668
 30
0
 40
2
 41
44.88889094603868
 71
    5
 72
    1
  1
Hai 10 tentativi per indovinare\Pla giusta combinazione di simboli!
  7
iso
210
0
220
0
230
1
 50
0
 73
    2
 44
1
  0
MTEXT
  5
470
100
AcDbEntity
  8
Testo
  6
ByLayer
 62
  256
370
   -1
100
AcDbMText
 10
107.8333333333333
 20
89.4791657666639
 30
0
 40
3.5
 41
63.87500180000617
 71
    5
 72
    1
  1
un progetto GLG Programs\Pwww.glgprograms.it
  7
standard
210
0
220
0
230
1
 50
270
 73
    2
 44
1
  0
DIMENSION
  5
471
100
AcDbEntity
  8
Measurements
  6
ByLayer
 62
  256
370
   -1
100
AcDbDimension
  2
*D8
 10
389
 20
50
 30
0
 11
359.5
 21
51.875
 31
0
 70
   33
 71
    5
  3
Standard
 53
0
210
0
220
0
230
1
100
AcDbAlignedDimension
 13
330
 23
63
 33
0
 14
389
 24
63
 34
0
  0
DIMENSION
  5
472
100
AcDbEntity
  8
Measurements
  6
ByLayer
 62
  256
370
   -1
100
AcDbDimension
  2
*D9
 10
300.6363636364
 20
208
 30
0
 11
298.7613636364
 21
149
 31
0
 70
   33
 71
    5
  3
Standard
 53
0
210
0
220
0
230
1
100
AcDbAlignedDimension
 13
306
 23
90
 33
0
 14
306
 24
208
 34
0
  0
DIMENSION
  5
473
100
AcDbEntity
  8
Measurements
  6
ByLayer
 62
  256
370
   -1
100
AcDbDimension
  2
*D10
 10
355
 20
198
 30
0
 11
353.125
 21
203
 31
0
 70
   33
 71
    5
  3
Standard
 53
0
210
0
220
0
230
1
100
AcDbAlignedDimension
 13
358
 23
208
 33
0
 14
358
 24
198
 34
0
  0
DIMENSION
  5
474
100
AcDbEntity
  8
Measurements
  6
ByLayer
 62
  256
370
   -1
100
AcDbDimension
  2
*D11
 10
348
 20
188
 30
0
 11
346.125
 21
198
 31
0
 70
   33
 71
    5
  3
Standard
 53
0
210
0
220
0
230
1
100
AcDbAlignedDimension
 13
350
 23
208
 33
0
 14
350
 24
188
 34
0
  0
DIMENSION
  5
475
100
AcDbEntity
  8
Measurements
  6
ByLayer
 62
  256
370
   -1
100
AcDbDimension
  2
*D12
 10
346
 20
195.6
 30
0
 11
338
 21
197.475
 31
0
 70
   33
 71
    5
  3
Standard
 53
0
210
0
220
0
230
1
100
AcDbAlignedDimension
 13
330
 23
194
 33
0
 14
346
 24
194
 34
0
  0
LINE
  5
476
100
AcDbEntity
  8
Measurements
  6
ByLayer
 62
  256
370
   -1
100
AcDbLine
 10
346
 20
188
 11
373
 21
188
  0
DIMENSION
  5
477
100
AcDbEntity
  8
Measurements
  6
ByLayer
 62
  256
370
   -1
100
AcDbDimension
  2
*D13
 10
364
 20
173
 30
0
 11
362.125
 21
180.5
 31
0
 70
   33
 71
    5
 72
    0
  3
Standard
 53
0
210
0
220
0
230
1
100
AcDbAlignedDimension
 13
360
 23
188
 33
0
 14
360
 24
173
 34
0
  0
POINT
  5
478
100
AcDbEntity
  8
Measurements
  6
ByLayer
 62
  256
370
   -1
100
AcDbPoint
 10
359.5
 20
208
  0
DIMENSION
  5
479
100
AcDbEntity
  8
Measurements
  6
ByLayer
 62
  256
370
   -1
100
AcDbDimension
  2
*D14
 10
371
 20
110
 30
0
 11
369.125
 21
100
 31
0
 70
   33
 71
    5
 72
    0
  3
Standard
 53
0
210
0
220
0
230
1
100
AcDbAlignedDimension
 13
359.5
 23
90
 33
0
 14
359.5
 24
110
 34
0
  0
DIMENSION
  5
47A
100
AcDbEntity
  8
Measurements
  6
ByLayer
 62
  256
370
   -1
100
AcDbDimension
  2
*D15
 10
335
 20
83.7600873187
 30
0
 11
321.5
 21
85.6350873187
 31
0
 70
   33
 71
    5
 72
    0
  3
Standard
 53
0
210
0
220
0
230
1
100
AcDbAlignedDimension
 13
308
 23
90
 33
0
 14
335
 24
90
 34
0
  0
DIMENSION
  5
47B
100
AcDbEntity
  8
Measurements
  6
ByLayer
 62
  256
370
   -1
100
AcDbDimension
  2
*D16
 10
305
 20
153
 30
0
 11
303.125
 21
180.5
 31
0
 70
   33
 71
    5
 72
    0
  3
Standard
 53
0
210
0
220
0
230
1
100
AcDbAlignedDimension
 13
308
 23
208
 33
0
 14
308
 24
153
 34
0
  0
DIMENSION
  5
47C
100
AcDbEntity
  8
Measurements
  6
ByLayer
 62
  256
370
   -1
100
AcDbDimension
  2
*D17
 10
321.5
 20
149
 30
0
 11
314.75
 21
150.875
 31
0
 70
   33
 71
    5
 72
    0
  3
Standard
 53
0
210
0
220
0
230
1
100
AcDbAlignedDimension
 13
308
 23
153
 33
0
 14
321.5
 24
153
 34
0
  0
DIMENSION
  5
47D
100
AcDbEntity
  8
Measurements
  6
ByLayer
 62
  256
370
   -1
100
AcDbDimension
  2
*D18
 10
465
 20
77
 30
0
 11
435.5
 21
78.875
 31
0
 70
   33
 71
    5
  3
Standard
 53
0
210
0
220
0
230
1
100
AcDbAlignedDimension
 13
406
 23
90
 33
0
 14
465
 24
90
 34
0
  0
DIMENSION
  5
47E
100
AcDbEntity
  8
Measurements
  6
ByLayer
 62
  256
370
   -1
100
AcDbDimension
  2
*D19
 10
346
 20
119
 30
0
 11
344.125
 21
110
 31
0
 70
   33
 71
    5
  3
Standard
 53
0
210
0
220
0
230
1
100
AcDbAlignedDimension
 13
350
 23
101
 33
0
 14
350
 24
119
 34
0
  0
DIMENSION
  5
47F
100
AcDbEntity
  8
Measurements
  6
ByLayer
 62
  256
370
   -1
100
AcDbDimension
  2
*D20
 10
369.5
 20
122
 30
0
 11
359.5
 21
123.875
 31
0
 70
   33
 71
    5
  3
Standard
 53
0
210
0
220
0
230
1
100
AcDbAlignedDimension
 13
349.5
 23
119
 33
0
 14
369.5
 24
119
 34
0
  0
ELLIPSE
  5
480
100
AcDbEntity
  8
Measurements
  6
ByLayer
 62
  256
370
   -1
100
AcDbEllipse
 10
359.5
 20
110
 30
0
 11
-16.5476672157
 21
0
 31
0
 40
0.7967456541420002
 41
0
 42
6.283185307179586
  0
DIMENSION
  5
481
100
AcDbEntity
  8
Measurements
  6
ByLayer
 62
  256
370
   -1
100
AcDbDimension
  2
*D21
 10
395
 20
240
 30
0
 11
362.5
 21
241.875
 31
0
 70
   33
 71
    5
  3
Standard
 53
0
210
0
220
0
230
1
100
AcDbAlignedDimension
 13
330
 23
230
 33
0
 14
395
 24
230
 34
0
  0
DIMENSION
  5
482
100
AcDbEntity
  8
Measurements
  6
ByLayer
 62
  256
370
   -1
100
AcDbDimension
  2
*D22
 10
325.2592592593
 20
235
 30
0
 11
323.3842592593
 21
219
 31
0
 70
   33
 71
    5
  3
Standard
 53
0
210
0
220
0
230
1
100
AcDbAlignedDimension
 13
330
 23
203
 33
0
 14
330
 24
235
 34
0
  0
LINE
  5
483
100
AcDbEntity
  8
Measurements
  6
ByLayer
 62
  256
370
   -1
100
AcDbLine
 10
390
 20
149
 11
422
 21
149
  0
LINE
  5
484
100
AcDbEntity
  8
Measurements
  6
ByLayer
 62
  256
370
   -1
100
AcDbLine
 10
434.344676809
 20
189.4
 11
464.344676809
 21
189.4
  0
LINE
  5
485
100
AcDbEntity
  8
Measurements
  6
ByLayer
 62
  256
370
   -1
100
AcDbLine
 10
449.5
 20
90
 11
449.5
 21
208
  0
INSERT
  5
486
100
AcDbEntity
  8
SVG
  6
ByLayer
 62
  256
370
   -1
100
AcDbBlockReference
  2
fablab-0
 10
238
 20
109
 30
0
 41
0.045
 42
0.045
 43
0
 50
90
 70
    1
 71
    1
 44
0
 45
0
  0
MTEXT
  5
487
100
AcDbEntity
  8
Testo
  6
ByLayer
 62
  256
370
   -1
100
AcDbMText
 10
227.8334968996245
 20
73.87500085996834
 30
0
 40
3.5
 41
49.19444444444542
 71
    5
 72
    1
  1
in collaborazione con\PFabLab Toscana\Pwww.fablabtoscana.it
  7
iso
210
0
220
0
230
1
 50
90
 73
    2
 44
1
  0
LINE
  5
488
100
AcDbEntity
  8
correzione
  6
ByLayer
 62
  256
370
   -1
100
AcDbLine
 10
10.49999865130088
 20
73
 11
84.5
 21
73.00000000000001
  0
CIRCLE
  5
489
100
AcDbEntity
  8
Fori
  6
ByLayer
 62
  256
370
   -1
100
AcDbCircle
 10
143
 20
51
 40
3
  0
ENDSEC
  0
SECTION
  2
OBJECTS
  0
DICTIONARY
  5
C
330
0
100
AcDbDictionary
281
    1
  3
ACAD_GROUP
350
D
  3
ACAD_IMAGE_DICT
350
48A
  0
DICTIONARY
  5
D
330
C
100
AcDbDictionary
281
    1
  0
IMAGEDEF_REACTOR
  5
14E
330
14F
100
AcDbRasterImageDefReactor
 90
    2
330
14F
  0
DICTIONARY
  5
48A
330
C
100
AcDbDictionary
281
    1
  3
Polarit 2 (Standard Pedalini)
350
14D
  0
IMAGEDEF
  5
14D
102
{ACAD_REACTORS
330
14E
102
}
100
AcDbRasterImageDef
 90
    0
  1
/home/giulio/Dropbox/Pedalino/Polarit 2 (Standard Pedalini).png
 10
1214
 20
383
 11
1
 21
1
280
    1
281
    0
  0
ENDSEC
  0
EOF
